<?xml version="1.0" encoding="UTF-8"?>
<svg id="Capa_2" data-name="Capa 2" xmlns="http://www.w3.org/2000/svg" viewBox="0 0 179.42 104.75">
  <defs>
    <style>
      .cls-1 {
        fill: #fff;
      }
    </style>
  </defs>
  <g id="Capa_1-2" data-name="Capa 1">
    <g>
      <g>
        <g>
          <path class="cls-1" d="M24.7,88.53s.02.01.03.02c.01,0,.03.01.04.02,0,0,.02.01.03.02.01,0,.03.01.04.02.01,0,.02.02.03.03,0,0,.02.02.03.02.01.01.02.02.03.04,0,.01.01.02.02.03,0,0,.02.01.03.01.01,0,.03.01.04.02.01.01.02.02.03.03,0,0,.02.02.03.03.01.01.02.02.03.04,0,.01.01.02.02.03,0,0,.02.02.03.02,0,0,.01,0,.02.01,0,0,.01-.01.02-.02,0,0,.02-.02.03-.03.01-.01.03-.02.04-.02.01,0,.02-.01.03-.02.01,0,.02-.02.03-.03,0,0,.02-.02.03-.03,0,0,.02-.02.02-.03,0-.01.02-.02.03-.04.01-.01.02-.02.04-.03.01,0,.02-.02.03-.02,0,0,.02-.02.03-.03.01-.01.02-.02.03-.03,0-.01.02-.02.03-.03,0-.01.02-.02.02-.03,0-.01.02-.02.02-.03,0-.01.01-.02.02-.03.01-.01.02-.03.03-.04,0,0,.01-.02.02-.03,0-.01.02-.02.03-.03,0-.01.02-.02.03-.03,0-.01.02-.03.03-.04,0,0,.01-.02.02-.03,0-.01.02-.03.02-.04,0-.01.01-.02.02-.03,0,0,0-.02.01-.02,0-.02.02-.03.03-.05,0-.01.02-.02.02-.04,0-.01.02-.02.02-.03,0-.01.01-.02.02-.03,0-.01.02-.03.02-.04,0,0,0-.02.01-.03,0-.02.02-.03.02-.05,0-.01,0-.02,0-.04,0-.01,0-.03.01-.04,0-.01,0-.02.01-.03,0-.01.01-.03.02-.04h0s.02-.06.02-.08c0-.01,0-.03,0-.04,0-.01,0-.03,0-.04,0-.01,0-.02.01-.04,0-.01,0-.03.01-.04,0-.01,0-.03.01-.04,0-.01,0-.03.01-.04,0-.01,0-.03,0-.04,0-.01,0-.03,0-.04,0-.02,0-.03.01-.04,0-.01,0-.03,0-.04,0-.01,0-.02,0-.04,0-.01,0-.03,0-.05,0-.01,0-.03,0-.04,0-.01,0-.03,0-.04,0-.01,0-.02,0-.03,0-.02,0-.03,0-.05,0-.01,0-.02,0-.03,0-.02,0-.03,0-.05,0-.01,0-.03,0-.04,0-.01,0-.03,0-.04v-.02s0-.04-.01-.06c0-.01,0-.02-.02-.03,0-.01-.01-.02-.02-.04,0-.01,0-.03,0-.04,0-.01,0-.03,0-.04,0-.02-.01-.03-.02-.04,0,0,0-.02-.01-.03,0-.02-.02-.03-.03-.05,0,0,0-.01-.01-.02,0,0,0-.01-.01-.02-.01-.02-.02-.03-.03-.05-.01-.01-.02-.02-.04-.03,0,0-.02-.01-.02-.02h-.01s-.03-.04-.05-.05c0,0-.02,0-.02-.01-.01,0-.03-.02-.04-.02-.02,0-.05.01-.07.02,0,0,0,0-.01,0-.02.01-.04.02-.05.04,0,0-.01.02-.02.04,0,.01,0,.02-.02.03,0,0-.01.02-.02.03,0,.01-.02.03-.02.04,0,0,0,.02,0,.04,0,.01,0,.03,0,.04,0,.01-.01.03-.02.04,0,.01-.01.02-.02.03,0,.01,0,.03,0,.04,0,.01,0,.03,0,.04,0,.01,0,.02,0,.04,0,.01,0,.03,0,.04,0,.01,0,.02,0,.04,0,.02,0,.03,0,.05,0,.01,0,.02,0,.04,0,.02,0,.03,0,.05,0,.02-.01.03-.02.05,0,.01-.01.02-.01.03v.02s-.01.04-.02.06c0,.01,0,.02,0,.04,0,.02,0,.03,0,.05,0,.02-.01.03-.02.05,0,.01,0,.02-.01.03h0s-.02.06-.02.08c0,.01,0,.02,0,.04,0,.02,0,.03-.01.05,0,.02-.02.03-.03.04,0,0-.02.02-.02.03,0,0,0,.02-.01.03,0,.02-.01.03-.02.05,0,.01,0,.02-.01.04,0,.01,0,.03-.02.04,0,.01-.02.03-.03.04,0,.01-.01.02-.02.03,0,.01-.01.02-.02.03,0,.01-.01.03-.02.04,0,.01-.01.02-.01.03,0,.01-.01.03-.02.04,0,.02-.02.03-.03.04,0,0-.02.02-.02.03,0,.01-.01.02-.02.03,0,.01-.01.03-.02.04,0,.01-.01.02-.02.03,0,.01-.02.03-.03.04,0,.01-.02.02-.03.04,0,0-.02.02-.02.03,0,0-.01.02-.02.03,0,.01-.01.03-.02.04-.01.01-.02.02-.03.03,0,0-.02.02-.03.02,0,0-.02.02-.02.03,0,.01-.02.02-.03.04,0,0-.02.02-.02.03,0,.01-.02.02-.03.03-.01.01-.03.02-.04.03,0,0,0,0,0,0,0,0,0,0,.01.01,0,0,.02.02.03.03Z"/>
          <path class="cls-1" d="M9.86,88.51s0,.03,0,.05c0,.01,0,.03,0,.04,0,.01,0,.03,0,.04,0,.01,0,.03,0,.04,0,.01,0,.03,0,.04,0,.01,0,.03,0,.04,0,.01,0,.03,0,.04,0,.01,0,.03,0,.04,0,.02,0,.03,0,.05,0,.01,0,.03,0,.04,0,.01,0,.03,0,.04,0,.01,0,.03,0,.04,0,.01,0,.03,0,.04,0,.01,0,.03,0,.04,0,0,0,.01,0,.02,0,.01.01.03,0,.05h0s-.02.05-.02.08c0,.01-.01.03-.02.04,0,.01-.01.03-.02.04,0,.01,0,.03,0,.04,0,.01,0,.03,0,.04,0,0,0,.02,0,.03,0,.01,0,.03,0,.05,0,.01,0,.03,0,.04,0,.01,0,.03,0,.04,0,0,0,.02,0,.03,0,.02,0,.03,0,.05h0s0,.05,0,.08c0,.01,0,.03,0,.04,0,.02,0,.03,0,.04,0,.01,0,.03,0,.04,0,.01,0,.03,0,.04,0,.01,0,.03,0,.04,0,.01,0,.03,0,.04,0,.02,0,.03,0,.04,0,.01,0,.03,0,.04,0,.01,0,.02.01.04,0,.01,0,.03.01.04,0,0,0,.02,0,.03,0,.02,0,.04,0,.06,0,.02,0,.03,0,.04,0,.01,0,.03,0,.04,0,0,0,.02.02.03,0,.01.02.03.02.04,0,.02,0,.03,0,.05,0,.01,0,.03,0,.04,0,.03.02.06.03.08,0,.01.01.02.02.04,0,.01.01.02.02.04,0,.01.01.02.02.03,0,.01.02.02.02.04,0,0,0,.02.01.03,0,.02.02.03.02.05,0,0,.01.02.02.03,0,.01.01.03.02.04,0,0,.01.02.02.03,0,.01.02.03.03.04,0,.01.02.02.03.03,0,0,.02.02.03.03,0,.01.02.02.02.03,0,.01.02.02.03.03,0,0,.01.01.02.02.01.01.02.03.04.04,0,0,.01.01.02.02.01.01.03.03.04.04.01,0,.02.02.04.03,0,0,.02.01.03.02.01,0,.02.02.04.03.01,0,.02.01.03.02.01.01.03.02.04.03,0,0,.02.01.02.02.01,0,.02.02.03.03.01,0,.02.02.03.03.01,0,.02.01.03.02.01,0,.03.02.04.02.01,0,.02.01.04.02.01,0,.03,0,.04.02h0s.05.03.07.04c.03.01.05.02.08.03.01,0,.02,0,.04,0,.01,0,.03,0,.04,0,.01,0,.03.01.04.02.01,0,.02.01.03.02,0,0,.02,0,.03,0,.02,0,.04.01.05.02.01,0,.03,0,.04.02.01,0,.03.01.04.01.01,0,.03,0,.04,0,.01,0,.03,0,.04,0,.01,0,.03,0,.04,0,.01,0,.02,0,.04,0,.01,0,.02,0,.04,0,.02,0,.03,0,.05,0,.01,0,.03,0,.04.01s.03,0,.04.01c.02,0,.03,0,.04.01.01,0,.03.01.04.01.02,0,.03,0,.05,0,.01,0,.02,0,.03,0,.01,0,.03,0,.04,0,.01,0,.03,0,.04,0,.01,0,.02,0,.04,0,.01,0,.03,0,.05,0,.03,0,.05,0,.08,0,.01,0,.03,0,.04,0,.01,0,.03,0,.04,0,.01,0,.03,0,.04,0,.01,0,.03,0,.04,0,.02,0,.03,0,.04,0,.01,0,.03,0,.04,0,0,0,.02,0,.04,0,.02,0,.03,0,.05,0,.02,0,.03,0,.05.01.01,0,.02,0,.04,0,.01,0,.03,0,.04,0,.01,0,.03,0,.04,0,.01,0,.03,0,.04,0,.01,0,.03,0,.04,0,.01,0,.03,0,.04,0,.01,0,.03,0,.04,0,.01,0,.03,0,.04,0,.01,0,.03,0,.04,0,.01,0,.03,0,.04,0,.01,0,.03,0,.04,0,.01,0,.03,0,.04,0,.01,0,.03,0,.04,0,.04,0,.07.01.11.04.03.03.05.06.05.1,0,.03,0,.05-.02.07-.01.02-.02.04-.05.06,0,0,0,0-.01,0-.02.01-.04.03-.06.03-.01,0-.03,0-.04,0-.01,0-.02,0-.04,0-.01,0-.03,0-.04,0-.01,0-.02,0-.04,0-.01,0-.03,0-.04,0-.01,0-.02,0-.04,0-.01,0-.02,0-.04,0,0,0-.01,0-.02,0,0,0,0,0,0,.01,0,.01,0,.03,0,.05,0,.01,0,.02,0,.04,0,.01,0,.03.01.04,0,.01,0,.03,0,.04,0,.01,0,.03,0,.04,0,.01,0,.02.01.04,0,.01.01.03.02.04,0,.02,0,.03,0,.05,0,.01,0,.03,0,.04,0,.01,0,.02.02.03,0,.01.02.03.02.04,0,.02,0,.03,0,.05,0,.01,0,.03,0,.04,0,.01,0,.02.02.04,0,.01.01.03.02.04,0,.01,0,.03.02.04,0,.01.01.03.02.04,0,.01,0,.03.01.04,0,.01,0,.03.01.04,0,.01.01.03.02.04,0,.01.01.02.02.04,0,.01,0,.03.01.04,0,.01,0,.03.02.04,0,.01,0,.03.01.04,0,.01.01.03.02.04,0,.01,0,.02.01.03,0,.01.01.03.02.04,0,.01.01.02.02.04,0,.01.02.02.02.04,0,.01.01.02.02.04,0,.01.01.02.02.03,0,.01.01.02.02.04,0,.01.01.02.02.03,0,.01.01.02.02.03,0,.01.02.02.03.03,0,.01.01.03.02.05,0,.01,0,.03.01.03,0,0,.02.02.03.03.01,0,.02.02.03.03,0,.01.01.02.02.03,0,.01.01.03.02.04,0,.01.02.03.02.04,0,.01.01.02.02.03,0,.01.02.02.03.03,0,.01.02.02.03.03,0,.01.02.02.02.03,0,.01.02.02.03.04,0,.01.02.02.03.03.01,0,.02.02.03.03.01.01.02.03.02.04,0,.01.01.02.02.03,0,.01.02.02.03.03,0,0,.02.02.03.03s.02.02.03.03c0,.01.02.02.03.03,0,0,.02.02.03.03.01,0,.02.02.03.03,0,0,.02.02.02.02.01.01.02.02.04.04,0,0,.02.02.03.02.01,0,.03.02.04.03.01.01.02.03.03.04,0,.01.01.02.02.03,0,0,.02.02.03.02.01,0,.02.02.04.02.02.02.04.04.07.05.01,0,.02.01.03.02.01,0,.02.01.04.02.01,0,.02.02.03.03,0,.01.02.02.03.03,0,0,.02.01.03.01.01,0,.03,0,.04.02.01.01.03.02.04.03,0,0,.01,0,.02.01h0s.01.01.02.02c0,0,0,0,0,0,.01,0,.02.02.03.03,0,.01.02.02.02.03.01,0,.02.01.04.02.01,0,.02.01.04.02.01,0,.02.01.04.02.01,0,.02.01.04.02.01,0,.02,0,.04.01.01,0,.03,0,.04.02.01,0,.03.02.04.03.01,0,.02.02.03.02.01,0,.02.01.03.02.01,0,.03.02.04.02.01,0,.02,0,.04.01.01,0,.03,0,.04.01.01,0,.03.02.04.03.01,0,.02.02.03.02.01,0,.03.01.04.02.01,0,.03,0,.04.01.04.02.08.05.09.09.02.04,0,.09-.02.12,0,.02-.01.03-.02.04,0,0,0,.02-.02.04,0,.02,0,.02,0,.03,0,.01,0,.03-.01.05-.01.02-.02.03-.03.04,0,0-.01.01-.02.03,0,.02-.01.03-.02.04,0,0,0,.02-.02.04,0,.02-.01.03-.01.04,0,.01,0,.02-.02.04,0,.02-.01.03-.02.04,0,0,0,.02-.02.04,0,.02,0,.03-.01.03,0,.01,0,.02-.02.04,0,.02-.02.03-.02.04,0,0-.01.01-.02.03,0,.02-.01.03-.01.04,0,.01,0,.02-.02.04,0,.02,0,.02-.01.03,0,.01,0,.02-.01.04-.01.02-.02.03-.04.04,0,0-.01.01-.02.02,0,.01,0,.02,0,.03,0,.01,0,.03,0,.05-.01.02-.02.03-.03.04,0,0-.01.01-.02.03,0,.02-.01.03-.02.04,0,0,0,.02-.02.04,0,.02-.02.03-.02.04,0,0-.01.02-.02.03,0,0,0,.01,0,.02,0,.02-.01.04-.03.05-.02.02-.05.03-.07.03h0s-.04,0-.07.02c-.02,0-.03.02-.05.03,0,0-.01,0-.02.01-.02.02-.04.03-.06.05-.01.01-.03.03-.04.05h-.01s-.02.03-.03.04c-.01,0-.02.02-.03.03,0,.01-.01.03-.02.04,0,.01-.01.02-.02.03-.01.02-.03.05-.04.07,0,.01-.01.02-.02.03,0,.01-.02.03-.02.04,0,.01,0,.03,0,.04,0,.01,0,.03,0,.04,0,.03,0,.05,0,.08,0,.01,0,.02,0,.03,0,.02,0,.03,0,.05,0,.03,0,.05.01.08,0,.03.02.05.03.08,0,.01.01.03.02.04,0,0,.01.02.02.03,0,.01.01.03.02.04,0,.01,0,.03.02.04,0,.01.02.03.03.04,0-.02,0-.04.01-.05,0-.02.01-.04.02-.06,0,0,0-.01,0-.02.01-.03.02-.06.03-.08,0-.01,0-.02.01-.03,0-.02,0-.03.02-.05,0-.02.02-.03.04-.04,0,0,.02-.02.02-.03h0s.03-.05.05-.07c0,0,.01-.02.02-.03,0-.01.02-.03.03-.04.01-.01.03-.02.04-.03,0,0,.02-.01.03-.02,0,0,.01-.01.02-.02.01-.01.03-.03.04-.04,0,0,.02-.02.03-.02.01-.01.02-.03.04-.04.02-.01.03-.02.05-.02.01,0,.02,0,.03-.01,0,0,.02-.01.03-.02.01-.01.03-.02.04-.03.02,0,.03-.01.03-.02,0,0,.02-.01.04-.02.02-.01.05,0,.07,0,0,0,0,0,.01,0,0,0,.01,0,.02,0,.02,0,.04,0,.06.01.02.02.04.04.05.06.01.02.02.05.02.08,0,.03,0,.06-.02.08-.01.02-.03.03-.05.04,0,0-.01,0-.02,0-.02,0-.03.01-.04.02,0,0-.02,0-.03.01-.01,0-.02.01-.03.02,0,0-.02.02-.03.02-.01,0-.02.02-.03.03,0,0-.02.02-.03.03,0,0-.02.01-.03.02-.01,0-.03.02-.04.03-.01.01-.02.02-.04.02-.01,0-.02.01-.03.02,0,0-.01.02-.02.03,0,.01,0,.03-.02.04,0,0-.01.01-.02.02-.01.01-.02.03-.03.04,0,.01-.01.02-.02.03,0,.01-.02.02-.02.03,0,.01,0,.03-.01.04,0,.01,0,.02,0,.03,0,.01,0,.03-.01.05,0,.01,0,.02,0,.03,0,.01-.01.03-.02.04,0,.01-.01.02-.01.03,0,.02,0,.03,0,.05,0,.02,0,.03,0,.06,0,0,.02.01.03.02.01,0,.03.01.04.02.01,0,.02.02.04.03.01.01.02.02.04.03.01,0,.02.01.03.02.02,0,.03.02.05.03.02,0,.04.02.05.02,0,0,.01,0,.02,0,0,0,0,0,0,0,0-.02,0-.03,0-.05v-.02s.01-.04.02-.06c0-.02.01-.03.02-.05,0-.01.01-.02.02-.03v-.02s.02-.04.03-.06c0,0,0-.02.01-.03,0-.02.02-.03.02-.05.01-.02.03-.04.04-.06h0s.02-.03.03-.05c0,0,.02-.02.02-.02.01-.01.03-.03.04-.04,0,0,.01-.01.02-.02.01-.02.03-.03.05-.04,0,0,.01,0,.02-.01,0,0,.02-.02.02-.03.01-.01.02-.03.03-.04.02-.01.03-.02.05-.03,0,0,.02,0,.02-.01.02-.02.05-.03.07-.04,0,0,.02-.01.03-.02.01,0,.03-.02.05-.03.03-.01.06-.01.08,0,.03,0,.05.02.06.03h0s0,0,.01.01c.02.01.04.02.05.05.01.02,0,.05,0,.06,0,0,0,0,0,.01,0,0,0,.01,0,.02,0,.02,0,.04-.01.06-.02.03-.04.05-.06.06h-.02s-.04.02-.06.04c0,0-.01,0-.02.01-.02,0-.03.02-.05.03-.01,0-.02.01-.03.02-.01,0-.03.02-.04.02h0s-.04.04-.06.06c0,0-.01.02-.02.04,0,.01-.01.03-.02.04,0,.01-.02.02-.03.03-.01.01-.02.02-.03.03,0,.02-.02.03-.02.05,0,0,0,.02-.01.03,0,.02-.01.04-.02.06,0,0,0,.01,0,.02,0,0,0,.02,0,.02,0,.02-.01.04-.02.06,0,.02,0,.03,0,.04,0,0,0,0,0,.01,0,0,0,0,0,0,.02,0,.03,0,.05.01.02,0,.03,0,.04.01.01,0,.03.01.04.01.02,0,.03,0,.05,0,.01,0,.02,0,.04,0,.01,0,.03,0,.04,0,.01,0,.03,0,.04,0,.01,0,.03,0,.04,0,.01,0,.03,0,.04,0,.01,0,.03,0,.04,0,.02,0,.03,0,.04,0,.01,0,.02,0,.04-.01.01,0,.03-.01.04-.01.02,0,.03,0,.05,0,.01,0,.03,0,.04,0,.01,0,.03-.01.04-.02.01,0,.02-.01.04-.02.01,0,.02,0,.03-.01.02,0,.03,0,.04-.02v.02h0,0s0,0,0,0v-.02s.02-.01.03-.02c.01,0,.02-.02.03-.02h.02s.04-.03.05-.04c.01,0,.02-.02.03-.03,0,0,.02-.02.03-.03.01,0,.03-.02.04-.02.01,0,.03-.01.04-.02,0,0,.01-.02.02-.03,0-.01.02-.03.03-.04,0,0,.02-.02.03-.02.01-.01.02-.02.04-.03.01-.01.02-.02.04-.03.01,0,.02-.02.03-.02,0-.01.02-.02.03-.03,0-.01.02-.02.02-.03,0,0,.01-.02.02-.03,0-.01.01-.03.02-.04,0,0,.01-.02.02-.03.01-.01.02-.03.03-.04,0-.01.02-.02.04-.03.01,0,.02-.02.03-.03,0-.01.02-.02.02-.04,0-.01.01-.02.02-.04.01-.02.02-.03.03-.05v-.02s.03-.03.04-.04c0-.01.01-.02.02-.03,0-.01.02-.02.03-.04,0-.01.02-.02.02-.03,0-.01,0-.02.01-.04,0-.01,0-.03.02-.04,0-.01.01-.02.02-.03,0-.01.02-.03.02-.04,0-.01.01-.03.02-.04,0-.01.01-.02.02-.03,0-.01.01-.03.02-.04,0-.01.01-.02.02-.04,0-.01.02-.03.03-.04,0-.01.02-.02.02-.03,0-.02.02-.03.02-.05v-.03s.02-.02.02-.04c0-.01,0-.03.01-.05,0-.01.01-.03.02-.04,0-.01.01-.02.02-.04,0-.01,0-.02,0-.04,0-.02,0-.03.01-.05,0-.01,0-.02.02-.04,0-.01.01-.03.02-.04,0-.01.01-.03.02-.04,0-.01.01-.03.02-.04,0-.01,0-.02.01-.04,0-.01,0-.03.01-.04,0-.01.01-.03.02-.04,0-.01.01-.03.02-.04,0-.01,0-.03.01-.04,0-.01.01-.03.02-.04,0-.01,0-.03.01-.04,0-.01.01-.03.02-.04,0-.01,0-.03.01-.04,0-.01,0-.03.01-.04,0-.01,0-.03.01-.04,0-.01,0-.03.01-.04,0-.01,0-.03.01-.04,0-.01,0-.03.01-.04h0s0-.01,0-.01c0,0,0,0,.01,0,0,0,0-.01,0-.02,0-.02,0-.03,0-.05,0-.02.01-.03.02-.04,0-.01.01-.02.02-.04,0-.01,0-.02,0-.04,0-.01,0-.03,0-.05,0-.01,0-.03.01-.04,0-.01.01-.03.01-.04,0-.01,0-.03.01-.04,0-.01,0-.03.01-.04,0-.02.01-.03.02-.04,0-.01.01-.02.02-.04,0-.01,0-.02,0-.04,0-.02,0-.03,0-.05,0-.01,0-.03.01-.04,0-.01,0-.03.01-.04h0s.01-.06.02-.08c0-.01,0-.02,0-.04,0-.01,0-.03.01-.04,0-.01,0-.03.01-.04,0-.01,0-.03.01-.04,0-.02.02-.05.04-.07.02-.02.05-.04.07-.05.03,0,.06,0,.08,0h0s.05.01.07.03c.02.02.02.04.02.06,0,0,0,.02,0,.02,0,.02.01.05,0,.08,0,.02,0,.03-.01.05,0,.01,0,.02,0,.04,0,.01,0,.03,0,.04,0,.02,0,.03,0,.05,0,.01,0,.03,0,.04,0,.01,0,.03,0,.04,0,.02,0,.03-.01.05v.03s-.02.03-.02.04c0,.01,0,.03-.01.04,0,.01,0,.03,0,.04,0,.02,0,.03,0,.05,0,.02-.01.03-.02.05,0,.01-.01.02-.02.03,0,.01,0,.02,0,.04,0,.02,0,.03,0,.05,0,.01,0,.03-.01.04,0,0,0,0,0,.01,0,0,0,0,0,0,.01,0,.03,0,.04,0,.01,0,.03,0,.04,0,.01,0,.03,0,.04,0,.01,0,.03,0,.04,0,.01,0,.03,0,.04,0,.01,0,.03,0,.04,0s.03,0,.04,0c.01,0,.03,0,.04,0,.01,0,.03,0,.04,0,.01,0,.03,0,.04,0,.01,0,.03,0,.04,0,.01,0,.02,0,.04,0,.02,0,.03,0,.05,0,.01,0,.03,0,.04,0,.01,0,.03,0,.04,0,.01,0,.03,0,.04,0,.01,0,.03,0,.04,0,.01,0,.03,0,.04,0,.01,0,.03,0,.04,0,.01,0,.03,0,.04,0,.01,0,.03,0,.04,0,.01,0,.02,0,.04,0,.01,0,.03,0,.05,0,.01,0,.03,0,.04,0,.01,0,.03,0,.04,0,.01,0,.03,0,.04,0,.03,0,.05,0,.08,0,.01,0,.03,0,.04,0,.02,0,.03,0,.05,0,.01,0,.02,0,.04,0,.01,0,.02,0,.04,0,.01,0,.03,0,.05,0,.01,0,.03,0,.04,0,.01,0,.03,0,.04,0,.01,0,.03,0,.04,0,.01,0,.03,0,.04,0,.01,0,.03,0,.04,0,.01,0,.03,0,.04,0,.02,0,.03,0,.05,0,.01,0,.03,0,.04,0,.02,0,.03,0,.05,0,.01,0,.02,0,.03,0,.01,0,.03,0,.04,0,.01,0,.03,0,.04,0,.01,0,.02,0,.04,0,.01,0,.03,0,.05,0,.02,0,.03,0,.05,0,.01,0,.03,0,.04,0,.01,0,.03,0,.04,0s.03,0,.04,0c.01,0,.03,0,.04,0,.01,0,.03,0,.04,0,.01,0,.03,0,.04,0,.01,0,.03,0,.04,0,.02,0,.03,0,.05,0h.03s.03,0,.04,0c.01,0,.03,0,.04,0,.01,0,.03,0,.04,0,.01,0,.03,0,.04,0,.01,0,.02,0,.04,0,.01,0,.03,0,.05-.01.02,0,.03,0,.04,0,.01,0,.03,0,.04,0,.01,0,.03,0,.04,0,.01,0,.03,0,.04,0,.01,0,.03,0,.04,0,.01,0,.03,0,.04,0,.02,0,.03,0,.05,0,.01,0,.03,0,.04,0,.01,0,.02,0,.04-.01.01,0,.03-.01.05-.01.02,0,.03,0,.05,0,.01,0,.03,0,.04,0,.01,0,.02,0,.04-.01.01,0,.03-.01.04-.01.02,0,.03,0,.04,0,.01,0,.03,0,.04,0,.03,0,.06,0,.08,0,.01,0,.03,0,.04,0,.01,0,.03,0,.04,0,.01,0,.02,0,.03-.01.01,0,.03-.02.05-.02.02,0,.04,0,.05,0,.01,0,.03,0,.04,0,.01,0,.03,0,.04,0,.01,0,.03,0,.04,0,.01,0,.03,0,.04,0,.01,0,.03,0,.04,0,.01,0,.02,0,.04-.01.01,0,.03-.01.04-.01.02,0,.03,0,.05,0,.01,0,.03,0,.04,0,.01,0,.03,0,.04,0,.01,0,.03,0,.04,0,.01,0,.03,0,.04,0,.01,0,.03,0,.04,0,.01,0,.02,0,.04-.01.01,0,.03-.01.04-.02.02,0,.03,0,.04,0,.01,0,.03,0,.04,0,.01,0,.03,0,.04,0,.01,0,.03,0,.04,0,.01,0,.02,0,.04-.02.01,0,.03-.01.04-.02.01,0,.03,0,.04,0,.01,0,.03,0,.04-.01.01,0,.03,0,.04-.01.01,0,.03,0,.04-.01.01,0,.03,0,.04-.01.01,0,.03,0,.04-.01.01,0,.03,0,.04-.01.01,0,.03-.01.04-.01.02,0,.03,0,.05,0,.01,0,.03,0,.04,0,.01,0,.03,0,.04-.02.01,0,.03-.01.04-.02.01,0,.03-.01.04-.02.01,0,.02,0,.03-.01.03,0,.05-.02.08-.03.02,0,.03,0,.05-.01.01,0,.03,0,.04,0,.01,0,.02-.01.04-.02.01,0,.02-.01.04-.02.01,0,.02-.01.04-.02.01,0,.02-.02.04-.02.01,0,.03-.01.04-.01.01,0,.03,0,.04-.01.01,0,.02-.01.04-.02.01,0,.03-.01.04-.02.01,0,.02-.01.03-.02.01-.01.02-.02.04-.03.01,0,.03-.01.04-.02.01,0,.03,0,.04-.01.01,0,.03-.02.04-.03,0,0,.02-.01.03-.02.01,0,.02-.01.04-.02,0,0,.02,0,.02-.01,0,0,0,0,0-.01,0-.01-.02-.03-.03-.04,0-.01-.01-.02-.02-.03-.01-.01-.02-.02-.03-.04v-.02s-.03-.04-.04-.05c0-.02-.01-.03-.02-.05,0-.01,0-.02-.01-.03,0-.02-.01-.03-.01-.05,0-.01,0-.02,0-.03,0-.01,0-.02-.02-.03,0-.01-.01-.03-.02-.04,0-.02,0-.03-.01-.05,0-.01,0-.02,0-.04,0-.01,0-.02-.02-.03,0-.01-.02-.03-.02-.04,0-.02,0-.03-.01-.05,0-.01,0-.02,0-.03,0-.02,0-.03,0-.05,0-.01,0-.02,0-.04,0-.01,0-.02-.01-.04,0-.01-.01-.03-.02-.04,0-.02,0-.04,0-.05,0-.01,0-.02,0-.03,0-.01,0-.03-.01-.04,0-.01,0-.03-.01-.04,0-.01,0-.03,0-.04,0-.01,0-.03,0-.04,0-.04,0-.07,0-.08,0,0,0,0,0,0,0-.04.02-.08.04-.11.03-.03.07-.05.1-.05,0,0,0,0,.01,0,.04,0,.08.02.12.05.03.03.03.08.03.11h0s.01.04.02.08c0,.01,0,.03,0,.04,0,.01,0,.03,0,.04,0,.01,0,.03,0,.04,0,.01,0,.03,0,.04,0,.02,0,.05.01.08,0,.01,0,.02,0,.04,0,.01,0,.03,0,.04,0,.01,0,.02.01.03,0,.01.01.03.02.04,0,.01,0,.02,0,.03,0,.02,0,.03.01.05,0,.01,0,.02.02.04,0,.01.01.02.02.04,0,.01,0,.03,0,.04,0,.01,0,.03,0,.04,0,.01.01.02.02.03,0,.01.01.02.02.04,0,0,0,.02.01.03,0,.02.01.03.02.05,0,.01.01.02.02.03,0,.01.01.02.02.03,0,0,0,.02.01.03,0,.01.01.03.02.04,0,.01.01.02.02.03,0,.01.01.02.02.03,0,.01.01.03.02.04,0,0,0,.01,0,.02,0,0,.01,0,.02,0,0,0,0,.01,0,.02,0,0,0,.02.01.03,0,.01.01.03.02.04,0,0,.02.02.03.03.01,0,.03.02.04.03,0,.01.02.03.02.04,0,.01.01.02.02.03.01.02.03.03.04.05l.02.02s.02.02.03.03c0,.01.02.02.03.03.02.02.04.04.06.05,0,0,.01,0,.02,0,0,0,.02.01.03.02.01,0,.02.01.04.02,0,0,.02.01.02.02.01.01.02.02.04.03.01,0,.02.02.03.03,0,.01.02.02.02.03,0,0,.02.01.03.02.01,0,.03.02.04.03,0,0,.02.01.03.01.01,0,.03,0,.04.02.01,0,.02.02.03.02.01,0,.02.02.03.02,0,0,.02,0,.03.01.01,0,.03,0,.04.02.01,0,.03.02.04.03,0,0,.02.02.03.02,0,0,0,0,.01,0,.02,0,.04.02.06.04.01.03.02.06.01.08,0,.01.01.04.01.08,0,.01,0,.03,0,.04,0,.01,0,.03,0,.04,0,.01,0,.03,0,.04,0,.01,0,.03,0,.04,0,.01,0,.02,0,.03,0,.01.01.03.01.05,0,.01,0,.03,0,.04,0,.01,0,.03,0,.04,0,.01,0,.02,0,.03,0,.02,0,.03,0,.05,0,.01,0,.03.01.04,0,.01,0,.02,0,.04,0,.01,0,.02.02.03,0,.01.01.03.02.04,0,.01,0,.03,0,.04,0,.01,0,.03,0,.04,0,.01,0,.02,0,.04,0,.02,0,.03.01.04,0,.01.01.03.02.04,0,.01.01.02.02.03,0,.01,0,.02.01.04,0,.01,0,.03.02.04,0,.01.02.03.03.04,0,0,.01.02.02.02,0,.01.02.02.03.04,0,0,.01.02.02.02,0,.01.02.02.02.03,0,.01.01.03.02.03.02.02.04.03.06.05,0,0,.02.01.04.01.01,0,.03,0,.04.01.01,0,.02.02.03.02.01,0,.02.02.04.02.01,0,.02,0,.03,0,0,0,0,0,0,0,0,0,0-.02-.01-.03,0,0-.01-.02-.02-.03,0-.01-.02-.03-.03-.04,0-.02-.01-.03-.01-.05,0-.01,0-.02,0-.03,0-.01,0-.02-.01-.03,0-.01-.02-.03-.02-.05,0-.03-.01-.06-.02-.08,0-.02,0-.04,0-.05,0-.01,0-.02,0-.03h0s0-.06,0-.08c0-.01,0-.02,0-.03,0-.02,0-.03,0-.05,0-.02,0-.03.01-.05,0-.01,0-.02,0-.03,0-.02,0-.03.01-.05,0-.01,0-.02,0-.03,0,0,0-.02,0-.03,0-.02,0-.03,0-.05,0-.02.01-.03.02-.04,0,0,0-.01.01-.03,0-.02.02-.05.04-.07.02-.02.05-.03.07-.03.03,0,.05,0,.08,0h0s.05.02.07.04c.02.02.03.04.04.07h0s.01.06,0,.08c0,.02,0,.03-.01.04,0,0,0,.02-.01.04,0,0,0,.02,0,.03,0,.02-.01.03-.01.05,0,.02,0,.04,0,.05,0,0,0,.02,0,.02,0,.01,0,.03,0,.04,0,.01,0,.03,0,.04,0,.02,0,.04,0,.06v.02s0,.03,0,.04c0,.01,0,.03,0,.04,0,.01,0,.03.01.04,0,.01,0,.02.01.03,0,.03.02.05.03.07,0,.01.01.02.02.03,0,.01.02.02.02.03,0,.01.01.03.01.04,0,.01,0,.03.01.04,0,0,.02.02.03.02.01,0,.02.02.03.03,0,.01.01.02.02.02,0,0,0,0,.01.02.03,0,.05,0,.08-.01.02,0,.03,0,.05,0,.02,0,.03,0,.05,0,.01,0,.03,0,.04-.02.01,0,.03-.01.04-.02.01,0,.03,0,.04,0,0,0,.02,0,.02,0,0,0,0,0,0,0-.01-.01-.02-.02-.03-.04-.02-.02-.03-.05-.05-.07-.01-.03-.03-.05-.04-.08,0-.02-.01-.03-.02-.05,0-.01,0-.02-.01-.03,0,0,0-.02-.01-.03,0-.02-.01-.03-.02-.05,0-.02,0-.04-.01-.06,0,0,0-.02,0-.03,0-.02,0-.03,0-.05,0-.01,0-.02,0-.03v-.02s0-.04-.01-.07c0-.01,0-.02,0-.03,0-.02,0-.03,0-.05,0-.02,0-.03,0-.05,0-.01,0-.02,0-.03,0-.02,0-.04,0-.06,0,0,0-.02,0-.03,0-.01,0-.02,0-.03,0-.02,0-.03,0-.05,0-.02.01-.04.02-.05,0,0,0-.02,0-.03,0-.02.03-.04.04-.05,0,0,0,0,0,0,0,0,0,0,.01-.01.01-.02.03-.03.05-.04.02,0,.05,0,.06.01,0,0,.01,0,.02,0,.03,0,.05.02.07.04.02.02.03.05.04.07h0s.01.06,0,.08c0,.01,0,.03-.02.04,0,.01-.01.03-.02.04,0,.03-.01.06-.01.08,0,.01,0,.02,0,.03,0,.02,0,.04,0,.05,0,.01,0,.03,0,.04,0,.01,0,.03.01.04,0,.02,0,.04.01.06,0,0,0,.02,0,.03,0,.02,0,.03,0,.05,0,.02,0,.03,0,.04,0,.02.02.04.03.07h0s.02.03.03.05c.01.01.02.02.03.03,0,0,0,.02.01.02,0,.02.02.03.03.05,0,.01.02.03.02.04,0,.01.01.02.02.03,0,0,.01-.01.02-.02,0-.01.02-.02.03-.03.01,0,.02-.02.03-.03,0,0,.02-.02.03-.03.01-.01.03-.02.04-.02.01,0,.02-.01.03-.02,0,0,.01-.02.02-.03,0-.01.01-.03.02-.04,0-.01.02-.02.03-.03.01,0,.02-.02.03-.03,0-.01.02-.03.02-.04,0-.01.01-.02.02-.03v-.02s.03-.03.04-.05c0,0,0-.02.01-.02,0-.02.02-.03.02-.05,0,0,0-.02.01-.02,0-.02.01-.03.02-.05,0-.01,0-.03,0-.04,0-.01,0-.03,0-.04,0-.01,0-.02.01-.04,0-.01.01-.03.01-.04,0-.01,0-.03,0-.04,0-.01,0-.03,0-.04,0-.02,0-.04,0-.06,0,0,0-.02,0-.03,0-.01,0-.03,0-.05,0-.01,0-.02,0-.04,0-.02,0-.03,0-.04,0-.01,0-.03,0-.04,0-.01,0-.02,0-.04,0-.01,0-.03,0-.05,0-.02,0-.03,0-.04,0-.01,0-.03,0-.04,0-.01,0-.03,0-.04,0-.01,0-.03,0-.04,0-.01,0-.03,0-.04,0-.01,0-.03,0-.04,0-.03,0-.05-.01-.08,0-.03,0-.05-.01-.08,0-.01,0-.02,0-.04,0-.02,0-.03,0-.05,0-.01,0-.02-.02-.03,0-.01-.02-.03-.02-.04,0-.02,0-.03,0-.05,0-.01,0-.03,0-.04,0-.01,0-.02-.02-.03,0-.01-.01-.03-.02-.04,0-.01,0-.03,0-.04,0-.01,0-.03,0-.04,0-.01,0-.02-.02-.04,0-.01-.01-.03-.02-.04,0-.01,0-.03-.02-.04,0-.01-.01-.02-.01-.04,0-.01,0-.03-.01-.04,0-.01,0-.03,0-.04,0-.01-.01-.02-.02-.03,0-.01-.02-.03-.02-.04,0-.01-.01-.03-.02-.04,0-.01-.01-.02-.02-.04,0-.02,0-.03,0-.05,0-.01,0-.03,0-.03,0-.02-.02-.04-.03-.06v-.02s-.02-.02-.03-.03c-.01-.01-.02-.02-.03-.04,0-.01-.01-.02-.02-.03,0-.01-.01-.03-.02-.04,0-.01-.01-.03-.02-.04,0-.01,0-.03-.01-.04,0-.01-.01-.02-.02-.03,0-.01-.02-.02-.03-.04,0-.01-.01-.03-.02-.04,0-.01,0-.03-.01-.04,0-.01-.01-.03-.02-.04,0-.01-.01-.03-.02-.04,0-.01-.01-.02-.02-.03-.01-.01-.02-.02-.03-.03,0-.01-.01-.02-.02-.04,0-.01-.01-.02-.02-.04,0,0-.01-.02-.02-.03,0-.01-.02-.03-.03-.04,0,0-.01-.02-.02-.03,0-.01-.02-.03-.03-.04,0-.01-.02-.02-.03-.03,0,0-.02-.02-.02-.03,0,0-.01-.02-.02-.03,0-.01-.02-.02-.03-.04,0-.01-.02-.02-.03-.03,0,0-.02-.02-.03-.03,0-.01-.02-.02-.03-.03,0,0-.02-.02-.03-.03,0-.01-.02-.02-.02-.03,0-.01-.02-.02-.02-.03,0,0-.02-.02-.03-.03-.01,0-.02-.02-.03-.03-.01-.01-.02-.02-.04-.04,0,0-.02-.01-.02-.02-.01,0-.02-.02-.03-.03,0-.01-.02-.02-.03-.03-.02-.02-.04-.05-.05-.09,0-.03,0-.06.02-.09h0s.01-.04.03-.08c0-.01.01-.02.02-.03,0-.01.02-.03.02-.04,0-.01,0-.02.01-.04,0-.01,0-.03.01-.04v-.02s.02-.04.03-.06c0-.01,0-.02.01-.03,0-.01.01-.03.02-.05,0-.01,0-.02,0-.04,0-.01,0-.03,0-.05,0-.01,0-.03.01-.04,0-.01,0-.03.01-.04,0-.01.01-.03.02-.04,0-.01.01-.03.02-.04,0-.01,0-.03,0-.04,0-.01,0-.03,0-.04,0-.01,0-.03.01-.04,0-.01.01-.03.01-.04,0-.01,0-.03,0-.04,0-.01,0-.03,0-.04,0-.01,0-.03,0-.04,0-.02,0-.03,0-.05,0-.03.01-.06.02-.08,0-.02,0-.03.01-.04,0-.01,0-.03.01-.04,0-.02,0-.03,0-.05,0-.01,0-.02,0-.03,0-.01,0-.03,0-.04,0-.01,0-.03,0-.05v-.03s0-.04,0-.06c0-.02,0-.03.01-.05,0-.01,0-.03,0-.04,0-.01,0-.03,0-.04,0-.02,0-.03,0-.04,0-.01,0-.03,0-.04,0-.01,0-.03,0-.04,0-.01,0-.02,0-.04,0-.02,0-.03,0-.05,0-.01,0-.02,0-.04,0-.02,0-.03,0-.05,0-.01,0-.03,0-.04,0-.01,0-.03,0-.04,0-.01,0-.03,0-.04,0-.01,0-.03,0-.04,0-.01,0-.03,0-.04,0-.01,0-.03-.01-.04,0-.02,0-.05,0-.07v-.03s-.01-.05-.01-.07c0-.02,0-.04-.01-.06v-.02s0-.02-.01-.04c0-.02,0-.03,0-.05,0-.01,0-.03,0-.04,0-.02,0-.03,0-.04,0,0,0-.02,0-.03,0-.02,0-.04-.01-.05,0-.01-.01-.02-.02-.03,0-.01-.02-.03-.02-.04,0-.01,0-.03-.01-.04,0-.01,0-.03-.01-.04,0-.01,0-.02-.01-.03,0-.02-.01-.03-.02-.05,0-.01,0-.03-.01-.04,0-.01,0-.03-.01-.04,0-.01-.01-.02-.02-.04,0-.01-.02-.02-.02-.04,0-.01-.01-.02-.02-.04,0-.01-.01-.03-.02-.04-.01-.02-.02-.04-.04-.06h0s-.02-.03-.03-.04c-.01-.01-.02-.02-.03-.03,0-.01-.01-.03-.02-.04,0-.01-.01-.03-.02-.04,0-.01-.02-.03-.02-.04,0-.01-.01-.03-.02-.04,0,0-.02-.02-.03-.02-.01,0-.03-.02-.04-.03,0,0-.01-.02-.02-.03-.01-.01-.02-.03-.03-.04-.01-.01-.02-.03-.03-.04,0-.01-.01-.02-.02-.03,0-.01-.02-.02-.03-.03,0-.01-.02-.02-.03-.03,0,0-.02-.02-.03-.03-.01,0-.02-.02-.04-.03-.01-.01-.02-.02-.03-.03-.01,0-.02-.02-.03-.03-.01,0-.02-.02-.03-.03-.01-.01-.02-.02-.03-.03-.02-.01-.03-.03-.05-.04l-.04-.03s-.03-.02-.04-.04c-.01,0-.02-.01-.03-.02-.01,0-.03-.01-.04-.02-.01,0-.02-.02-.03-.03,0-.01-.02-.02-.03-.03,0,0-.02-.01-.04-.02-.01,0-.03-.01-.04-.02-.01,0-.02-.02-.03-.03,0-.01-.02-.02-.03-.03-.01,0-.02-.01-.04-.02-.01,0-.03-.01-.04-.02-.01,0-.02-.01-.04-.01-.01,0-.03,0-.04-.02-.01,0-.03-.02-.04-.03,0-.01-.02-.02-.03-.03-.01,0-.02,0-.04-.01-.01,0-.03,0-.04-.02-.01,0-.03-.02-.04-.02-.01,0-.02-.02-.04-.02-.01,0-.03-.02-.04-.02-.01,0-.02-.02-.03-.02-.01,0-.02,0-.04-.01-.01,0-.03,0-.04-.01-.01,0-.02,0-.04,0-.02,0-.03,0-.05-.01-.01,0-.02-.01-.03-.02-.01,0-.03-.01-.04-.02-.01,0-.03-.01-.04-.02-.01,0-.03-.01-.04-.02-.01,0-.03,0-.04-.01-.01,0-.03,0-.04-.01-.01,0-.02,0-.03-.01-.01,0-.03-.01-.04-.02-.02,0-.03-.01-.04-.02-.01,0-.02-.01-.03-.02-.01,0-.02,0-.04,0-.02,0-.03,0-.05,0-.01,0-.03,0-.04-.01-.01,0-.03-.01-.04-.01-.01,0-.02,0-.04-.01-.01,0-.03,0-.04-.01-.01,0-.03,0-.04-.01-.02,0-.03,0-.04-.01-.01,0-.03,0-.04,0-.01,0-.03,0-.04,0-.02,0-.03,0-.04-.01-.01,0-.03-.01-.04-.01-.01,0-.03,0-.04,0-.01,0-.03,0-.04,0-.01,0-.03,0-.04,0-.01,0-.03,0-.04,0-.02,0-.03,0-.05-.02-.01,0-.02-.01-.04-.01-.01,0-.02,0-.04,0-.02,0-.03,0-.05,0-.02,0-.03,0-.05-.01-.01,0-.03,0-.04-.01-.01,0-.03,0-.04,0-.01,0-.03,0-.04,0-.03,0-.06,0-.08,0-.01,0-.03,0-.04,0-.01,0-.03,0-.04,0-.01,0-.03,0-.04,0-.02,0-.03,0-.05,0-.01,0-.03,0-.04,0-.01,0-.03,0-.04,0-.02,0-.03,0-.04,0-.01,0-.03,0-.04,0-.01,0-.03,0-.04,0-.01,0-.03,0-.04,0-.01,0-.03,0-.04,0-.01,0-.03,0-.04,0-.01,0-.02,0-.04,0-.01,0-.03.01-.05.01-.02,0-.03,0-.05,0-.01,0-.03,0-.04,0-.01,0-.03,0-.04,0-.01,0-.03,0-.04,0-.01,0-.03,0-.04.01-.01,0-.03,0-.04.01-.01,0-.03,0-.04,0-.01,0-.03,0-.04,0-.01,0-.03,0-.04,0-.01,0-.03,0-.04,0-.01,0-.03,0-.04.01-.01,0-.03,0-.04.01-.01,0-.03,0-.04.01-.01,0-.02,0-.04.01-.01,0-.03,0-.04,0-.02,0-.03,0-.04,0-.02,0-.03,0-.05,0-.01,0-.03,0-.04,0-.01,0-.03,0-.04.01-.01,0-.03,0-.04.01-.01,0-.02,0-.04.01-.01,0-.03.01-.04.02-.02,0-.03,0-.05,0-.01,0-.03,0-.04,0h-.03s-.03.02-.05.02c-.01,0-.02,0-.03.02-.01,0-.03.02-.04.02-.02,0-.03,0-.05,0-.01,0-.03,0-.04,0-.01,0-.03,0-.04.01-.01,0-.03,0-.04.01-.02,0-.03,0-.05,0-.01,0-.03,0-.04,0-.01,0-.03,0-.04.01-.01,0-.03,0-.04.01-.01,0-.02,0-.03.02-.01,0-.03.02-.05.02-.02,0-.03,0-.05.01h-.03s-.03.01-.04.02c-.01,0-.03,0-.04.01-.02,0-.03,0-.05,0-.01,0-.03,0-.04,0-.01,0-.02,0-.03.01-.01,0-.03.02-.04.02-.01,0-.03,0-.04.01-.01,0-.03,0-.04.01-.02,0-.03,0-.05,0-.01,0-.03,0-.04,0-.01,0-.02,0-.04.01-.01,0-.03.01-.04.02-.01,0-.03,0-.04,0-.01,0-.03,0-.04,0-.01,0-.02,0-.04.01-.01,0-.03.01-.04.02-.02,0-.03,0-.05,0-.01,0-.03,0-.04,0-.02,0-.03,0-.05,0-.01,0-.03,0-.04,0-.01,0-.02,0-.04.01-.01,0-.03.01-.04.02-.02,0-.03,0-.05,0-.01,0-.03,0-.04,0-.01,0-.02,0-.04.01-.01,0-.03.01-.05.02-.01,0-.03,0-.04,0-.01,0-.03,0-.04,0-.02,0-.04,0-.05,0-.01,0-.03,0-.04,0-.01,0-.03,0-.04,0-.01,0-.03,0-.04,0-.01,0-.03,0-.04,0-.01,0-.03,0-.04,0-.02,0-.03,0-.05,0-.01,0-.03,0-.04,0-.01,0-.03,0-.04,0-.01,0-.03,0-.04,0-.01,0-.03,0-.04,0-.01,0-.03,0-.04.01-.02,0-.03,0-.05,0-.01,0-.03,0-.04,0-.02,0-.03,0-.04,0-.01,0-.03,0-.04,0-.01,0-.02,0-.03.01-.01,0-.03.02-.05.02-.02,0-.03,0-.05,0-.01,0-.03,0-.04,0-.01,0-.03,0-.04,0-.01,0-.03,0-.04,0-.01,0-.03,0-.04,0-.01,0-.03,0-.04,0-.03,0-.06,0-.08.01-.02,0-.03,0-.04,0,0,0-.02,0-.02,0,0,0,0,.01,0,.02,0,.02,0,.03,0,.05,0,.02,0,.03,0,.05,0,.01,0,.02,0,.04,0,.01,0,.02,0,.04,0,.02,0,.03,0,.05,0,.01,0,.02,0,.04,0,.02,0,.03,0,.05,0,.03,0,.06-.01.08,0,.02,0,.03-.01.05,0,.01,0,.02,0,.03,0,.03-.01.05-.02.08,0,.02-.01.03-.02.05,0,.01-.01.02-.02.03,0,.02-.02.05-.03.07h0s0,.03,0,.03c0,.02-.02.04-.02.06,0,.02-.02.04-.03.05,0,0,0,.01-.01.02,0,0-.01.02-.02.03,0,.02-.02.03-.03.05,0,0-.01.02-.02.03,0,.02-.01.03-.02.05-.01.02-.03.03-.05.05h-.01s-.03.03-.05.04c-.01,0-.02,0-.03.02,0,0-.01.02-.02.03,0,.01-.02.03-.03.04,0,0-.02.02-.03.02-.01.01-.02.02-.04.03-.02.01-.03.01-.05.02-.01,0-.02,0-.03.01,0,0-.02.01-.03.02-.01.01-.03.02-.04.03-.02,0-.03.01-.05.01-.01,0-.02,0-.03,0-.01,0-.02,0-.03.02-.01,0-.03.02-.05.02-.01,0-.02,0-.03.02-.01,0-.03.02-.05.02-.02,0-.03,0-.05.01-.01,0-.02,0-.03,0-.02,0-.04,0-.05,0-.01,0-.02,0-.03,0-.02,0-.04,0-.05,0-.01,0-.03,0-.04,0-.01,0-.02,0-.04,0-.02,0-.03.01-.05.01-.01,0-.02,0-.04,0-.02,0-.03,0-.05,0-.02,0-.04,0-.05-.01-.01,0-.02,0-.03-.01-.01,0-.02,0-.03,0-.02,0-.04,0-.06,0-.01,0-.02,0-.04,0-.02,0-.03,0-.05,0-.03,0-.06-.01-.09-.02-.02,0-.05-.01-.07-.02h-.02s-.03-.02-.05-.03c-.01,0-.02-.01-.03-.02-.02,0-.04-.02-.06-.03,0,0-.01,0-.02-.01-.01,0-.02,0-.03-.01-.02,0-.03-.01-.05-.02-.02,0-.03-.02-.04-.03,0,0-.02-.02-.03-.02h-.02s-.04-.03-.06-.05c0,0-.02-.01-.03-.02-.02,0-.03-.01-.05-.03,0,0-.02-.01-.03-.02-.01-.01-.03-.02-.04-.04-.01-.01-.03-.03-.04-.04,0,0-.01-.01-.02-.02-.01-.01-.02-.03-.03-.05,0-.01-.01-.02-.02-.03-.02-.02-.04-.04-.05-.07,0,0-.02-.02-.03-.03-.01-.01-.02-.02-.03-.04,0-.02-.01-.03-.02-.05,0-.01,0-.02-.01-.03-.01-.02-.03-.05-.04-.07,0,0-.01-.02-.02-.03,0-.01-.02-.03-.02-.05,0,0-.01-.02-.02-.03-.01-.01-.02-.03-.03-.04v-.02s-.02-.04-.03-.06c0-.02,0-.03-.01-.05,0-.01,0-.03,0-.04,0-.02,0-.03-.01-.05,0-.01,0-.02,0-.04,0-.02,0-.03,0-.05,0-.01,0-.03,0-.04,0-.01,0-.02-.02-.03,0-.01-.02-.03-.02-.05,0-.02,0-.03-.01-.05,0-.01,0-.02,0-.04,0-.02,0-.03-.01-.05,0-.01,0-.02,0-.03,0-.02,0-.03,0-.05,0-.01,0-.03,0-.04,0-.01,0-.02-.01-.04,0-.01-.01-.03-.01-.05,0-.02,0-.03,0-.05,0-.01,0-.02,0-.03,0-.02,0-.03,0-.05,0-.01,0-.03,0-.04,0-.01,0-.02,0-.04,0-.01,0-.03,0-.05,0-.02,0-.04,0-.05,0-.01,0-.03,0-.04,0-.03,0-.06,0-.08,0-.01,0-.02-.01-.03,0-.02-.02-.03-.02-.05,0-.02,0-.03,0-.05,0-.01,0-.03,0-.04,0-.01,0-.03,0-.04,0-.02,0-.03,0-.05,0-.02,0-.04,0-.05,0-.01,0-.02,0-.03,0-.01,0-.03,0-.04,0-.01,0-.03,0-.04,0-.02,0-.03,0-.05,0-.01,0-.03,0-.04,0-.02,0-.03,0-.05,0-.01,0-.03,0-.04,0-.01,0-.03,0-.04,0-.01,0-.03,0-.05,0-.02,0-.03,0-.05,0-.01,0-.03,0-.04,0-.01,0-.03,0-.04,0-.01,0-.03,0-.05,0,0,0,0,0-.02,0-.03,0-.06.02-.08.01-.02.03-.04.06-.06.02-.01.05-.02.08-.02.03,0,.06,0,.08.02.02.01.05.03.06.06.01.02.03.05.03.08,0,.02-.01.02-.02.03,0,0,0,.02,0,.03,0,.02,0,.03,0,.05,0,.01,0,.03,0,.04,0,.01,0,.03,0,.05,0,.02,0,.03-.01.05,0,.01,0,.03,0,.04,0,.01,0,.02,0,.03,0,.02.01.03.01.05,0,.02,0,.03,0,.04,0,.01,0,.03,0,.04,0,.02,0,.03,0,.04,0,.01,0,.03,0,.04,0,.01,0,.02,0,.04,0,.02.01.03.01.05,0,.01,0,.03,0,.04,0,.01,0,.03,0,.04,0,.02,0,.03,0,.05,0,.01,0,.03,0,.04,0,.01,0,.03,0,.04,0,.01,0,.03,0,.04,0,.02,0,.03,0,.05,0,.01,0,.03,0,.04,0,.01,0,.02.01.04,0,.01.01.03.01.05,0,.02,0,.03,0,.05,0,.01,0,.02,0,.03,0,.02,0,.04,0,.06v.03s.01.03.02.04c0,.01,0,.03.01.04,0,.02,0,.03,0,.05,0,.01,0,.03,0,.04,0,.01,0,.02,0,.03,0,.02,0,.03,0,.05,0,.01,0,.02.02.03,0,.01.02.03.02.04,0,.02,0,.03,0,.05,0,.01,0,.03,0,.04,0,.01,0,.03.02.04,0,.01,0,.02.01.04,0,.01.01.02.02.04,0,.01.02.03.02.04,0,.01,0,.03,0,.04,0,.01,0,.03,0,.04,0,.01.01.03.02.04,0,.01.01.02.02.04,0,.01,0,.03.01.04,0,.01,0,.03.01.04,0,0,0,.02.01.02,0,.02.02.03.03.05v.02s.03.04.04.05c0,.01.02.02.03.03.01,0,.02.02.03.03,0,.01.02.03.02.04,0,.01.01.03.02.04,0,.01.02.02.03.03.01,0,.02.02.03.03,0,0,.02.02.03.02.01,0,.02.01.03.02,0,0,.01.01.02.02.01.01.03.02.04.03.01,0,.02.02.03.03,0,.01.02.02.03.03,0,0,.02,0,.04.01.01,0,.03,0,.04.01.01,0,.02.02.04.02.01,0,.02.02.03.02.02,0,.04.01.07.02h.01s.02,0,.04,0c.01,0,.03,0,.05,0,.02,0,.03.01.04.02.01,0,.02.01.03.01.01,0,.03,0,.04,0,.01,0,.02,0,.04,0,.01,0,.03,0,.04,0,.01,0,.03,0,.04,0,.01,0,.03,0,.04,0,.01,0,.03,0,.04,0,.01,0,.03,0,.04,0,.01,0,.03,0,.04,0,.02,0,.03,0,.05,0,.01,0,.03,0,.04,0,.02,0,.04,0,.07-.01h.02s.02-.01.04-.02c.01,0,.03-.02.04-.02.03,0,.05-.02.08-.03h0s.05-.02.07-.03c0,0,.02,0,.03-.01.02,0,.03-.01.05-.02.01,0,.02-.01.03-.02.01,0,.03-.01.04-.02.01,0,.02-.02.03-.03,0,0,.02-.02.03-.03.01-.01.02-.02.03-.03.01,0,.02-.02.03-.03,0,0,.01-.02.02-.04,0-.01.01-.03.02-.04,0-.01.02-.02.03-.03.01-.01.02-.02.03-.03,0-.01,0-.02.01-.04,0-.01,0-.03.01-.04,0-.02.01-.03.02-.05,0,0,0-.02,0-.03,0-.01,0-.02.01-.03,0-.02.01-.03.02-.04,0-.01,0-.03.02-.04,0-.01.01-.03.02-.04,0-.01,0-.02,0-.03,0-.02,0-.03.01-.05,0-.01,0-.03,0-.04,0-.01,0-.03,0-.04,0,0,0-.02,0-.03,0-.02,0-.04,0-.06,0-.01,0-.03,0-.04,0-.02,0-.03,0-.04,0-.02,0-.04,0-.05,0-.01,0-.02,0-.03h0s0-.06,0-.09c0-.02,0-.03,0-.05,0-.01,0-.02,0-.03,0,0,0-.02,0-.03,0-.02,0-.04,0-.06,0-.01,0-.02-.01-.04,0-.01-.01-.03-.01-.05,0-.03,0-.06-.02-.08,0-.02,0-.03,0-.04,0-.01,0-.03,0-.04,0-.01,0-.03-.01-.04,0-.01-.01-.03-.01-.04,0-.02,0-.03,0-.05,0-.01,0-.03,0-.04,0-.01-.01-.02-.02-.03,0-.01-.02-.03-.02-.04,0-.01,0-.03-.01-.04,0-.02,0-.03-.01-.04,0-.01,0-.03-.01-.04,0-.01,0-.03-.01-.04,0-.03-.02-.05-.03-.08,0-.02,0-.03-.01-.04,0-.01,0-.03-.01-.04v-.02s-.03-.04-.03-.06c0-.01-.01-.02-.02-.03,0-.01-.02-.02-.03-.04,0-.01-.01-.03-.01-.05,0-.01,0-.03-.01-.04,0,0-.01-.02-.03-.03-.01-.01-.02-.02-.03-.04,0-.02-.01-.03-.01-.05,0-.01,0-.03-.01-.04,0-.01-.02-.02-.03-.03,0-.01-.02-.02-.03-.04-.02-.02-.03-.05-.05-.07,0-.01-.02-.02-.03-.03,0-.01-.02-.02-.03-.03,0-.01-.02-.03-.02-.04,0-.01-.01-.03-.02-.03,0,0-.02-.02-.03-.03-.01,0-.02-.02-.03-.03,0-.01-.02-.02-.02-.04,0-.01-.02-.02-.02-.03,0,0-.02-.02-.03-.03-.01,0-.02-.02-.03-.03-.01-.01-.02-.03-.03-.04,0-.01-.01-.02-.02-.03,0,0-.02-.02-.03-.03-.01-.01-.02-.02-.03-.03-.01,0-.02-.02-.04-.02-.01,0-.02-.01-.04-.02-.01,0-.02-.02-.03-.02-.01-.01-.02-.02-.04-.03h0s-.05-.03-.07-.05c-.01,0-.03-.02-.05-.02,0,0-.02,0-.03-.01,0,0-.01,0-.02-.01-.02-.01-.04-.02-.05-.03,0,0-.02,0-.03-.01-.02,0-.03-.02-.05-.02-.01,0-.03,0-.04,0-.01,0-.03,0-.04,0-.01,0-.03,0-.04-.01-.01,0-.03-.01-.04-.01-.03,0-.07,0-.1-.03-.02-.02-.04-.03-.07-.06,0,0-.02-.02-.02-.03,0-.01-.02-.03-.03-.04-.01,0-.02-.02-.04-.03,0,0-.02-.02-.03-.03,0,0-.02-.02-.03-.02-.01,0-.02-.02-.04-.03,0,0-.02-.01-.03-.02-.01,0-.03-.01-.04-.02-.01,0-.02-.02-.03-.03-.01-.01-.02-.02-.03-.03-.01,0-.02-.02-.03-.03-.01-.01-.02-.02-.03-.03-.01,0-.02-.01-.04-.02-.01,0-.03-.01-.04-.02-.01-.01-.03-.02-.05-.03,0,0-.02-.01-.03-.02-.01,0-.03-.02-.04-.03,0,0-.02-.01-.03-.02-.01,0-.02-.01-.04-.02-.01,0-.03-.01-.04-.02-.01,0-.03-.02-.04-.03,0-.01-.02-.02-.03-.03-.01,0-.03-.01-.04-.02-.01,0-.02-.01-.04-.02-.01,0-.02-.01-.03-.02-.01,0-.03-.02-.04-.02-.01,0-.02,0-.04-.01-.01,0-.03,0-.04-.02-.01,0-.03-.02-.04-.02-.01,0-.02-.02-.03-.02-.01,0-.02,0-.04-.01-.01,0-.03,0-.04-.01-.01,0-.03-.01-.04-.02-.01,0-.02-.02-.03-.02-.01,0-.02,0-.04-.01-.01,0-.03,0-.04-.01-.01,0-.03-.01-.04-.02-.01,0-.02-.01-.04-.02-.01,0-.03,0-.04-.01-.01,0-.03,0-.04-.01-.01,0-.03,0-.04-.01-.01,0-.03,0-.04-.01-.01,0-.03-.01-.04-.02-.01,0-.02-.01-.04-.02-.01,0-.02,0-.03-.01-.02,0-.03-.01-.05-.02-.01,0-.03,0-.04,0-.01,0-.03,0-.04,0-.01,0-.03,0-.04,0-.01,0-.03,0-.04,0-.01,0-.03,0-.04-.02-.01,0-.03-.01-.04-.01-.01,0-.03,0-.04,0-.01,0-.03,0-.04,0-.01,0-.03,0-.04,0-.01,0-.03,0-.04-.01-.02,0-.03,0-.04-.01-.01,0-.03-.01-.04-.01-.01,0-.02,0-.04,0-.02,0-.03,0-.05,0-.02,0-.03,0-.05-.01-.01,0-.02-.01-.04-.01-.01,0-.02,0-.04,0-.02,0-.03,0-.05,0-.02,0-.03,0-.05-.02-.01,0-.02-.01-.03-.01-.01,0-.02,0-.04,0-.02,0-.03,0-.05,0-.02,0-.03,0-.05-.01-.01,0-.03,0-.04,0-.02,0-.03,0-.05,0-.01,0-.02,0-.03,0-.01,0-.02,0-.04,0-.01,0-.03,0-.05,0-.02,0-.03,0-.05,0-.01,0-.03,0-.04,0-.02,0-.03,0-.05,0-.01,0-.02,0-.03,0-.01,0-.02,0-.04,0-.01,0-.03,0-.05.01-.01,0-.02,0-.04,0-.02,0-.03,0-.05,0-.02,0-.03,0-.05,0-.01,0-.03,0-.04,0-.01,0-.02,0-.04.01-.01,0-.03.01-.05.02-.01,0-.03,0-.04,0-.01,0-.03,0-.04,0-.02,0-.03,0-.05,0-.01,0-.03,0-.04,0-.01,0-.03,0-.04.01-.01,0-.03,0-.04.01-.02,0-.03,0-.05,0-.01,0-.03,0-.04,0-.01,0-.02,0-.03.02-.01,0-.03.02-.04.02-.01,0-.03,0-.04,0-.01,0-.03,0-.04,0-.02,0-.03,0-.05,0-.01,0-.03,0-.04,0-.01,0-.03.01-.04.02-.01,0-.02,0-.04.01-.01,0-.03.01-.04.02-.01,0-.02,0-.04.01-.01,0-.03.01-.04.02-.01,0-.02.01-.04.02-.01,0-.03,0-.05.01-.01,0-.03,0-.04,0-.01,0-.02.01-.03.02-.01,0-.02.02-.04.03-.01,0-.02.01-.04.02-.01,0-.02.02-.04.02-.01,0-.03.01-.05.01-.01,0-.03,0-.04.01-.01,0-.02.02-.03.02-.01,0-.02.02-.04.03-.01,0-.02.01-.03.02-.01,0-.03.02-.04.02,0,0-.02.01-.03.02-.01,0-.03.02-.04.03,0,0-.02.02-.03.03,0,.01-.02.02-.03.03-.01,0-.02.02-.04.02-.01,0-.02.01-.04.02-.01,0-.02.02-.03.03,0,0-.02.02-.03.03-.01.01-.02.02-.04.03-.01,0-.02.01-.03.02,0,0-.02.02-.03.03,0,.01-.02.02-.03.03,0,0-.02.02-.03.03,0,.01-.02.02-.03.03-.01.01-.02.02-.03.03-.01,0-.02.02-.03.03,0,0-.02.02-.03.03-.01.01-.02.02-.03.03,0,0-.01.02-.02.03,0,.01-.01.03-.02.04,0,.01-.02.02-.03.03-.01.01-.02.02-.03.03,0,.01-.02.02-.02.03,0,.01-.02.02-.03.04,0,0-.01.02-.02.03,0,.01-.02.03-.03.04-.01.02-.02.04-.04.06h0s-.01.04-.02.05c0,.01-.01.02-.02.04,0,.01,0,.02-.01.04,0,.01,0,.03-.02.04,0,.01-.01.02-.02.03,0,.01-.02.03-.02.04,0,.01-.02.03-.03.04,0,.01-.02.02-.02.03,0,0,0,.02,0,.04,0,.02,0,.03,0,.05,0,.02-.02.03-.03.04,0,.01-.02.02-.02.03,0,.01,0,.02,0,.04,0,.01,0,.03,0,.04,0,.02-.01.03-.02.04,0,.01-.01.02-.02.03,0,.01,0,.02,0,.04,0,.02,0,.03,0,.05,0,.01,0,.02,0,.03,0,.02,0,.03-.01.05,0,.01,0,.03-.02.04,0,.01-.01.03-.01.04,0,.02,0,.03-.01.05,0,.01,0,.02,0,.03,0,.01,0,.03-.01.04,0,.01,0,.03-.01.04,0,.01,0,.03,0,.04,0,.01,0,.03,0,.04,0,.02,0,.03-.02.04,0,.01-.01.02-.01.04,0,.01,0,.02,0,.04,0,.02,0,.03,0,.05,0,.01,0,.03,0,.04,0,.01,0,.03,0,.04,0,.01,0,.03,0,.04,0,.01,0,.03,0,.04,0,.02,0,.03-.01.04,0,.01,0,.03,0,.04v.02s0,.04,0,.06c0,.01,0,.02,0,.04,0,.02,0,.03,0,.05,0,.01,0,.03,0,.04,0,.01,0,.03,0,.04,0,.01,0,.03,0,.04,0,.01,0,.03,0,.04,0,.01,0,.02,0,.04,0,.01,0,.03,0,.05ZM12.79,88.67s.01-.04.02-.06c0,0,0-.01,0-.02,0-.01,0-.03.02-.04.01-.02.03-.03.04-.05,0,0,.01-.01.01-.02,0-.01.02-.02.03-.03.01,0,.03-.01.05-.01,0,0,.02,0,.02,0,0,0,.01,0,.02-.01.01-.01.02-.03.04-.03.02,0,.03,0,.05,0,.03,0,.06,0,.09,0,.02,0,.03.01.04.02,0,0,.01,0,.02,0,0,0,.01,0,.02,0,.01,0,.03,0,.04.02.01,0,.03.02.04.03,0,0,0,0,.01.01.01.01.02.03.02.04,0,0,0,.01.01.02,0,0,0,.01.01.02,0,.01.02.02.03.04,0,.01,0,.03,0,.04,0,0,0,.02,0,.02,0,0,0,.01,0,.02,0,.01,0,.03,0,.04,0,.02,0,.04,0,.05,0,0,0,0,0,.01,0,.02-.01.05-.02.06,0,.02-.02.04-.03.06,0,0,0,.01-.01.02,0,.01-.01.03-.03.04,0,0,0,.01-.01.02,0,.01-.02.02-.03.03-.01,0-.03.01-.05.01,0,0-.02,0-.02,0,0,0-.01,0-.02.01-.01,0-.02.02-.04.02,0,0,0,0-.01,0-.01,0-.02,0-.03,0,0,0-.02,0-.02,0,0,0-.01,0-.02,0-.02,0-.03,0-.05,0,0,0-.01,0-.02,0-.01,0-.03,0-.05,0-.02,0-.03-.02-.04-.03,0,0-.01-.01-.02-.01-.01,0-.03-.02-.04-.03,0,0,0,0-.01-.01,0,0-.01,0-.02-.01-.01,0-.02-.02-.03-.03,0,0,0,0,0-.01,0-.01-.02-.03-.03-.04,0-.02,0-.03,0-.05,0,0,0-.02,0-.02,0-.02,0-.03,0-.05,0,0,0,0,0-.01,0,0,0-.01,0-.02,0-.01,0-.03,0-.04ZM11.82,90.52s.02,0,.03,0c.01,0,.02,0,.03-.01.01,0,.02,0,.03,0,0,0,.02,0,.03,0,0,0,.02,0,.03,0,.01,0,.02,0,.03,0,.01,0,.03,0,.04,0,.01,0,.02,0,.03,0,0,0,.01,0,.02-.01,0,0,.02-.02.03-.02.01,0,.03,0,.04,0,0,0,.02,0,.02,0,0,0,.02,0,.03-.01,0,0,.02,0,.03-.01.02,0,.04-.02.06-.02.01,0,.02,0,.03-.01.01,0,.02,0,.03-.01,0,0,.01,0,.02-.02,0,0,.02-.02.03-.03,0,0,.02,0,.03-.01.01,0,.02,0,.03-.01h0s.05-.02.08-.02c.02,0,.04.01.06.03,0,0,0,0,.01.01.02.01.04.03.05.05.01.02.01.05.01.07h0s0,.05-.02.08c-.01.02-.03.04-.05.05,0,0-.02,0-.02.01-.01,0-.02.01-.03.02-.01,0-.02,0-.03.01,0,0-.02,0-.03,0,0,0-.01,0-.02.02,0,0-.02.02-.03.02-.01,0-.02,0-.04.01,0,0-.02,0-.03,0,0,0-.02,0-.02.01,0,0-.02.01-.03.02,0,0-.02,0-.02.01-.01,0-.02.01-.03.02-.02,0-.03,0-.04,0,0,0-.02,0-.02,0,0,0-.01,0-.02.01,0,0-.02.02-.04.02-.01,0-.03,0-.04,0,0,0-.02,0-.02,0,0,0-.01,0-.02.01-.01,0-.02.01-.04.02-.01,0-.03,0-.04,0,0,0-.02,0-.03,0-.01,0-.03,0-.04,0,0,0-.02,0-.03,0,0,0-.02,0-.03,0-.01,0-.02,0-.03,0,0,0-.01,0-.02.01-.01,0-.02.02-.04.02-.02,0-.03,0-.04-.01,0,0-.02,0-.02,0,0,0-.02,0-.03,0-.01,0-.02,0-.04,0,0,0-.02,0-.03,0-.01,0-.02,0-.04,0,0,0-.02,0-.03,0-.01,0-.02,0-.04,0,0,0,0,0,0,0-.01,0-.03,0-.04,0,0,0-.02,0-.02,0-.01,0-.03,0-.04,0,0,0-.02,0-.03,0-.01,0-.03,0-.04,0,0,0-.02,0-.02,0,0,0-.02,0-.03,0-.01,0-.03,0-.04,0-.01,0-.03,0-.04-.01,0,0-.02,0-.02,0-.01,0-.02,0-.04-.01,0,0-.02,0-.03,0,0,0-.02,0-.03,0-.01,0-.03,0-.04,0-.01,0-.02,0-.04-.01,0,0-.02,0-.02,0,0,0-.02,0-.03,0-.01,0-.02,0-.04,0,0,0-.02,0-.03,0-.01,0-.02,0-.03-.01,0,0-.02,0-.03,0-.01,0-.02,0-.03-.01-.01,0-.02-.02-.03-.03,0,0-.01-.01-.02-.02,0,0-.02,0-.03-.01-.01,0-.02,0-.03-.01,0,0-.02,0-.02-.01-.01,0-.02-.01-.03-.02-.02-.01-.04-.02-.05-.03-.03-.02-.04-.04-.04-.05,0,0,0,0,0,0h0s-.04-.03-.05-.06h0s-.02-.05-.01-.08c0-.03.02-.05.03-.06h0s.04-.04.06-.05c0,0,.01,0,.02,0,.02,0,.04-.02.06-.02.02,0,.04.02.06.03,0,0,0,0,.01.01,0,0,.02.01.04.03h.01s.01.02.02.03c0,0,.02.02.03.02,0,0,.02,0,.03.01.01,0,.02,0,.03.01,0,0,.01,0,.02,0,.01,0,.03,0,.04,0,.01,0,.02,0,.04.01,0,0,.01,0,.02,0,0,0,.02,0,.03.01,0,0,.02.01.03.01.01,0,.02.01.03.02,0,0,.02.01.03.01,0,0,.02,0,.03,0s.02,0,.03,0c.01,0,.02,0,.03.01,0,0,.02,0,.03.01,0,0,.02,0,.03,0,.01,0,.03,0,.04,0,0,0,.02,0,.03,0,.01,0,.02,0,.03,0,.01,0,.02,0,.03,0,.01,0,.02,0,.03,0,0,0,.02,0,.02,0,.01,0,.02,0,.04,0,.01,0,.03,0,.04.01,0,0,.02,0,.02,0h0s.02,0,.03,0c.01,0,.02,0,.04,0,0,0,.02,0,.03,0,.01,0,.02,0,.03,0,.01,0,.03,0,.04,0,0,0,.02,0,.03,0,.01,0,.02,0,.03,0,0,0,.02,0,.03,0ZM10.98,89.1s.03,0,.04,0c0,0,.02,0,.03,0,0,0,.02,0,.02,0,.01,0,.03-.01.04-.01.02,0,.05,0,.07,0,.02,0,.03,0,.04.01,0,0,.02,0,.02,0,0,0,.02,0,.03,0,.01,0,.02,0,.04,0,0,0,.02,0,.02,0,.01,0,.02,0,.04,0,.01,0,.03,0,.04.01,0,0,.02,0,.02,0,.01,0,.03,0,.04,0,0,0,.01,0,.02,0,0,0,.01,0,.02,0,.01,0,.03,0,.04,0,.02,0,.03.01.04.02,0,0,.01.01.02.01.02,0,.04.02.05.03.02.01.03.03.04.04h0s.03.04.03.06c0,0,0,.01,0,.02,0,.01.02.03.02.04,0,.02,0,.04,0,.06,0,0,0,.01,0,.02,0,.02,0,.03,0,.05,0,.02-.02.04-.03.06,0,.01-.02.03-.03.04,0,0,0,.01-.01.02,0,0,0,.01-.01.02,0,.01-.02.03-.03.04-.01.01-.02.02-.03.02,0,0-.02,0-.02.01,0,0,0,0-.01.01-.01.01-.02.02-.04.03-.01,0-.03.01-.04.01,0,0-.02,0-.02,0,0,0-.01,0-.02.01-.01,0-.02.02-.04.02-.02,0-.04.02-.06.02,0,0-.01,0-.02,0-.01,0-.03.01-.04.01-.02,0-.03,0-.04,0,0,0-.02,0-.02,0s-.01,0-.02,0c-.01,0-.02,0-.04,0,0,0,0,0,0,0-.02,0-.04,0-.07-.01-.02,0-.04-.01-.05-.02h0s-.03-.02-.04-.03c0,0-.01-.01-.02-.01,0,0-.02,0-.02,0-.01,0-.03,0-.04-.02-.01,0-.02-.02-.03-.03,0,0-.01-.01-.02-.02,0,0-.01,0-.02-.01-.01,0-.02-.01-.03-.02,0,0-.01-.01-.02-.02-.01,0-.02-.02-.03-.03-.01-.02-.03-.04-.04-.06-.01-.02-.02-.04-.03-.07,0-.02,0-.04,0-.05,0,0,0-.01,0-.02,0-.02,0-.03.01-.05,0,0,0-.01,0-.02,0,0,0-.02,0-.02,0-.02,0-.03,0-.05,0-.02.02-.03.04-.03,0,0,.01,0,.02-.01,0,0,0-.01.01-.02,0-.01.02-.03.03-.04.01,0,.03-.01.04-.01,0,0,.02,0,.03,0,0,0,.01,0,.02-.01.01,0,.02-.02.04-.02ZM10.24,88.2s.01-.03.02-.04c0,0,.01-.01.01-.02,0,0,0-.01,0-.02,0-.01.01-.03.02-.04,0,0,0-.01,0-.02,0-.01.01-.03.02-.04s.03-.02.04-.02c0,0,.01,0,.02-.01.01,0,.03-.02.05-.02,0,0,0,0,.01,0,0,0,.01,0,.02-.01.01,0,.03-.02.04-.02.02,0,.04,0,.07,0s.05,0,.07,0c.02,0,.03.01.04.02,0,0,.01,0,.02,0,.02,0,.03.02.04.03,0,0,.01,0,.02.01,0,0,.01,0,.02,0,.01,0,.03,0,.04.02.02.02.03.04.04.05.01.02.01.03.01.05,0,0,0,.02,0,.02h0s.02.04.02.06c0,0,0,.01,0,.02,0,.01.01.03.01.04s0,.03-.01.04c0,0,0,.01,0,.02,0,0,0,.01,0,.02,0,.01,0,.03,0,.04,0,.02-.02.04-.03.06,0,0,0,.01,0,.02,0,.01-.02.03-.03.04-.02.02-.03.03-.05.04h0s-.01.01-.02.01c-.01,0-.03.02-.04.03-.02,0-.03,0-.05,0,0,0-.02,0-.02,0,0,0-.01,0-.02,0-.01,0-.03.01-.04.01h-.01s0,0-.01,0c-.01,0-.03,0-.04,0-.02,0-.03-.02-.04-.03,0,0-.01-.01-.02-.01,0,0-.01,0-.02,0-.01,0-.03,0-.04-.01,0,0,0,0-.01,0-.01,0-.03-.02-.04-.03h0s-.03-.03-.04-.05h0s-.02-.04-.03-.06c0-.02,0-.03,0-.05,0,0,0-.02,0-.02,0,0,0-.01,0-.02,0-.01-.01-.03-.01-.04h0s0-.05,0-.07Z"/>
          <path class="cls-1" d="M23.87,96.63s0-.03,0-.05c0-.01,0-.03,0-.04,0-.02,0-.03,0-.05,0-.01,0-.02,0-.04,0-.01,0-.03,0-.04,0-.02,0-.03,0-.05,0-.01,0-.03,0-.04,0-.01,0-.03,0-.04,0-.01,0-.03,0-.04,0-.02,0-.03,0-.04,0-.02,0-.03,0-.05,0-.01,0-.03,0-.04,0-.01,0-.03,0-.04,0-.01,0-.03-.01-.04,0-.02,0-.03,0-.05,0-.01,0-.03,0-.04,0-.01,0-.03-.01-.04,0-.01-.01-.03-.01-.04,0-.02,0-.03,0-.04,0-.01,0-.03,0-.04,0-.01,0-.02-.01-.04,0-.01-.01-.03-.02-.04,0-.02,0-.03,0-.05,0-.01,0-.03,0-.04,0-.01,0-.03-.01-.04,0-.01-.01-.03-.01-.04,0-.02,0-.03,0-.04,0-.01,0-.03,0-.04h0s0-.02-.02-.03c0-.01-.02-.03-.02-.04,0-.02,0-.04,0-.05,0-.01,0-.02,0-.03,0-.01,0-.02-.01-.04,0-.01-.01-.03-.01-.04,0-.01,0-.02-.01-.04,0-.01,0-.02-.01-.04,0,0-.02-.02-.02-.03,0,0-.01-.02-.02-.03,0,0-.02-.02-.03-.02-.01,0-.02-.02-.03-.03-.01-.01-.02-.02-.03-.04,0,0-.01-.02-.02-.03-.01-.01-.02-.02-.03-.04,0,0-.01-.02-.02-.03v-.02s-.03-.02-.04-.04c0,0-.01,0-.02.01-.01.01-.03.02-.04.03-.01,0-.02.01-.03.02-.01,0-.03.02-.04.03-.01,0-.02.01-.03.02-.01,0-.03.02-.04.03-.01,0-.02.01-.03.02-.01,0-.02.02-.04.03-.02,0-.03.01-.05.01-.01,0-.03,0-.03,0,0,0-.02.01-.03.02-.01.01-.02.02-.04.03-.01,0-.03.01-.04.02-.01,0-.02,0-.04.01-.01,0-.03.01-.04.01-.01,0-.03,0-.04.01-.01,0-.02.01-.03.02-.01,0-.03.01-.04.02-.01,0-.03.01-.04.02-.01,0-.02,0-.04.01-.01,0-.02.01-.03.02-.01,0-.03.01-.04.02-.02,0-.03,0-.05,0-.01,0-.03,0-.04,0-.01,0-.02,0-.03.01-.01,0-.03.01-.04.02-.01,0-.03,0-.04.01-.01,0-.03,0-.04,0-.01,0-.02,0-.04.01-.01,0-.03.01-.04.02-.01,0-.03,0-.04.01-.01,0-.02,0-.04,0-.01,0-.02,0-.03.02-.01,0-.03.01-.04.02-.02,0-.03,0-.05,0-.01,0-.03,0-.04,0-.01,0-.02,0-.04.01-.01,0-.03.01-.04.02h0s-.05.01-.07.02c-.01,0-.02,0-.03,0,0,0-.02,0-.02,0,0,.02,0,.03.01.06,0,.02.01.02.02.03,0,0,.02.02.03.04,0,.02,0,.03.01.04,0,0,0,.02.01.04,0,.02,0,.03.01.04,0,0,0,.02.01.04,0,.02,0,.03.01.04,0,0,0,.02.01.04,0,.02,0,.04,0,.05,0,.01,0,.02,0,.03,0,.02.01.03.01.04,0,0,0,.02.02.04,0,.02.01.03.01.04,0,0,0,.02.02.04,0,.02.01.02.02.03,0,0,.01.02.02.04,0,.02,0,.03,0,.05,0,0,0,.02,0,.03,0,.02,0,.03.01.04,0,0,0,.02.01.04.01.03.02.07,0,.11,0,.01-.01.02-.02.03,0,.01-.02.03-.02.04,0,.01,0,.03-.01.04,0,.01,0,.03,0,.04,0,.01,0,.03,0,.04,0,.01,0,.03,0,.04,0,.02-.01.03-.02.04,0,.01-.01.03-.02.04h0s-.01.06-.01.09c0,.01,0,.03,0,.04,0,.02,0,.03,0,.05,0,.02,0,.03-.01.05,0,.01,0,.03-.01.04,0,0,0,.02,0,.03,0,.02,0,.04,0,.06,0,.01,0,.03,0,.05,0,.01,0,.03,0,.04,0,.03,0,.06,0,.09,0,.02,0,.03.01.05,0,.01,0,.02.01.04,0,.01,0,.03,0,.04,0,.02,0,.03,0,.05,0,.02.02.03.03.05,0,0,0,.02.01.02,0,.01.02.02.03.04,0,0,.02.02.02.03,0,.01.02.03.02.04,0,.02.01.03.02.04,0,0,.02.01.04.02.02,0,.03,0,.05.02.01,0,.02.02.03.02.01.01.03.02.04.03.02,0,.03.01.05.02,0,0,0,0,0-.01,0-.01,0-.02,0-.03,0,0-.01-.02-.02-.03,0-.01-.02-.03-.02-.05,0-.03-.01-.05-.02-.08,0-.02,0-.04,0-.05,0-.01,0-.02,0-.03,0-.01,0-.02,0-.03,0-.02,0-.04,0-.05,0-.03,0-.06,0-.09,0,0,0-.02,0-.02,0-.02,0-.04,0-.06,0-.02.01-.03.02-.05,0-.01.01-.02.01-.03,0-.01,0-.02,0-.03,0-.02,0-.03,0-.05,0-.03.02-.06.03-.08,0-.02.02-.03.02-.05,0-.01.01-.02.02-.03,0,0,0-.02,0-.03,0-.02,0-.03.02-.05.01-.02.02-.03.02-.04,0,0,.01-.02.02-.03.01-.03.04-.04.06-.05h0s.05-.02.08-.02h0s.05,0,.08.02h0s.05.03.06.05c.01.02,0,.04,0,.06,0,0,0,.01,0,.02,0,.03,0,.05-.02.07,0,.02-.01.02-.01.03,0,.01,0,.02-.02.04v.02s-.03.04-.04.05c0,.02-.02.05-.03.07,0,.01,0,.02,0,.04,0,.01,0,.03,0,.04,0,.02-.01.03-.02.04,0,.01-.01.02-.01.03,0,.03,0,.06,0,.08,0,.01,0,.03,0,.04,0,.01,0,.02,0,.04,0,.01,0,.03,0,.04,0,.02,0,.03,0,.04,0,.02,0,.03.01.05,0,0,0,.02,0,.03,0,.01.01.02.02.04,0,.01.01.02.02.03,0,.01,0,.03,0,.04,0,.01,0,.03,0,.04h0s.02.05.03.07c.01,0,.03,0,.04,0,.01,0,.02,0,.04,0,.01,0,.03,0,.04,0,.02,0,.03,0,.04,0,.02,0,.03,0,.05-.01.02,0,.03-.01.05-.01.02,0,.03,0,.05,0,0,0,.02,0,.03,0h0s-.02-.04-.02-.05c0-.01,0-.02-.01-.03,0-.02-.01-.03-.02-.05,0-.02,0-.03,0-.05,0-.01,0-.02,0-.03,0-.02,0-.03,0-.05,0-.01,0-.02,0-.03,0-.01,0-.02,0-.03,0-.02-.01-.03-.01-.05,0-.01,0-.02,0-.03,0-.02,0-.03,0-.05,0-.02,0-.04,0-.05,0-.01,0-.02,0-.03,0-.02,0-.03.02-.05,0-.01,0-.02.01-.03,0,0,0-.02,0-.03,0-.02,0-.03,0-.05,0-.02.01-.04.02-.05,0,0,0-.02,0-.03,0-.02.01-.03.02-.05,0-.01.01-.02.02-.03,0,0,0-.02.01-.03,0-.02,0-.03.02-.05,0,0,0-.02.01-.03,0-.02.01-.03.02-.05.01-.02.03-.03.05-.04,0,0,.01,0,.02,0,.02-.01.04-.02.07-.02,0,0,.01,0,.02,0,.02,0,.04,0,.07.01.02.01.03.03.04.05,0,0,0,0,0,.01.01.03.02.05.02.08,0,.02,0,.05-.02.08,0,.01-.01.03-.02.04,0,.01,0,.02-.01.03,0,.02-.02.04-.03.06h0s0,.03-.01.04c0,.01-.01.03-.02.04,0,.02,0,.05-.01.07h0s0,.05,0,.07c0,0,0,.02,0,.03,0,.03,0,.05,0,.08,0,.01,0,.02,0,.04,0,.02,0,.03,0,.05,0,0,0,.02,0,.03,0,.02,0,.04.01.06h0s.01.06.02.08c0,.01.01.02.02.04,0,0,0,.01.01.02,0,0,0,0,.01,0,.02,0,.04-.01.05-.02.02-.01.05-.03.08-.04.02,0,.03-.02.04-.03,0,0,.02-.01.03-.02,0,0,.02-.01.02-.02.02-.01.03-.02.05-.04,0,0,.02-.02.03-.02.01-.01.03-.02.04-.04,0-.01.02-.03.03-.04,0-.01.01-.02.02-.04,0-.01.02-.02.03-.03.01-.01.02-.02.03-.03,0-.01,0-.02,0-.04,0-.01,0-.03.01-.04,0-.01.01-.03.02-.05,0-.01,0-.02.01-.03,0,0,0-.02,0-.02,0-.02.01-.04.02-.05,0-.01,0-.02,0-.03,0-.02.01-.03.01-.05,0-.01,0-.03.01-.04,0-.01,0-.03.01-.04,0,0,0-.02,0-.02,0-.02,0-.04,0-.06,0-.01,0-.02,0-.04,0-.01,0-.03,0-.05,0-.02,0-.03,0-.04,0-.01,0-.03,0-.04Z"/>
          <path class="cls-1" d="M8.39,89.2s0,.03.01.05c0,.01,0,.02,0,.03,0,.01,0,.03,0,.04,0,.02,0,.03,0,.04,0,.01.01.03.02.04,0,.01.01.02.02.03,0,.01,0,.02.01.03,0,.02.01.03.02.04,0,.01.02.02.03.03,0,0,.02.02.03.03,0,.01.02.02.02.04,0,.01.01.03.02.04.01.01.03.02.04.03,0,0,.02.01.03.02,0,0,.01,0,.02.01.02.01.03.02.05.03.01,0,.02,0,.04,0,.01,0,.03,0,.04,0,.02,0,.05.01.08.01.02,0,.04,0,.06,0h.02s.03,0,.04,0c.01,0,.03,0,.04,0,.01,0,.03,0,.04,0,.01,0,.02,0,.03,0,.03,0,.06-.01.08-.02.01,0,.02,0,.04,0,.02,0,.03,0,.04-.01.01,0,.02-.01.03-.02,0,0,.02-.02.03-.03.02-.01.05-.03.06-.04,0,0,.01-.01.02-.02.01,0,.02-.02.03-.03,0-.02,0-.04,0-.05,0,0,0-.02,0-.03,0-.03,0-.06.01-.09,0-.01,0-.03,0-.04,0-.02,0-.03,0-.05,0-.02.01-.04.02-.05,0-.01.01-.02.01-.03v-.02s.01-.05.02-.07c0-.02,0-.04,0-.05,0-.01,0-.02,0-.03,0-.01,0-.03,0-.04,0-.01,0-.03,0-.04v-.03s0-.04,0-.05c0-.01,0-.02,0-.04,0-.01,0-.03,0-.05,0-.02,0-.03,0-.05,0-.01,0-.02,0-.03,0-.01,0-.02,0-.04,0-.02,0-.03,0-.05,0-.01,0-.02,0-.04,0-.01,0-.03,0-.05,0-.02,0-.03,0-.05,0-.01,0-.03,0-.04,0-.01,0-.03,0-.04,0-.01,0-.03,0-.05,0-.01,0-.02,0-.04,0-.01,0-.03,0-.05,0-.02,0-.03.01-.05,0-.01,0-.02,0-.04,0-.01,0-.02,0-.04,0-.01,0-.03,0-.05,0-.01,0-.03,0-.04,0-.01,0-.03,0-.05,0-.02,0-.03,0-.05,0-.01,0-.02,0-.04,0-.01,0-.02,0-.04,0-.02,0-.03,0-.05,0-.02,0-.03,0-.05,0-.01,0-.02,0-.04,0-.01,0-.02,0-.04,0-.01,0-.03,0-.05,0-.01,0-.02,0-.04,0-.01,0-.03,0-.05,0-.02,0-.03.02-.05,0-.01.01-.02.01-.03,0-.02,0-.03.01-.04,0-.01,0-.02.01-.04,0-.01,0-.02,0-.04,0-.02,0-.03,0-.05,0-.01,0-.02,0-.04,0-.02,0-.03,0-.05,0-.02,0-.03.01-.04,0-.01,0-.02.01-.04,0-.02.01-.03.02-.04,0-.01.01-.02.02-.03,0,0,0-.02,0-.04,0-.02,0-.03,0-.05,0-.02.01-.03.02-.04,0-.01,0-.02.01-.03,0-.02.01-.03.02-.04,0-.01.01-.02.02-.03,0-.01,0-.02.01-.04,0-.01,0-.03.01-.04,0-.01,0-.02.01-.03,0,0,0-.01,0-.02,0,0,0,0-.01,0-.01,0-.02,0-.03,0,0,0,0,0,0,0-.02,0-.03,0-.05,0-.01,0-.02,0-.03,0-.01,0-.03,0-.04.01-.01,0-.03.01-.04.01-.01,0-.03,0-.04,0-.02,0-.03,0-.04,0,0,0-.02,0-.02,0-.02,0-.04.01-.06.02-.01,0-.03.01-.04.02-.01,0-.02.01-.03.02-.01,0-.03.02-.04.02-.01,0-.02.01-.03.02-.02.01-.03.02-.05.04h-.02s-.02.03-.03.03c-.01,0-.03.01-.04.02-.02.01-.03.03-.04.04,0,0-.01.01-.02.02-.01.01-.02.02-.03.04,0,0-.02.02-.02.03h-.01s-.03.04-.04.06c0,.01-.02.02-.03.03-.01.01-.02.02-.03.03,0,0-.01.02-.02.03-.01.01-.02.03-.03.04,0,0-.01.02-.02.02-.01.01-.02.03-.03.04,0,.01-.01.02-.02.04,0,.01-.01.03-.02.04,0,.01-.01.02-.02.03,0,.01-.02.03-.03.04h0s-.02.05-.03.07c0,.01-.01.03-.02.04,0,.01,0,.03-.02.04,0,.01-.01.02-.02.03,0,.01-.01.03-.02.04,0,.01-.01.03-.02.04,0,.01-.01.02-.02.04,0,.01,0,.02-.01.04,0,.01,0,.03-.01.04,0,.01-.01.03-.02.04,0,.01-.01.02-.02.04,0,.01,0,.02,0,.04,0,.02,0,.03,0,.05,0,.01,0,.03-.01.04,0,.01,0,.03-.01.04,0,.01,0,.03-.01.04,0,.01,0,.03-.01.04,0,.01,0,.03-.01.04,0,.01,0,.03-.01.04,0,.02-.01.03-.02.04,0,.01-.01.03-.01.04,0,.01,0,.02,0,.03,0,.02,0,.03-.01.05,0,.01,0,.03,0,.04,0,.02,0,.03,0,.05,0,.02,0,.03-.01.04,0,.01,0,.03-.01.04,0,.02,0,.03,0,.05,0,.01,0,.03,0,.04,0,.02,0,.03,0,.05,0,.01,0,.02,0,.03,0,.01,0,.02,0,.04,0,.02,0,.03,0,.05,0,.01,0,.03,0,.04,0,.01,0,.03,0,.04,0,.01,0,.02,0,.04,0,.02,0,.03,0,.05,0,.02,0,.03,0,.05,0,.01,0,.03,0,.04Z"/>
          <path class="cls-1" d="M13.86,94.76s-.02-.02-.04-.03c0-.01-.02-.02-.03-.03-.01,0-.02-.01-.03-.02-.01,0-.03-.02-.04-.03-.01-.01-.02-.02-.04-.03,0,0-.02-.02-.03-.03,0,0-.02-.02-.03-.02-.01,0-.03-.02-.04-.03-.01-.01-.03-.02-.04-.04,0,0-.02-.02-.02-.02,0,0-.02-.01-.03-.02-.01,0-.03-.02-.04-.03-.01-.01-.02-.03-.03-.04,0-.01-.01-.02-.02-.03,0,0-.02-.02-.03-.02-.01,0-.02-.02-.04-.03-.02-.02-.04-.04-.06-.06,0,0-.02-.02-.03-.03-.01,0-.02-.02-.03-.03-.01-.01-.02-.03-.03-.04,0-.01-.01-.02-.02-.03,0,0-.02-.02-.03-.02-.01,0-.03-.02-.04-.03,0,0-.01-.02-.02-.02-.01-.01-.02-.03-.04-.04l-.02-.02s-.02-.03-.04-.05c0-.01-.02-.03-.03-.04,0-.01-.01-.02-.02-.03-.01-.01-.02-.03-.02-.05,0-.01,0-.03-.01-.03,0-.01-.02-.02-.02-.03,0-.01-.02-.02-.03-.04,0-.01-.01-.02-.02-.03,0-.01-.02-.02-.03-.04,0-.01-.02-.02-.02-.03-.01-.01-.02-.02-.03-.04,0-.01-.01-.03-.02-.05,0-.01,0-.02-.01-.03,0-.02-.02-.03-.02-.05,0,0-.01-.02-.02-.03,0-.01-.01-.02-.02-.03,0-.01-.02-.02-.03-.04,0-.02-.01-.03-.02-.05,0,0,0-.01,0-.01,0,0,0,0,0,.01,0,0-.01.02-.03.03-.01.01-.02.02-.03.03,0,0-.01.02-.03.03-.02.02-.03.02-.04.03,0,0-.02,0-.03.02-.02.01-.02.02-.03.03,0,0-.02.01-.03.03-.01.01-.02.02-.02.03,0,.01-.01.02-.03.04-.02.02-.03.02-.04.03,0,0-.02,0-.03.02-.02.01-.02.02-.03.03,0,0-.02.01-.03.03-.01.01-.02.02-.03.03,0,0-.01.02-.03.03-.02.01-.02.02-.03.03,0,0-.02.01-.03.03-.01.01-.02.02-.02.03,0,0-.01.02-.03.04-.02.02-.03.02-.04.03,0,0-.02,0-.03.02-.01.01-.02.02-.03.03,0,0-.01.02-.03.03-.01.01-.02.02-.02.03,0,0-.01.02-.03.04-.02.02-.04.02-.05.03-.01,0-.02,0-.03.02-.01.01-.01.02-.02.03,0,.01,0,.03-.03.05-.02.02-.03.02-.04.03,0,0-.02,0-.03.02-.02.02-.04.03-.06.03-.02,0-.05,0-.07,0h0s-.02,0-.04,0c-.01,0-.03,0-.04,0-.02,0-.05,0-.08,0-.01,0-.02,0-.03,0-.02,0-.03,0-.05,0-.02,0-.03,0-.05.02,0,0-.02,0-.03.01-.03,0-.05.02-.08.03-.02,0-.04.02-.06.03h-.02s-.03.02-.04.03c-.01,0-.03,0-.04.01-.01,0-.02.02-.03.03,0,0-.02.02-.03.03-.02.02-.04.04-.06.06,0,0-.02.02-.02.02-.01.01-.02.02-.03.04,0,.01-.01.02-.01.04,0,.01,0,.03-.01.04-.01.02-.02.05-.03.07,0,0,0,.02-.01.03,0,.02-.01.03-.01.05,0,.03,0,.05,0,.08,0,.03,0,.05,0,.08,0,.01,0,.03.01.04,0,.01,0,.02.01.03,0,.01,0,.03,0,.04,0,.01,0,.03,0,.04,0,.03.02.05.03.07,0,.01.01.02.02.03,0,0,0-.01,0-.02,0,0,0-.02.01-.02.01-.03.02-.05.03-.08,0,0,0-.02.01-.03,0-.02,0-.03.02-.05,0-.02.02-.03.04-.04,0,0,.02-.01.02-.02h0s.03-.05.04-.07c0,0,.01-.02.02-.03,0-.01.02-.03.03-.04.01-.01.03-.02.04-.03,0,0,.02-.01.03-.02,0,0,.01-.01.02-.02.01-.01.03-.03.04-.04,0,0,.02-.01.02-.02.01-.01.02-.02.04-.03.01,0,.03-.01.05-.02.01,0,.02,0,.03-.01,0,0,.02-.01.03-.02.01,0,.03-.02.04-.03.02,0,.03-.01.03-.02,0,0,.02-.01.04-.02.02-.01.05,0,.07,0,0,0,0,0,.01,0,0,0,.01,0,.02,0,.02,0,.04,0,.06.01.02.02.04.04.05.06.01.02.02.05.02.08,0,.03,0,.06-.02.08-.01.02-.03.03-.05.04,0,0-.01,0-.02,0-.02,0-.03.01-.04.02,0,0-.02,0-.03.01-.01,0-.02.01-.03.02,0,0-.02.02-.03.02-.01,0-.02.02-.03.03,0,0-.02.02-.03.03,0,0-.02.01-.03.02-.01,0-.03.02-.04.03-.01.01-.02.02-.04.02-.01,0-.02.01-.03.02,0,0-.01.02-.02.03,0,.01,0,.03-.02.04,0,0-.01.01-.02.02-.01.01-.02.03-.03.04,0,.01-.01.02-.02.03,0,.01-.02.02-.02.03,0,.01,0,.03-.01.04,0,.01,0,.02,0,.03,0,.01,0,.03-.01.05,0,.01,0,.02,0,.03,0,.01-.01.03-.02.04,0,.01-.01.02-.01.03,0,.01,0,.02,0,.02,0,.01,0,.02,0,.03,0,0,.02.01.03.02.01,0,.03.02.04.03.01.01.02.02.03.03,0,.01.02.02.03.03,0,0,.02.02.03.03.01.01.03.02.04.03.01,0,.02.02.03.02.01,0,.02.01.03.02.01,0,.02.02.03.02h0s0-.03.01-.05c0-.02.01-.03.02-.05,0-.01.01-.02.01-.03v-.02s.02-.04.03-.06c0,0,0-.02.01-.03,0-.02.02-.04.03-.05.01-.02.03-.04.04-.07h0s.02-.04.03-.05c0,0,.02-.02.02-.03.01-.02.03-.03.04-.04,0,0,.01-.01.02-.02.02-.02.03-.03.05-.04h.02s.02-.03.02-.04c.01-.01.02-.03.04-.04.02-.01.03-.02.05-.03,0,0,.02,0,.02-.01.02-.02.05-.03.07-.04,0,0,.02-.01.03-.02.01,0,.03-.02.05-.03.03-.01.06-.01.08,0,.03,0,.05.02.06.03h0s0,0,.01.01c.02.01.04.02.05.05.01.02,0,.05,0,.06,0,0,0,0,0,.01,0,0,0,.01,0,.02,0,.02,0,.04-.01.06-.02.03-.04.05-.06.06h-.02s-.04.03-.06.04c0,0-.01,0-.02.01-.02,0-.03.02-.05.03-.01,0-.02.01-.03.02-.01,0-.03.02-.04.03h0s-.04.04-.06.06c0,0-.01.02-.02.04,0,.01-.01.03-.02.04,0,.01-.02.02-.03.03-.01.01-.02.02-.03.03,0,.02-.02.03-.02.05,0,0,0,.02-.01.03,0,.02-.01.04-.02.06v.02s-.01.02-.01.02c0,.02-.01.04-.02.06,0,.02,0,.03,0,.04,0,0,0,.01,0,.02,0,0,0,0,.01,0,.01,0,.03.01.04.02.01,0,.03.01.04.02.01,0,.02.02.04.02.01,0,.03,0,.05.01.01,0,.02,0,.04,0,.01,0,.03,0,.04.02.01,0,.03.01.04.02.01,0,.03,0,.04,0,.01,0,.03,0,.04,0,.01,0,.03,0,.04,0,.02,0,.03,0,.04,0,.01,0,.03,0,.04,0,.01,0,.03,0,.04,0,0,0,0,0,0,0,.02,0,.03,0,.05,0,.01,0,.03,0,.04,0,.01,0,.03,0,.05,0,.01,0,.03,0,.04,0,.01,0,.02,0,.04,0,.02,0,.03,0,.05,0,.01,0,.03,0,.04-.01.01,0,.02,0,.04-.01.01,0,.03,0,.04-.02.01,0,.02-.01.04-.01.01,0,.03,0,.04,0,.01,0,.03,0,.04,0,.01,0,.02-.01.03-.02.01,0,.02-.02.04-.02.01,0,.03,0,.04-.01.01,0,.03,0,.04-.01,0,0,.02-.01.03-.02.01-.01.02-.02.04-.03.02,0,.03-.01.05-.01.01,0,.03,0,.04,0,.01,0,.02-.02.03-.03.01,0,.02-.02.03-.03.01,0,.02-.02.03-.03,0,0,.02-.02.03-.03.01,0,.02-.02.03-.02.01,0,.02-.02.04-.02.01,0,.02-.02.03-.03,0,0,.02-.02.03-.03.01,0,.02-.02.03-.02.01,0,.02-.02.03-.03,0,0,.02-.02.03-.03.01,0,.02-.02.03-.03,0,0,.02-.02.03-.02.01-.01.02-.02.04-.03,0,0,.02-.02.03-.03,0-.01.02-.02.03-.03.01-.01.02-.02.03-.03,0-.01.02-.02.02-.03,0-.01.02-.02.03-.04,0-.01.02-.02.02-.03,0-.01.02-.02.02-.03,0-.01.01-.02.02-.04.01-.01.03-.02.04-.03.01,0,.02-.01.03-.02,0,0,.01-.02.02-.03,0-.01.01-.03.02-.04,0-.01.02-.02.03-.03,0-.01.02-.02.03-.03,0-.01.02-.02.03-.04,0,0,.02-.02.03-.03,0-.01.02-.03.02-.04,0-.01.01-.02.02-.03,0-.01.02-.02.02-.04,0,0,0-.01.01-.02,0,0-.01,0-.02,0-.01,0-.03-.02-.04-.03Z"/>
        </g>
        <g>
          <g>
            <path class="cls-1" d="M30.65,87.57c-.19.01-.37.07-.54.17-.17.1-.31.24-.44.4-.05.06-.09.13-.12.2l-.05-.63-.98.05.2,3.83,1.02-.05-.1-1.98c0-.13,0-.24.04-.34.04-.1.09-.2.16-.28.07-.08.15-.14.25-.19.1-.05.2-.07.32-.08.09,0,.17,0,.25.02.08.02.15.04.21.06l.21-1.13c-.05-.02-.12-.03-.19-.04-.08-.01-.16-.01-.24,0Z"/>
            <path class="cls-1" d="M34.2,87.89c-.07-.11-.15-.2-.25-.29-.11-.1-.25-.18-.4-.24-.15-.06-.33-.09-.51-.1-.33-.01-.63.06-.9.23-.27.16-.48.39-.65.68-.16.29-.25.63-.26,1.02s.05.72.19,1.03c.14.3.34.55.58.73.25.18.53.28.85.29.18,0,.35-.02.51-.07.16-.05.31-.12.44-.21.11-.08.21-.16.29-.26l-.02.5,1.02.04.13-3.83-1.01-.04-.02.51ZM33.67,90.25c-.15.09-.32.13-.52.12s-.36-.06-.5-.16c-.14-.1-.25-.23-.32-.4-.07-.17-.11-.36-.1-.59s.05-.41.14-.58c.09-.16.2-.29.35-.38.15-.09.32-.13.51-.12s.36.06.51.16c.14.1.25.23.33.4.07.17.11.37.1.59s-.05.41-.14.58c-.09.16-.2.29-.35.38Z"/>
            <g>
              <path class="cls-1" d="M40.03,85.88c-.11-.1-.26-.15-.45-.16s-.34.04-.46.14c-.12.1-.18.23-.18.4,0,.17.04.31.15.41.11.1.26.15.45.16s.35-.04.46-.14c.11-.1.17-.23.18-.39,0-.18-.04-.32-.15-.42Z"/>
              <rect class="cls-1" x="37.54" y="89.03" width="3.83" height="1.01" transform="translate(-51.4 125.84) rotate(-88)"/>
            </g>
            <path class="cls-1" d="M37.32,86.94c.03-.06.07-.11.13-.14.06-.03.13-.05.23-.06.06,0,.12,0,.19.03.07.02.13.05.2.09l.27-.76c-.11-.09-.24-.16-.39-.21-.15-.05-.31-.07-.48-.07-.25,0-.47.07-.65.19-.18.12-.32.27-.42.47-.1.19-.14.41-.13.65v.37s-.57.02-.57.02l.03.86.58-.02.1,2.87h.22c.08-.01.18-.01.29-.02l.51-.02-.1-2.87.83-.03-.03-.86-.83.03v-.3c-.01-.09,0-.16.03-.22Z"/>
            <polygon class="cls-1" points="42.34 86.36 41.32 86.39 41.36 87.36 40.63 87.39 40.66 88.3 41.39 88.27 41.49 91.19 42.5 91.16 42.4 88.24 43.19 88.21 43.16 87.3 42.37 87.33 42.34 86.36"/>
            <path class="cls-1" d="M46.46,87.89c-.07-.11-.15-.2-.25-.29-.11-.1-.25-.18-.4-.24-.15-.06-.33-.09-.51-.1-.33-.01-.63.06-.9.23-.27.16-.48.39-.65.68-.16.29-.25.63-.26,1.02s.05.72.19,1.03c.14.3.34.55.58.73.25.18.53.28.85.29.18,0,.35-.02.51-.07.16-.05.31-.12.44-.21.11-.08.21-.16.29-.26l-.02.5,1.02.04.13-3.83-1.01-.04-.02.51ZM45.93,90.25c-.15.09-.32.13-.52.12s-.36-.06-.5-.16c-.14-.1-.25-.23-.32-.4-.07-.17-.11-.36-.1-.59s.05-.41.14-.58c.09-.16.2-.29.35-.38.15-.09.32-.13.51-.12s.36.06.51.16c.14.1.25.23.33.4.07.17.11.37.1.59s-.05.42-.14.58c-.09.16-.2.29-.35.38Z"/>
          </g>
          <g>
            <path class="cls-1" d="M30.85,95.55c-.1-.1-.23-.19-.39-.26-.17-.07-.37-.13-.6-.18-.18-.03-.33-.07-.43-.1-.11-.04-.19-.07-.24-.09-.05-.03-.09-.07-.12-.12-.03-.05-.04-.1-.05-.15,0-.06,0-.11.02-.15s.05-.08.09-.12c.04-.03.09-.06.16-.08s.14-.03.22-.03c.1,0,.2,0,.32.04.12.04.23.08.34.14s.22.13.31.21l.51-.64c-.13-.11-.27-.21-.44-.29-.17-.08-.34-.14-.53-.18-.19-.04-.38-.05-.59-.04s-.38.05-.55.11c-.18.06-.33.15-.46.26-.13.11-.23.24-.3.38-.07.14-.1.3-.09.48,0,.14.04.27.09.39.05.12.12.22.22.31.11.1.25.19.43.27.17.08.38.14.63.19.17.03.3.06.4.09.1.03.18.06.23.09.09.06.14.14.14.25,0,.06,0,.11-.03.15-.02.04-.05.09-.1.12-.04.04-.09.06-.15.08-.06.02-.13.03-.2.04-.18,0-.37-.02-.56-.08-.19-.06-.36-.17-.52-.31l-.6.58c.18.2.41.35.69.45.28.1.6.15.96.13.29-.02.55-.08.77-.2.22-.12.4-.27.52-.46.12-.19.18-.4.17-.64,0-.14-.03-.26-.08-.37-.04-.11-.11-.21-.2-.28Z"/>
            <polygon class="cls-1" points="33.08 92.39 32.07 92.38 32.05 93.35 31.32 93.34 31.31 94.25 32.03 94.26 31.98 97.18 33 97.2 33.05 94.28 33.84 94.29 33.85 93.38 33.06 93.37 33.08 92.39"/>
            <path class="cls-1" d="M36.91,95.72c0,.11-.01.21-.05.3-.04.1-.09.18-.15.25s-.15.13-.24.17c-.1.04-.2.07-.32.07-.15,0-.29-.02-.4-.09-.11-.07-.2-.16-.26-.29-.06-.13-.09-.28-.1-.46l-.08-2.19-1.01.04.08,2.37c.01.32.07.59.19.82.11.23.27.4.48.51.21.12.45.17.72.16.22,0,.42-.06.6-.14.19-.09.34-.21.47-.36.04-.05.08-.1.11-.15l.04.54.97-.03-.13-3.83-1.01.04.08,2.3Z"/>
            <path class="cls-1" d="M41.41,93.82c-.06-.06-.12-.13-.19-.18-.13-.1-.27-.19-.44-.25-.16-.06-.33-.1-.51-.11-.34-.02-.64.05-.92.21-.27.16-.5.39-.66.68-.17.29-.26.63-.28,1.02s.04.73.18,1.04c.14.3.34.55.59.73.25.19.55.29.89.3.17,0,.34,0,.51-.05.17-.04.31-.1.45-.19.11-.07.2-.14.27-.23v.45s.96.05.96.05l.28-5.35-1.02-.05-.1,1.93ZM41.22,95.92c-.09.17-.21.29-.36.38-.15.09-.32.13-.52.12s-.36-.07-.5-.17c-.14-.1-.25-.24-.32-.42-.07-.18-.1-.37-.09-.6s.06-.42.15-.59c.09-.17.21-.29.36-.38.15-.09.32-.13.51-.12s.37.07.51.17c.14.1.25.24.32.42.07.18.1.38.09.6s-.06.42-.15.58Z"/>
            <g>
              <path class="cls-1" d="M44.09,91.87c-.11-.09-.27-.14-.46-.13s-.34.06-.45.17c-.11.11-.16.24-.16.41,0,.17.07.31.18.4.11.09.27.14.46.13s.34-.06.45-.17c.11-.11.16-.24.15-.4,0-.18-.07-.31-.18-.41Z"/>
              <rect class="cls-1" x="43.26" y="93.64" width="1.01" height="3.83" transform="translate(-3.31 1.59) rotate(-2)"/>
            </g>
            <path class="cls-1" d="M48.66,94.16c-.19-.29-.44-.51-.75-.67-.31-.16-.66-.23-1.05-.21s-.73.13-1.03.32c-.3.19-.53.44-.69.74-.16.31-.23.65-.21,1.04s.13.72.32,1.01c.19.29.45.51.76.67.32.16.67.22,1.06.2s.73-.12,1.02-.31c.29-.19.52-.43.68-.74.16-.31.23-.66.21-1.04s-.12-.72-.31-1.01ZM47.85,95.8c-.08.17-.19.31-.33.41-.15.1-.31.16-.5.17s-.37-.03-.53-.12c-.16-.09-.29-.21-.38-.38-.09-.16-.15-.35-.16-.56s.02-.4.1-.57c.08-.17.19-.31.34-.41.15-.1.32-.16.51-.17s.36.03.52.11c.16.09.28.21.38.38.09.16.14.35.15.57.02.21-.01.4-.09.57Z"/>
          </g>
        </g>
      </g>
      <g>
        <path class="cls-1" d="M2.37,21.04c.84,0,1.4.55,1.4,1.32,0,.5-.23.96-.77,1.17l-.16-.4c.35-.12.54-.42.54-.78,0-.53-.44-.87-1.01-.87-.61,0-1.01.38-1.01.9,0,.42.26.72.62.86l-.14.39c-.56-.2-.87-.68-.87-1.26,0-.77.55-1.33,1.4-1.33Z"/>
        <path class="cls-1" d="M4.87,24.05v.42c-.56,0-1.13-.02-1.73-.08v.07c.47.22.63.55.63.91,0,.47-.28.96-1.06.96h-1.66v-.42h1.48c.57,0,.85-.27.85-.66,0-.48-.41-.77-.89-.77h-1.44v-.42h3.82Z"/>
        <path class="cls-1" d="M2.36,26.8c.82,0,1.4.54,1.4,1.3,0,.54-.31,1.23-1.35,1.23h-.13v-2.1c-.58.02-.95.4-.95.9,0,.41.26.71.61.85l-.15.38c-.51-.19-.83-.65-.83-1.23,0-.76.56-1.32,1.39-1.32ZM3.41,28.09c0-.46-.34-.77-.81-.85v1.65c.6-.02.81-.43.81-.8Z"/>
        <path class="cls-1" d="M2.37,29.66c.85,0,1.4.55,1.4,1.23,0,.41-.21.75-.68.94v.07c.24-.04.42-.04.61-.04v.42H1.05v-.41c.16,0,.32-.01.63.05v-.06c-.53-.21-.71-.58-.71-.97,0-.72.6-1.22,1.4-1.22ZM2.38,31.84c.58,0,1-.39,1-.88s-.43-.85-1.01-.85-1.01.37-1.01.86.45.88,1.02.88Z"/>
        <path class="cls-1" d="M3.69,32.96v.4c-.11,0-.24,0-.45-.06v.07c.38.16.53.44.53.79,0,.57-.41.98-.96.98s-.98-.41-.98-1c0-.31.11-.6.44-.75v-.07c-.35.07-1.66.06-2.27,0v-.35h3.69ZM2.79,34.72c.36,0,.63-.26.63-.63s-.3-.63-.63-.63c-.32,0-.62.21-.62.63s.3.63.62.63Z"/>
        <path class="cls-1" d="M2.68,35.47v1.37h-.36v-1.37h.36Z"/>
        <path class="cls-1" d="M1.94,37.16c.56,0,.98.42.98.99,0,.33-.15.6-.46.75v.07c.87-.07,1.64-.06,2.41-.06v.42H1.05v-.4c.12,0,.24,0,.44.06v-.07c-.33-.14-.52-.43-.52-.8,0-.57.42-.97.97-.97ZM1.96,38.84c.32,0,.62-.21.62-.64,0-.38-.3-.62-.62-.62-.36,0-.64.25-.64.62s.29.63.64.63Z"/>
        <path class="cls-1" d="M3.39,40.4c-.08-.29-.08-.49-.08-.7h.38v1.04c-.75,0-1.51,0-2.34-.08.08.26.08.44.08.62h-.38v-.96c.75,0,1.5,0,2.34.08ZM4.6,40.11c.17,0,.3.13.3.31s-.13.31-.3.31-.31-.13-.31-.31.14-.31.31-.31Z"/>
        <path class="cls-1" d="M1,42.42v-.31l2.69-.89v.44l-2.19.72v.21l2.19.73v.43l-3.69-1.25v-.43l1,.35Z"/>
        <path class="cls-1" d="M2.68,44v1.37h-.36v-1.37h.36Z"/>
        <path class="cls-1" d="M2.37,45.77c.84,0,1.4.55,1.4,1.32,0,.5-.23.96-.77,1.17l-.16-.4c.35-.12.54-.42.54-.78,0-.53-.44-.87-1.01-.87-.61,0-1.01.38-1.01.9,0,.42.26.72.62.86l-.14.39c-.56-.2-.87-.68-.87-1.26,0-.77.55-1.33,1.4-1.33Z"/>
        <path class="cls-1" d="M2.37,48.58c.85,0,1.4.55,1.4,1.23,0,.41-.21.75-.68.94v.07c.24-.04.42-.04.61-.04v.42H1.05v-.41c.16,0,.32-.01.63.05v-.06c-.53-.21-.71-.58-.71-.97,0-.72.6-1.22,1.4-1.22ZM2.38,50.76c.58,0,1-.39,1-.88s-.43-.85-1.01-.85-1.01.37-1.01.86.45.88,1.02.88Z"/>
        <path class="cls-1" d="M3.69,51.88v.42c-.35,0-.69,0-1.11-.03.42.45.76.88,1.11,1.3v.51c-.35,0-.7,0-1.11-.03.41.45.76.87,1.11,1.3v.51H1.05v-.42c.75,0,1.49-.03,2.27.03v-.06c-.41-.44-.78-.89-1.09-1.36-.42.03-.8.03-1.18.03v-.42c.75,0,1.48-.03,2.27.05v-.07c-.42-.46-.77-.9-1.09-1.38-.43.03-.8.03-1.18.03v-.42h2.64Z"/>
        <path class="cls-1" d="M2.36,56.37c.82,0,1.4.54,1.4,1.3,0,.54-.31,1.23-1.35,1.23h-.13v-2.1c-.58.02-.95.4-.95.9,0,.41.26.71.61.85l-.15.38c-.51-.19-.83-.65-.83-1.23,0-.76.56-1.32,1.39-1.32ZM3.41,57.67c0-.46-.34-.77-.81-.85v1.65c.6-.02.81-.43.81-.8Z"/>
        <path class="cls-1" d="M3.69,59.43v.41c-.17,0-.33.02-.63-.05v.07c.47.13.71.44.71.82,0,.09,0,.19-.05.29h-.46c.04-.1.06-.24.06-.32,0-.58-.56-.8-1.06-.8h-1.21v-.42h2.64Z"/>
        <path class="cls-1" d="M2.37,61.03c.85,0,1.4.55,1.4,1.23,0,.41-.21.75-.68.94v.07c.24-.04.42-.04.61-.04v.42H1.05v-.41c.16,0,.32-.01.63.05v-.06c-.53-.21-.71-.58-.71-.97,0-.72.6-1.22,1.4-1.22ZM2.38,63.21c.58,0,1-.39,1-.88s-.43-.85-1.01-.85-1.01.37-1.01.86.45.88,1.02.88Z"/>
        <path class="cls-1" d="M3.69,65.46v.4c-.11,0-.24,0-.45-.06v.07c.38.16.53.44.53.79,0,.57-.41.98-.96.98s-.98-.41-.98-1c0-.31.11-.6.44-.75v-.07c-.35.07-1.66.06-2.27,0v-.35h3.69ZM2.79,67.21c.36,0,.63-.26.63-.63s-.3-.63-.63-.63c-.32,0-.62.22-.62.63s.3.63.62.63Z"/>
        <path class="cls-1" d="M2.37,67.89c.82,0,1.4.55,1.4,1.34s-.58,1.33-1.4,1.33-1.4-.55-1.4-1.33.57-1.34,1.4-1.34ZM2.37,70.11c.59,0,1.01-.36,1.01-.89s-.42-.9-1.01-.9-1.01.37-1.01.9.42.89,1.01.89Z"/>
        <path class="cls-1" d="M3.69,71.06v.41c-.17,0-.33.02-.63-.05v.07c.47.13.71.44.71.82,0,.09,0,.19-.05.29h-.46c.04-.1.06-.24.06-.33,0-.58-.56-.8-1.06-.8h-1.21v-.42h2.64Z"/>
        <path class="cls-1" d="M2.5,73.85c1.23,0,2.35.98,2.35,2.35,0,1.1-.72,1.87-1.83,1.87-.8,0-1.43-.42-1.43-1.05,0-.37.21-.53.6-.51v-.06c-.46-.23-.58-.56-.58-.86,0-.53.39-.81.88-.81.71,0,1.34.57,1.34,1.18,0,.29-.14.52-.51.62v.06c.21-.05.33-.02.44,0v.41l-1.28-.21c-.17-.03-.55-.1-.55.22s.42.59,1.05.59c.96,0,1.5-.56,1.5-1.45,0-1.15-.89-1.93-1.99-1.93-.95,0-1.53.57-1.53,1.61,0,.43.11.86.37,1.22l-.3.2c-.33-.42-.44-1.01-.44-1.45,0-1.33.88-2.01,1.9-2.01ZM2.88,76.45c.31,0,.53-.17.53-.46,0-.41-.42-.71-.84-.71-.32,0-.53.17-.53.47,0,.42.43.71.84.71Z"/>
        <path class="cls-1" d="M3.71,78.47v.55c-.14,0-.29,0-.53-.08v.08c.44.2.6.53.6.86s-.16.67-.67.77v.08c.53.22.67.56.67.86,0,.47-.33.94-1.06.94h-1.67v-.57h1.42c.45,0,.77-.16.77-.54s-.3-.64-.79-.64h-1.4v-.57h1.42c.45,0,.77-.16.77-.54s-.3-.64-.79-.64h-1.4v-.56h2.66Z"/>
        <path class="cls-1" d="M2.37,82.95c.87,0,1.41.57,1.41,1.22,0,.39-.19.7-.64.85v.08c.21-.03.39-.05.56-.05v.56H1.05v-.54c.14,0,.26-.01.59.06v-.08c-.52-.2-.66-.55-.66-.9,0-.75.62-1.21,1.4-1.21ZM2.38,85.04c.51,0,.86-.33.86-.76s-.36-.75-.86-.75-.87.32-.87.75.38.75.87.75Z"/>
        <path class="cls-1" d="M1.88,86.46c.43,0,.88,0,1.38.08-.06-.25-.06-.42-.06-.6h.51c0,.18,0,.35-.06.6.32-.08.57-.08.83-.08v.56c-.25,0-.51,0-.83-.08.06.33.06.57.06.82h-.51c0-.25,0-.5.06-.82-.43.08-.81.08-1.18.08-.26,0-.59,0-.59.37,0,.12.03.25.1.38h-.51c-.08-.13-.11-.31-.11-.49,0-.82.63-.82.91-.82Z"/>
        <path class="cls-1" d="M1.48,88.71v-.08c-.21.08-.32.07-.42.07v-.53h3.82v.56c-.76,0-1.51,0-2.41-.07v.08c.27.13.43.39.43.73,0,.53-.41.95-.97.95-.53,0-.96-.39-.96-.94,0-.37.19-.65.51-.77ZM1.94,89.84c.27,0,.49-.18.49-.49s-.22-.51-.49-.51c-.28,0-.51.21-.51.51s.21.49.5.49Z"/>
        <path class="cls-1" d="M2.04,90.76h1.67v.57h-1.47c-.49,0-.74.22-.74.55,0,.4.36.63.75.63h1.45v.57h-1.82c-.44,0-.62.03-.83.09v-.56c.16-.04.28-.07.53,0v-.08c-.44-.16-.61-.42-.61-.82,0-.55.33-.96,1.07-.96Z"/>
        <path class="cls-1" d="M1.88,93.94c.43,0,.88,0,1.38.08-.06-.25-.06-.42-.06-.6h.51c0,.18,0,.35-.06.6.32-.08.57-.08.83-.08v.56c-.25,0-.51,0-.83-.08.06.33.06.57.06.82h-.51c0-.25,0-.5.06-.82-.43.08-.81.08-1.18.08-.26,0-.59,0-.59.37,0,.12.03.25.1.38h-.51c-.08-.13-.11-.31-.11-.49,0-.82.63-.82.91-.82Z"/>
        <path class="cls-1" d="M2.37,95.43c.83,0,1.41.56,1.41,1.36s-.58,1.36-1.41,1.36-1.4-.55-1.4-1.36.58-1.36,1.4-1.36ZM2.37,97.56c.51,0,.87-.32.87-.77s-.36-.77-.87-.77-.87.32-.87.77.36.77.87.77Z"/>
        <path class="cls-1" d="M3.71,98.59v.56c-.3,0-.6,0-.97-.04.38.39.67.74.97,1.09v.65c-.3,0-.59,0-.96-.04.38.39.66.73.96,1.08v.66H1.05v-.57c.69,0,1.38-.03,2.14.05v-.08c-.38-.37-.7-.74-.94-1.15-.44.04-.83.04-1.2.04v-.56c.69,0,1.38-.03,2.14.06v-.08c-.39-.38-.7-.75-.95-1.16-.44.04-.82.04-1.2.04v-.56h2.66Z"/>
      </g>
      <g>
        <path class="cls-1" d="M19.93,3.13l.51-.17c.12.3.37.44.6.44.17,0,.41-.07.41-.31,0-.22-.21-.28-.41-.34l-.27-.08c-.3-.09-.71-.27-.71-.76s.43-.79.94-.79.86.28.97.65l-.51.17c-.07-.19-.22-.36-.48-.36-.21,0-.36.12-.36.29,0,.23.28.32.5.38l.21.06c.26.07.72.21.72.73,0,.49-.39.82-.99.82-.57,0-.99-.29-1.11-.73Z"/>
        <path class="cls-1" d="M22.36,3.13c0-.49.4-.68.87-.78.55-.12.78-.13.78-.38,0-.22-.19-.4-.48-.4-.26,0-.47.15-.56.45l-.52-.18c.16-.52.62-.73,1.11-.73.59,0,1.02.29,1.02.9v.95c0,.43.03.6.08.81h-.55c-.04-.13-.06-.26.01-.5h-.08c-.14.39-.45.58-.82.58-.44,0-.86-.24-.86-.73ZM24.01,2.79v-.27c-.13.09-.33.14-.54.19-.23.05-.51.15-.51.41,0,.21.17.32.4.32.41,0,.65-.35.65-.64Z"/>
        <path class="cls-1" d="M25.24,1.19h.54c0,.14,0,.27-.07.51h.07c.21-.44.52-.59.85-.59.47,0,.92.3.92,1.03v1.63h-.55v-1.39c0-.43-.16-.75-.55-.75-.37,0-.65.29-.65.77v1.37h-.55V1.19Z"/>
        <path class="cls-1" d="M28.4,2.97c0-.42,0-.86.08-1.34-.25.06-.41.06-.59.06v-.5c.17,0,.34,0,.59.06-.08-.31-.08-.56-.08-.81h.55c0,.25,0,.5-.07.81.32-.06.56-.06.8-.06v.5c-.24,0-.48,0-.8-.06.07.42.07.79.07,1.15,0,.26,0,.58.36.58.12,0,.25-.03.37-.1v.5c-.13.07-.3.11-.48.11-.8,0-.8-.61-.8-.89Z"/>
        <path class="cls-1" d="M30.07.35c0-.19.15-.35.36-.35s.35.16.35.35c0,.2-.15.37-.35.37s-.36-.16-.36-.37ZM30.15,1.19h.55v2.59h-.55V1.19Z"/>
        <path class="cls-1" d="M31.22,3.13c0-.49.4-.68.87-.78.55-.12.78-.13.78-.38,0-.22-.19-.4-.48-.4-.26,0-.47.15-.56.45l-.52-.18c.16-.52.62-.73,1.11-.73.59,0,1.02.29,1.02.9v.95c0,.43.03.6.08.81h-.55c-.04-.13-.06-.26.01-.5h-.08c-.14.39-.45.58-.82.58-.44,0-.86-.24-.86-.73ZM32.87,2.79v-.27c-.13.09-.33.14-.54.19-.23.05-.51.15-.51.41,0,.21.17.32.4.32.4,0,.65-.35.65-.64Z"/>
        <path class="cls-1" d="M34.03,4.13l.5-.18c.13.31.34.46.69.46.44,0,.73-.26.73-.82,0-.14.02-.29.06-.38h-.07c-.19.43-.5.56-.82.56-.75,0-1.19-.6-1.19-1.33,0-.78.51-1.33,1.17-1.33.39,0,.7.22.83.62h.07c-.04-.26-.04-.4-.04-.55h.54v2.31c0,1.05-.59,1.38-1.26,1.38-.48,0-1-.16-1.21-.74ZM35.97,2.43c0-.46-.32-.8-.74-.8s-.73.35-.73.8.3.81.73.81.74-.36.74-.81Z"/>
        <path class="cls-1" d="M37.03,2.49c0-.81.54-1.37,1.33-1.37s1.32.57,1.32,1.37-.54,1.37-1.32,1.37-1.33-.56-1.33-1.37ZM39.1,2.49c0-.5-.31-.85-.75-.85s-.75.35-.75.85.31.85.75.85.75-.35.75-.85Z"/>
        <path class="cls-1" d="M40.35,3.8c-.2-.03-.31-.19-.31-.37,0-.2.16-.36.37-.36s.36.16.36.36c0,.17-.12.33-.53.97h-.31c.11-.21.22-.42.42-.6Z"/>
        <path class="cls-1" d="M42.4,2.49c0-.84.56-1.37,1.32-1.37.53,0,.99.27,1.18.79l-.52.21c-.11-.33-.37-.47-.67-.47-.45,0-.74.37-.74.85,0,.52.33.85.76.85.33,0,.6-.21.73-.53l.51.2c-.19.53-.66.85-1.24.85-.76,0-1.33-.53-1.33-1.37Z"/>
        <path class="cls-1" d="M45.41.06h.55c0,.54,0,1.07-.08,1.65h.07c.21-.44.52-.59.85-.59.47,0,.92.3.92,1.03v1.63h-.55v-1.39c0-.43-.16-.75-.55-.75-.37,0-.65.29-.65.77v1.37h-.55V.06Z"/>
        <path class="cls-1" d="M48.29.35c0-.19.15-.35.36-.35s.35.16.35.35c0,.2-.15.37-.35.37s-.36-.16-.36-.37ZM48.37,1.19h.55v2.59h-.55V1.19Z"/>
        <path class="cls-1" d="M49.62.06h.55v3.72h-.55V.06Z"/>
        <path class="cls-1" d="M50.69,2.49c0-.8.54-1.38,1.29-1.38.6,0,1.23.38,1.23,1.35v.14h-1.96c.04.47.36.75.77.75.32,0,.57-.19.69-.49l.52.2c-.18.45-.62.78-1.21.78-.76,0-1.33-.54-1.33-1.36ZM51.97,1.59c-.38,0-.63.27-.7.65h1.37c-.04-.47-.35-.65-.68-.65Z"/>
        <path class="cls-1" d="M22.71,11.4c-1.58,0-2.78-1.18-2.78-2.74s1.2-2.78,2.78-2.78,2.8,1.19,2.8,2.78-1.2,2.74-2.8,2.74ZM21.63,10.22v.06h2.18v-.49c-.51,0-1.01,0-1.59.07.19-.52.6-.67,1-.96.32-.22.62-.52.62-.98,0-.59-.47-.97-1.1-.97-.7,0-1.18.49-1.18,1.16l.49.08c0-.46.25-.77.68-.77.35,0,.57.21.57.5,0,.34-.3.55-.61.76-.71.49-1.03.77-1.06,1.54Z"/>
        <path class="cls-1" d="M31.96,11.4c-1.58,0-2.78-1.18-2.78-2.74s1.2-2.78,2.78-2.78,2.8,1.19,2.8,2.78-1.2,2.74-2.8,2.74ZM31.96,10.35c.76,0,1.25-.7,1.25-1.7s-.5-1.71-1.25-1.71-1.26.7-1.26,1.71.49,1.7,1.26,1.7ZM31.96,9.86c-.42,0-.7-.43-.7-1.21s.28-1.22.7-1.22.69.44.69,1.22-.28,1.21-.69,1.21Z"/>
        <path class="cls-1" d="M41.22,11.4c-1.58,0-2.78-1.18-2.78-2.74s1.2-2.78,2.78-2.78,2.8,1.19,2.8,2.78-1.2,2.74-2.8,2.74ZM40.14,10.22v.06h2.18v-.49c-.51,0-1.01,0-1.59.07.19-.52.6-.67,1-.96.32-.22.62-.52.62-.98,0-.59-.47-.97-1.1-.97-.7,0-1.18.49-1.18,1.16l.49.08c0-.46.25-.77.68-.77.35,0,.57.21.57.5,0,.34-.3.55-.61.76-.71.49-1.03.77-1.06,1.54Z"/>
        <path class="cls-1" d="M50.47,11.4c-1.58,0-2.78-1.18-2.78-2.74s1.2-2.78,2.78-2.78,2.8,1.19,2.8,2.78-1.2,2.74-2.8,2.74ZM50.47,10.35c.72,0,1.21-.49,1.21-1.13s-.52-1.08-1.07-1.08c-.38,0-.68.17-.84.53h-.07c.1-.74.46-1.26,1.03-1.26.21,0,.41.05.58.19l.29-.38c-.24-.23-.57-.29-.84-.29-.91,0-1.55.78-1.55,1.88,0,.99.51,1.53,1.25,1.53ZM50.47,9.88c-.33,0-.65-.25-.65-.64s.29-.66.65-.66c.34,0,.64.26.64.65s-.32.64-.65.64Z"/>
      </g>
      <g>
        <path class="cls-1" d="M169.6,104.75c-.93,0-1.78-.74-1.78-1.78,0-.83.55-1.42,1.38-1.42.61,0,1.08.31,1.08.8,0,.28-.16.4-.45.39v.05c.35.17.44.42.44.65,0,.4-.3.62-.67.62-.54,0-1.01-.43-1.01-.9,0-.22.11-.39.38-.47v-.05c-.16.04-.25.01-.34,0v-.31l.97.16c.13.02.42.07.42-.17,0-.25-.31-.45-.8-.45-.73,0-1.14.43-1.14,1.1,0,.87.68,1.46,1.51,1.46.72,0,1.16-.43,1.16-1.22,0-.33-.08-.65-.28-.93l.23-.15c.25.32.33.76.33,1.1,0,1.01-.67,1.52-1.44,1.52ZM169.31,102.78c-.23,0-.4.13-.4.35,0,.31.31.54.64.54.24,0,.4-.13.4-.35,0-.32-.33-.54-.64-.54Z"/>
        <path class="cls-1" d="M168.68,101.18v-.42c.1,0,.22,0,.4.06v-.06c-.28-.11-.46-.28-.46-.56,0-.2.11-.46.43-.54l.22.38c-.18.04-.24.16-.24.28,0,.37.52.43.93.43h.74v.43h-2.01Z"/>
        <path class="cls-1" d="M169.69,99.6c-.66,0-1.07-.43-1.07-.92,0-.3.14-.53.48-.64v-.06c-.16.02-.29.04-.43.04v-.43h2.01v.41c-.1,0-.2.01-.44-.05v.06c.39.15.5.42.5.68,0,.56-.47.92-1.06.92ZM169.68,98.02c-.38,0-.65.25-.65.58s.27.56.65.56.66-.24.66-.57-.29-.57-.66-.57Z"/>
        <path class="cls-1" d="M169.02,96.87c.05.16.05.26.05.36h-.39c0-.11,0-.23.05-.36-.12.06-.2.06-.3.06-.46,0-.69-.25-.69-.64,0-.1.02-.24.07-.35h.37c-.05.11-.07.18-.07.26,0,.3.14.3.34.3.09,0,.17,0,.28.06-.05-.2-.05-.38-.05-.56h.39c0,.17,0,.34-.05.56.59-.06,1.13-.06,1.67-.06v.43c-.54,0-1.08,0-1.67-.06Z"/>
        <path class="cls-1" d="M168.03,95.58c-.15,0-.27-.12-.27-.28s.13-.28.27-.28c.16,0,.29.12.29.28s-.13.28-.29.28ZM169.01,95.39c.07.21.07.36.07.51h-.39v-.87c.54,0,1.08,0,1.69.07-.07-.19-.07-.32-.07-.45h.39v.81c-.54,0-1.08,0-1.69-.07Z"/>
        <path class="cls-1" d="M170.09,94.21c-.36,0-.69,0-1.08-.06.06.19.06.32.06.46h-.39c0-.13,0-.26.06-.46-.25.06-.44.06-.64.06v-.43c.19,0,.39,0,.64.06-.06-.25-.06-.43-.06-.62h.39c0,.19,0,.38-.06.62.34-.06.62-.06.98-.06.16,0,.38-.01.38-.24,0-.16-.12-.23-.26-.27l.1-.34c.33.07.54.28.54.66,0,.53-.4.62-.66.62Z"/>
        <path class="cls-1" d="M169.69,92.84c-.66,0-1.07-.43-1.07-.92,0-.3.14-.53.48-.64v-.06c-.16.02-.29.04-.43.04v-.43h2.01v.41c-.1,0-.2.01-.44-.05v.06c.39.15.5.42.5.68,0,.56-.47.92-1.06.92ZM169.68,91.26c-.38,0-.65.25-.65.58s.27.56.65.56.66-.24.66-.57-.29-.57-.66-.57Z"/>
        <path class="cls-1" d="M170.42,90.38c-.16,0-.28-.13-.28-.29s.13-.28.28-.28c.17,0,.29.13.29.28s-.13.29-.29.29Z"/>
        <path class="cls-1" d="M170.19,89.54l-.13-.4c.24-.09.34-.29.34-.46,0-.13-.06-.32-.24-.32-.17,0-.22.16-.27.32l-.06.21c-.07.23-.21.55-.59.55s-.61-.33-.61-.73.22-.67.5-.75l.13.4c-.14.05-.28.17-.28.37,0,.16.09.28.23.28.18,0,.25-.21.3-.39l.05-.17c.06-.2.16-.56.57-.56.38,0,.64.3.64.77,0,.44-.23.77-.56.86Z"/>
        <path class="cls-1" d="M169.01,87.31c.06.19.06.32.06.46h-.39c0-.13,0-.26.06-.46-.25.06-.44.06-.64.06v-.43c.19,0,.39,0,.64.06-.06-.25-.06-.43-.06-.62h.39c0,.19,0,.38-.06.62.46-.07,1.04-.08,1.35-.02-.06-.24-.06-.43-.06-.63h.39v1.02c-.96,0-1.29,0-1.68-.06Z"/>
        <path class="cls-1" d="M169.94,86.02h-1.26v-.43h1.11c.37,0,.56-.17.56-.42,0-.3-.27-.48-.57-.48h-1.1v-.43h1.38c.34,0,.47-.03.63-.06v.43c-.12.03-.21.05-.4,0v.06c.34.12.46.32.46.62,0,.42-.25.72-.81.72Z"/>
        <path class="cls-1" d="M170.03,83.91c-.43,0-.74-.33-.74-.73,0-.24.11-.43.33-.54v-.06c-.68.06-1.25.05-1.82.05v-.43h2.89v.4c-.08,0-.16,0-.33-.05v.06c.23.09.39.3.39.59,0,.41-.3.71-.72.71ZM170.02,82.71c-.2,0-.37.14-.37.38,0,.23.17.37.37.37.22,0,.38-.15.38-.38s-.17-.38-.38-.38Z"/>
        <path class="cls-1" d="M168.03,81.58c-.15,0-.27-.12-.27-.28s.13-.28.27-.28c.16,0,.29.12.29.28s-.13.28-.29.28ZM169.01,81.38c.07.21.07.36.07.51h-.39v-.87c.54,0,1.08,0,1.69.07-.07-.19-.07-.32-.07-.45h.39v.81c-.54,0-1.08,0-1.69-.07Z"/>
        <path class="cls-1" d="M169.69,80.48c-.62,0-1.07-.42-1.07-1.03s.44-1.03,1.07-1.03,1.06.42,1.06,1.03-.44,1.03-1.06,1.03ZM169.69,78.87c-.39,0-.66.24-.66.58s.27.58.66.58.66-.24.66-.58-.27-.58-.66-.58Z"/>
        <path class="cls-1" d="M173.67,91.41h-.06c-.3.24-.63.47-.96.7v-.5c.24-.16.5-.32.77-.44v-.06c-.27-.11-.53-.28-.77-.44v-.49c.33.22.67.45.96.69h.06c.31-.25.66-.48.99-.7v.48c-.24.16-.52.33-.77.44v.06c.25.1.53.29.77.44v.5c-.34-.22-.68-.46-.99-.7Z"/>
        <path class="cls-1" d="M177.53,103.67c-.93,0-1.78-.74-1.78-1.78,0-.83.55-1.42,1.38-1.42.61,0,1.08.31,1.08.8,0,.28-.16.4-.45.39v.05c.35.17.44.42.44.65,0,.4-.3.62-.67.62-.54,0-1.01-.43-1.01-.9,0-.22.11-.39.38-.47v-.05c-.16.04-.25.01-.34,0v-.31l.97.16c.13.02.42.07.42-.17,0-.25-.31-.45-.8-.45-.73,0-1.14.43-1.14,1.1,0,.87.68,1.46,1.51,1.46.72,0,1.16-.43,1.16-1.22,0-.33-.08-.65-.28-.93l.23-.15c.25.32.33.76.33,1.1,0,1.01-.67,1.52-1.44,1.52ZM177.24,101.7c-.23,0-.4.13-.4.35,0,.31.31.54.64.54.24,0,.4-.13.4-.35,0-.32-.33-.54-.64-.54Z"/>
        <path class="cls-1" d="M176.61,100.1v-.42c.11,0,.22,0,.44.05v-.06c-.38-.18-.5-.41-.5-.69,0-.54.47-.89,1.06-.89.67,0,1.07.43,1.07.92,0,.3-.15.52-.46.65v.06c.46-.06.83-.05,1.19-.05v.43h-2.81ZM177.62,98.54c-.38,0-.66.24-.66.56s.27.58.66.58.66-.25.66-.58-.28-.56-.66-.56Z"/>
        <path class="cls-1" d="M175.96,97.65c-.15,0-.28-.12-.28-.28s.13-.28.28-.28c.16,0,.29.12.29.28s-.13.28-.29.28ZM176.94,97.46c.07.21.07.36.07.51h-.39v-.87c.54,0,1.08,0,1.69.07-.07-.19-.07-.32-.07-.45h.39v.81c-.54,0-1.08,0-1.69-.07Z"/>
        <path class="cls-1" d="M176.61,96.38v-.42c.1,0,.22,0,.4.06v-.06c-.28-.11-.46-.28-.46-.56,0-.2.11-.46.43-.54l.22.38c-.18.04-.24.16-.24.28,0,.37.52.43.93.43h.74v.43h-2.01Z"/>
        <path class="cls-1" d="M177.87,94.63h-1.26v-.43h1.11c.37,0,.56-.17.56-.42,0-.3-.27-.48-.57-.48h-1.1v-.43h1.38c.34,0,.47-.03.63-.06v.43c-.12.03-.21.05-.4,0v.06c.34.12.46.32.46.62,0,.42-.25.72-.81.72Z"/>
        <path class="cls-1" d="M177.62,92.47c-.62,0-1.07-.42-1.07-1,0-.47.29-.95,1.05-.95h.11v1.52c.37-.03.58-.28.58-.6,0-.25-.14-.44-.38-.54l.16-.4c.35.14.6.48.6.94,0,.59-.42,1.03-1.06,1.03ZM176.92,91.47c0,.3.21.49.5.54v-1.07c-.37.03-.5.27-.5.52Z"/>
        <path class="cls-1" d="M178.02,89.95c-.36,0-.69,0-1.08-.06.06.19.06.32.06.46h-.39c0-.13,0-.26.06-.46-.25.06-.44.06-.64.06v-.43c.19,0,.39,0,.64.06-.06-.25-.06-.43-.06-.62h.39c0,.19,0,.38-.06.62.34-.06.62-.06.98-.06.16,0,.38-.01.38-.24,0-.16-.12-.23-.26-.27l.1-.34c.33.07.54.28.54.66,0,.53-.4.62-.66.62Z"/>
        <path class="cls-1" d="M177.62,88.58c-.66,0-1.07-.43-1.07-.92,0-.3.14-.53.48-.64v-.06c-.16.03-.29.04-.43.04v-.43h2.01v.41c-.1,0-.2.01-.44-.05v.06c.39.15.5.42.5.68,0,.56-.47.92-1.06.92ZM177.61,86.99c-.38,0-.65.25-.65.58s.27.56.65.56.66-.24.66-.57-.29-.57-.66-.57Z"/>
        <path class="cls-1" d="M178.12,86.21l-.13-.4c.24-.09.34-.29.34-.46,0-.13-.06-.32-.24-.32-.17,0-.22.16-.27.32l-.06.21c-.07.23-.21.55-.59.55s-.61-.33-.61-.73.22-.67.5-.75l.13.4c-.14.05-.28.17-.28.37,0,.16.09.28.23.28.18,0,.25-.21.3-.39l.05-.17c.06-.2.16-.56.57-.56.38,0,.64.3.64.77,0,.44-.23.77-.56.86Z"/>
        <path class="cls-1" d="M178.35,84.27c-.16,0-.28-.13-.28-.29s.13-.28.28-.28c.17,0,.29.13.29.28s-.13.29-.29.29Z"/>
        <path class="cls-1" d="M177.63,82.8h-.06c-.3.24-.63.47-.96.7v-.5c.24-.16.5-.32.77-.44v-.06c-.27-.11-.53-.28-.77-.44v-.49c.33.22.67.45.96.69h.06c.31-.25.66-.48.99-.7v.48c-.24.16-.52.33-.77.44v.06c.25.1.53.29.77.44v.5c-.34-.22-.68-.46-.99-.7Z"/>
        <path class="cls-1" d="M178.69,80.73l-2.08.79v-.47c.49-.18.98-.36,1.62-.52v-.06c-.64-.16-1.13-.34-1.62-.52v-.46l2.81,1.07v.45l-.73-.28Z"/>
        <path class="cls-1" d="M177,78.26l-.06.03c.06.35.07.69.07,1.03h-.39v-1.55h.36c.41.33.84.69,1.26,1.1l.06-.03c-.06-.39-.06-.77-.06-1.14h.39v1.66h-.36c-.41-.33-.85-.68-1.27-1.09Z"/>
      </g>
    </g>
  </g>
</svg>