%TF.GenerationSoftware,KiCad,Pcbnew,9.0.7*%
%TF.CreationDate,2026-04-07T21:21:47-04:00*%
%TF.ProjectId,camara-diy,63616d61-7261-42d6-9469-792e6b696361,rev?*%
%TF.SameCoordinates,Original*%
%TF.FileFunction,Copper,L1,Top*%
%TF.FilePolarity,Positive*%
%FSLAX46Y46*%
G04 Gerber Fmt 4.6, Leading zero omitted, Abs format (unit mm)*
G04 Created by KiCad (PCBNEW 9.0.7) date 2026-04-07 21:21:47*
%MOMM*%
%LPD*%
G01*
G04 APERTURE LIST*
G04 Aperture macros list*
%AMRoundRect*
0 Rectangle with rounded corners*
0 $1 Rounding radius*
0 $2 $3 $4 $5 $6 $7 $8 $9 X,Y pos of 4 corners*
0 Add a 4 corners polygon primitive as box body*
4,1,4,$2,$3,$4,$5,$6,$7,$8,$9,$2,$3,0*
0 Add four circle primitives for the rounded corners*
1,1,$1+$1,$2,$3*
1,1,$1+$1,$4,$5*
1,1,$1+$1,$6,$7*
1,1,$1+$1,$8,$9*
0 Add four rect primitives between the rounded corners*
20,1,$1+$1,$2,$3,$4,$5,0*
20,1,$1+$1,$4,$5,$6,$7,0*
20,1,$1+$1,$6,$7,$8,$9,0*
20,1,$1+$1,$8,$9,$2,$3,0*%
G04 Aperture macros list end*
%TA.AperFunction,ComponentPad*%
%ADD10C,0.700000*%
%TD*%
%TA.AperFunction,ComponentPad*%
%ADD11O,0.900000X2.400000*%
%TD*%
%TA.AperFunction,ComponentPad*%
%ADD12O,0.900000X1.700000*%
%TD*%
%TA.AperFunction,SMDPad,CuDef*%
%ADD13RoundRect,0.147500X0.172500X-0.147500X0.172500X0.147500X-0.172500X0.147500X-0.172500X-0.147500X0*%
%TD*%
%TA.AperFunction,SMDPad,CuDef*%
%ADD14RoundRect,0.140000X-0.140000X-0.170000X0.140000X-0.170000X0.140000X0.170000X-0.140000X0.170000X0*%
%TD*%
%TA.AperFunction,ComponentPad*%
%ADD15RoundRect,0.250000X-0.350000X-0.625000X0.350000X-0.625000X0.350000X0.625000X-0.350000X0.625000X0*%
%TD*%
%TA.AperFunction,ComponentPad*%
%ADD16O,1.200000X1.750000*%
%TD*%
%TA.AperFunction,SMDPad,CuDef*%
%ADD17RoundRect,0.135000X-0.135000X-0.185000X0.135000X-0.185000X0.135000X0.185000X-0.135000X0.185000X0*%
%TD*%
%TA.AperFunction,SMDPad,CuDef*%
%ADD18RoundRect,0.250000X-0.475000X0.250000X-0.475000X-0.250000X0.475000X-0.250000X0.475000X0.250000X0*%
%TD*%
%TA.AperFunction,SMDPad,CuDef*%
%ADD19RoundRect,0.250000X-1.000000X-0.650000X1.000000X-0.650000X1.000000X0.650000X-1.000000X0.650000X0*%
%TD*%
%TA.AperFunction,SMDPad,CuDef*%
%ADD20RoundRect,0.250000X0.250000X0.475000X-0.250000X0.475000X-0.250000X-0.475000X0.250000X-0.475000X0*%
%TD*%
%TA.AperFunction,SMDPad,CuDef*%
%ADD21RoundRect,0.150000X-0.825000X-0.150000X0.825000X-0.150000X0.825000X0.150000X-0.825000X0.150000X0*%
%TD*%
%TA.AperFunction,HeatsinkPad*%
%ADD22C,0.500000*%
%TD*%
%TA.AperFunction,HeatsinkPad*%
%ADD23R,2.410000X3.300000*%
%TD*%
%TA.AperFunction,ComponentPad*%
%ADD24C,1.358000*%
%TD*%
%TA.AperFunction,ComponentPad*%
%ADD25R,1.358000X1.358000*%
%TD*%
%TA.AperFunction,ComponentPad*%
%ADD26C,2.000000*%
%TD*%
%TA.AperFunction,ComponentPad*%
%ADD27R,1.700000X1.700000*%
%TD*%
%TA.AperFunction,ComponentPad*%
%ADD28C,1.700000*%
%TD*%
%TA.AperFunction,ViaPad*%
%ADD29C,0.600000*%
%TD*%
%TA.AperFunction,Conductor*%
%ADD30C,0.500000*%
%TD*%
%TA.AperFunction,Conductor*%
%ADD31C,0.200000*%
%TD*%
%TA.AperFunction,Conductor*%
%ADD32C,0.250000*%
%TD*%
G04 APERTURE END LIST*
D10*
%TO.P,J2,A1,GND*%
%TO.N,GND*%
X158200000Y-108640000D03*
%TO.P,J2,A4,VBUS*%
%TO.N,/VBUS_CHG*%
X159050000Y-108640000D03*
%TO.P,J2,A5,CC1*%
%TO.N,Net-(J2-CC1)*%
X159900000Y-108640000D03*
%TO.P,J2,A6,D+*%
%TO.N,unconnected-(J2-D+-PadA6)*%
X160750000Y-108640000D03*
%TO.P,J2,A7,D-*%
%TO.N,unconnected-(J2-D--PadA7)*%
X161600000Y-108640000D03*
%TO.P,J2,A8*%
%TO.N,N/C*%
X162450000Y-108640000D03*
%TO.P,J2,A9,VBUS*%
%TO.N,/VBUS_CHG*%
X163300000Y-108640000D03*
%TO.P,J2,A12,GND*%
%TO.N,GND*%
X164150000Y-108640000D03*
%TO.P,J2,B1,GND*%
X164150000Y-109990000D03*
%TO.P,J2,B4,VBUS*%
%TO.N,/VBUS_CHG*%
X163300000Y-109990000D03*
%TO.P,J2,B5,CC2*%
%TO.N,Net-(J2-CC2)*%
X162450000Y-109990000D03*
%TO.P,J2,B6,D+*%
%TO.N,unconnected-(J2-D+-PadB6)*%
X161600000Y-109990000D03*
%TO.P,J2,B7,D-*%
%TO.N,unconnected-(J2-D--PadB7)*%
X160750000Y-109990000D03*
%TO.P,J2,B8*%
%TO.N,N/C*%
X159900000Y-109990000D03*
%TO.P,J2,B9,VBUS*%
%TO.N,/VBUS_CHG*%
X159050000Y-109990000D03*
%TO.P,J2,B12,GND*%
%TO.N,GND*%
X158200000Y-109990000D03*
D11*
%TO.P,J2,S1,SHIELD*%
X156850000Y-109620000D03*
D12*
X156850000Y-113000000D03*
D11*
X165500000Y-109620000D03*
D12*
X165500000Y-113000000D03*
%TD*%
D13*
%TO.P,D2,1,K*%
%TO.N,GND*%
X145000000Y-108485000D03*
%TO.P,D2,2,A*%
%TO.N,Net-(D2-A)*%
X145000000Y-107515000D03*
%TD*%
D14*
%TO.P,C3,1*%
%TO.N,+3V3*%
X123540000Y-93000000D03*
%TO.P,C3,2*%
%TO.N,GND*%
X124500000Y-93000000D03*
%TD*%
D15*
%TO.P,J3,1,Pin_1*%
%TO.N,/BAT_18650*%
X153000000Y-91000000D03*
D16*
%TO.P,J3,2,Pin_2*%
%TO.N,GND*%
X155000000Y-91000000D03*
%TD*%
D17*
%TO.P,R5,1*%
%TO.N,Net-(J2-CC1)*%
X167480000Y-105500000D03*
%TO.P,R5,2*%
%TO.N,GND*%
X168500000Y-105500000D03*
%TD*%
D14*
%TO.P,C1,1*%
%TO.N,+3V3*%
X123580000Y-85000000D03*
%TO.P,C1,2*%
%TO.N,GND*%
X124540000Y-85000000D03*
%TD*%
%TO.P,C2,1*%
%TO.N,+3V3*%
X123540000Y-89000000D03*
%TO.P,C2,2*%
%TO.N,GND*%
X124500000Y-89000000D03*
%TD*%
D17*
%TO.P,R4,1*%
%TO.N,Net-(J2-CC2)*%
X160980000Y-105500000D03*
%TO.P,R4,2*%
%TO.N,GND*%
X162000000Y-105500000D03*
%TD*%
D18*
%TO.P,C6,1*%
%TO.N,+5V*%
X116500000Y-103600000D03*
%TO.P,C6,2*%
%TO.N,GND*%
X116500000Y-105500000D03*
%TD*%
D13*
%TO.P,D1,1,K*%
%TO.N,GND*%
X141000000Y-108485000D03*
%TO.P,D1,2,A*%
%TO.N,Net-(D1-A)*%
X141000000Y-107515000D03*
%TD*%
D14*
%TO.P,C5,1*%
%TO.N,+5V*%
X123540000Y-101000000D03*
%TO.P,C5,2*%
%TO.N,GND*%
X124500000Y-101000000D03*
%TD*%
D19*
%TO.P,D3,1,K*%
%TO.N,+5V*%
X152000000Y-99500000D03*
%TO.P,D3,2,A*%
%TO.N,/BAT_18650*%
X156000000Y-99500000D03*
%TD*%
D20*
%TO.P,C7,1*%
%TO.N,/BAT_18650*%
X136950000Y-109500000D03*
%TO.P,C7,2*%
%TO.N,GND*%
X135050000Y-109500000D03*
%TD*%
D17*
%TO.P,R2,1*%
%TO.N,Net-(D2-A)*%
X155480000Y-104500000D03*
%TO.P,R2,2*%
%TO.N,Net-(U2-~{STDBY})*%
X156500000Y-104500000D03*
%TD*%
%TO.P,R3,1*%
%TO.N,GND*%
X135490000Y-105500000D03*
%TO.P,R3,2*%
%TO.N,Net-(U2-PROG)*%
X136510000Y-105500000D03*
%TD*%
D21*
%TO.P,U2,1,TEMP*%
%TO.N,GND*%
X124425000Y-106420000D03*
%TO.P,U2,2,PROG*%
%TO.N,Net-(U2-PROG)*%
X124425000Y-107690000D03*
%TO.P,U2,3,GND*%
%TO.N,GND*%
X124425000Y-108960000D03*
%TO.P,U2,4,V_{CC}*%
%TO.N,/VBUS_CHG*%
X124425000Y-110230000D03*
%TO.P,U2,5,BAT*%
%TO.N,/BAT_18650*%
X129375000Y-110230000D03*
%TO.P,U2,6,~{STDBY}*%
%TO.N,Net-(U2-~{STDBY})*%
X129375000Y-108960000D03*
%TO.P,U2,7,~{CHRG}*%
%TO.N,Net-(U2-~{CHRG})*%
X129375000Y-107690000D03*
%TO.P,U2,8,CE*%
%TO.N,+5V*%
X129375000Y-106420000D03*
D22*
%TO.P,U2,9,EPAD*%
%TO.N,GND*%
X126200000Y-107125000D03*
X126200000Y-108325000D03*
X126200000Y-109525000D03*
D23*
X126900000Y-108325000D03*
D22*
X127600000Y-107125000D03*
X127600000Y-108325000D03*
X127600000Y-109525000D03*
%TD*%
D17*
%TO.P,R1,1*%
%TO.N,Net-(D1-A)*%
X151480000Y-104500000D03*
%TO.P,R1,2*%
%TO.N,Net-(U2-~{CHRG})*%
X152500000Y-104500000D03*
%TD*%
D14*
%TO.P,C4,1*%
%TO.N,+3V3*%
X123540000Y-97000000D03*
%TO.P,C4,2*%
%TO.N,GND*%
X124500000Y-97000000D03*
%TD*%
D24*
%TO.P,U1,11,GPIO9_A10_D10_MOSI*%
%TO.N,/SPI_MOSI*%
X143740000Y-89620000D03*
%TO.P,U1,10,GPIO8_A9_D9_MISO*%
%TO.N,unconnected-(U1-GPIO8_A9_D9_MISO-Pad10)*%
X143740000Y-92160000D03*
%TO.P,U1,9,GPIO7_A8_D8_SCK*%
%TO.N,/SPI_CLK*%
X143740000Y-94700000D03*
%TO.P,U1,8,GPIO44_D7_RX*%
%TO.N,/DISP_RES*%
X143740000Y-97240000D03*
%TO.P,U1,12,3V3*%
%TO.N,+3V3*%
X143740000Y-87080000D03*
%TO.P,U1,13,GND*%
%TO.N,GND*%
X143740000Y-84540000D03*
%TO.P,U1,14,5V*%
%TO.N,+5V*%
X143740000Y-82000000D03*
%TO.P,U1,4,GPIO4_A3_D3*%
%TO.N,unconnected-(U1-GPIO4_A3_D3-Pad4)*%
X128500000Y-89620000D03*
%TO.P,U1,5,GPIO5_A4_D4_SDA*%
%TO.N,unconnected-(U1-GPIO5_A4_D4_SDA-Pad5)*%
X128500000Y-92160000D03*
%TO.P,U1,6,GPIO6_A5_D5_SCL*%
%TO.N,/DISP_CS*%
X128500000Y-94700000D03*
%TO.P,U1,7,GPIO43_A6_D6_TX*%
%TO.N,/DISP_DC*%
X128500000Y-97240000D03*
%TO.P,U1,3,GPIO3_A2_D2*%
%TO.N,unconnected-(U1-GPIO3_A2_D2-Pad3)*%
X128500000Y-87080000D03*
%TO.P,U1,2,GPIO2_A1_D1*%
%TO.N,/BTN_MODO*%
X128500000Y-84540000D03*
D25*
%TO.P,U1,1,GPIO1_A0_D0*%
%TO.N,/BTN_SHUTTER*%
X128500000Y-82000000D03*
%TD*%
D26*
%TO.P,SW1,1,1*%
%TO.N,/BTN_SHUTTER*%
X119000000Y-83500000D03*
X112500000Y-83500000D03*
%TO.P,SW1,2,2*%
%TO.N,GND*%
X119000000Y-88000000D03*
X112500000Y-88000000D03*
%TD*%
D27*
%TO.P,J1,1,VCC*%
%TO.N,+3V3*%
X164500000Y-87110000D03*
D28*
%TO.P,J1,2,GND*%
%TO.N,GND*%
X164500000Y-89650000D03*
%TO.P,J1,3,SCL*%
%TO.N,/SPI_CLK*%
X164500000Y-92190000D03*
%TO.P,J1,4,SDA*%
%TO.N,/SPI_MOSI*%
X164500000Y-94730000D03*
%TO.P,J1,5,RES*%
%TO.N,/DISP_RES*%
X164500000Y-97270000D03*
%TO.P,J1,6,DC*%
%TO.N,/DISP_DC*%
X164500000Y-99810000D03*
%TO.P,J1,7,CS*%
%TO.N,/DISP_CS*%
X164500000Y-102350000D03*
%TO.P,J1,8,BLK*%
%TO.N,+3V3*%
X164500000Y-104890000D03*
%TD*%
D26*
%TO.P,SW2,1,1*%
%TO.N,/BTN_MODO*%
X119000000Y-94000000D03*
X112500000Y-94000000D03*
%TO.P,SW2,2,2*%
%TO.N,GND*%
X119000000Y-98500000D03*
X112500000Y-98500000D03*
%TD*%
D29*
%TO.N,GND*%
X124500000Y-85000000D03*
X162000000Y-105500000D03*
X124500000Y-106500000D03*
X135000000Y-109500000D03*
X116500000Y-105500000D03*
X168471000Y-105500000D03*
X124500000Y-93000000D03*
X124500000Y-101000000D03*
X124500000Y-109000000D03*
X124500000Y-97000000D03*
X145000000Y-108500000D03*
X141000000Y-108500000D03*
X135500000Y-105500000D03*
X124500000Y-89000000D03*
%TD*%
D30*
%TO.N,+5V*%
X121230000Y-107148091D02*
X121230000Y-110230000D01*
X116230000Y-110230000D02*
X110500000Y-104500000D01*
X125878091Y-102500000D02*
X121230000Y-107148091D01*
X121230000Y-110230000D02*
X116230000Y-110230000D01*
X140662472Y-102500000D02*
X125878091Y-102500000D01*
X110500000Y-104500000D02*
X110500000Y-102000000D01*
X110500000Y-102000000D02*
X111500000Y-101000000D01*
X111500000Y-101000000D02*
X110000000Y-99500000D01*
X141240000Y-79500000D02*
X143740000Y-82000000D01*
X110000000Y-99500000D02*
X110000000Y-82500000D01*
X110000000Y-82500000D02*
X113000000Y-79500000D01*
X113000000Y-79500000D02*
X141240000Y-79500000D01*
D31*
%TO.N,/VBUS_CHG*%
X152728232Y-112551000D02*
X153779232Y-111500000D01*
X126746000Y-112551000D02*
X152728232Y-112551000D01*
X153779232Y-111500000D02*
X159000000Y-111500000D01*
X124425000Y-110230000D02*
X126746000Y-112551000D01*
X159000000Y-111500000D02*
X159050000Y-111450000D01*
X159050000Y-111450000D02*
X159050000Y-108640000D01*
X159050000Y-108640000D02*
X159249000Y-108839000D01*
X159630346Y-109291000D02*
X162719654Y-109291000D01*
X162719654Y-109291000D02*
X163300000Y-108710654D01*
X159249000Y-108839000D02*
X159249000Y-108909654D01*
X159249000Y-108909654D02*
X159630346Y-109291000D01*
X163300000Y-108710654D02*
X163300000Y-108640000D01*
%TO.N,Net-(J2-CC2)*%
X169071000Y-108361074D02*
X165811074Y-111621000D01*
%TO.N,Net-(J2-CC1)*%
X161144026Y-106901000D02*
X159900000Y-108145026D01*
X159900000Y-108145026D02*
X159900000Y-108640000D01*
D32*
%TO.N,GND*%
X165500000Y-110000000D02*
X165500000Y-110120000D01*
D30*
%TO.N,/BAT_18650*%
X160000000Y-104500000D02*
X152500000Y-112000000D01*
D32*
%TO.N,Net-(U2-~{STDBY})*%
X152499998Y-110500000D02*
X156500000Y-106499998D01*
D31*
%TO.N,Net-(J2-CC1)*%
X160056026Y-108489000D02*
X159900000Y-108645026D01*
%TO.N,Net-(J2-CC2)*%
X169071000Y-105130660D02*
X169071000Y-108361074D01*
%TO.N,/VBUS_CHG*%
X163300000Y-108640000D02*
X163300000Y-108569346D01*
X159050000Y-108450000D02*
X159050000Y-108640000D01*
%TO.N,Net-(J2-CC2)*%
X162450000Y-110560654D02*
X162450000Y-109990000D01*
%TO.N,/VBUS_CHG*%
X163300000Y-109990000D02*
X163300000Y-108890000D01*
%TO.N,Net-(J2-CC2)*%
X163510346Y-111621000D02*
X162450000Y-110560654D01*
X165811074Y-111621000D02*
X163510346Y-111621000D01*
%TO.N,Net-(J2-CC1)*%
X167480000Y-105500000D02*
X166079000Y-106901000D01*
X166079000Y-106901000D02*
X161144026Y-106901000D01*
%TO.N,Net-(J2-CC2)*%
X160980000Y-105500000D02*
X161980000Y-106500000D01*
X167160660Y-104879000D02*
X168819340Y-104879000D01*
X161980000Y-106500000D02*
X165539660Y-106500000D01*
X168819340Y-104879000D02*
X169071000Y-105130660D01*
X165539660Y-106500000D02*
X167160660Y-104879000D01*
D32*
%TO.N,+3V3*%
X161580000Y-84500000D02*
X162500000Y-84500000D01*
X146362190Y-84500000D02*
X161890000Y-84500000D01*
X123540000Y-89000000D02*
X123540000Y-92500000D01*
X123540000Y-92500000D02*
X123540000Y-97000000D01*
X146049000Y-84813190D02*
X146362190Y-84500000D01*
X163000000Y-84000000D02*
X166000000Y-84000000D01*
X167500000Y-101890000D02*
X164500000Y-104890000D01*
X143740000Y-87080000D02*
X146049000Y-87080000D01*
X123580000Y-85000000D02*
X123580000Y-88960000D01*
X161890000Y-84500000D02*
X164500000Y-87110000D01*
X123580000Y-88960000D02*
X123540000Y-89000000D01*
X166000000Y-84000000D02*
X167500000Y-85500000D01*
X123540000Y-92500000D02*
X123540000Y-93000000D01*
X142296000Y-85636000D02*
X123906001Y-85636000D01*
X143740000Y-87080000D02*
X142296000Y-85636000D01*
X146049000Y-87080000D02*
X146049000Y-84813190D01*
X123580000Y-85309999D02*
X123580000Y-85000000D01*
X123906001Y-85636000D02*
X123580000Y-85309999D01*
X167500000Y-85500000D02*
X167500000Y-101890000D01*
X162500000Y-84500000D02*
X163000000Y-84000000D01*
D31*
%TO.N,GND*%
X124460000Y-108960000D02*
X124500000Y-109000000D01*
X124425000Y-108960000D02*
X124460000Y-108960000D01*
D32*
X141000000Y-108485000D02*
X141000000Y-108500000D01*
D31*
X124425000Y-106420000D02*
X124425000Y-106425000D01*
D32*
X135490000Y-105500000D02*
X135500000Y-105500000D01*
X168500000Y-105500000D02*
X168471000Y-105500000D01*
X145000000Y-108485000D02*
X145000000Y-108500000D01*
X124540000Y-85000000D02*
X124500000Y-85000000D01*
D31*
X135050000Y-109500000D02*
X135000000Y-109500000D01*
X124425000Y-106425000D02*
X124500000Y-106500000D01*
D30*
%TO.N,+5V*%
X147000000Y-102500000D02*
X140662472Y-102500000D01*
X147000000Y-102500000D02*
X150000000Y-99500000D01*
X111500000Y-101000000D02*
X116500000Y-101000000D01*
X116500000Y-101000000D02*
X123540000Y-101000000D01*
X136742472Y-106420000D02*
X129375000Y-106420000D01*
X140662472Y-102500000D02*
X136742472Y-106420000D01*
X116500000Y-101000000D02*
X116500000Y-103600000D01*
X150000000Y-99500000D02*
X152000000Y-99500000D01*
%TO.N,/BAT_18650*%
X152500000Y-112000000D02*
X137000000Y-112000000D01*
X158500000Y-99500000D02*
X160000000Y-101000000D01*
X160000000Y-101000000D02*
X160000000Y-104500000D01*
X136950000Y-109500000D02*
X136950000Y-111950000D01*
X137000000Y-112000000D02*
X130500000Y-112000000D01*
X153000000Y-96500000D02*
X156000000Y-99500000D01*
X136950000Y-111950000D02*
X137000000Y-112000000D01*
X153000000Y-91000000D02*
X153000000Y-96500000D01*
X130500000Y-112000000D02*
X129375000Y-110875000D01*
X129375000Y-110875000D02*
X129375000Y-110230000D01*
X156000000Y-99500000D02*
X158500000Y-99500000D01*
D32*
%TO.N,Net-(D1-A)*%
X143757500Y-104500000D02*
X141000000Y-107257500D01*
X141000000Y-107257500D02*
X141000000Y-107515000D01*
X151480000Y-104500000D02*
X143757500Y-104500000D01*
%TO.N,Net-(D2-A)*%
X154485000Y-107515000D02*
X145000000Y-107515000D01*
X155480000Y-104500000D02*
X155480000Y-106520000D01*
X155480000Y-106520000D02*
X154485000Y-107515000D01*
%TO.N,/DISP_RES*%
X146951000Y-95273380D02*
X146951000Y-85451000D01*
X161000000Y-88637810D02*
X161000000Y-93770000D01*
X157813190Y-85451000D02*
X161000000Y-88637810D01*
X146951000Y-85451000D02*
X157813190Y-85451000D01*
X144984380Y-97240000D02*
X146951000Y-95273380D01*
X143740000Y-97240000D02*
X144984380Y-97240000D01*
X161000000Y-93770000D02*
X164500000Y-97270000D01*
%TO.N,/SPI_CLK*%
X166500000Y-91500000D02*
X165810000Y-92190000D01*
X165810000Y-92190000D02*
X164500000Y-92190000D01*
X165786000Y-88286000D02*
X166500000Y-89000000D01*
X161286000Y-88286000D02*
X165786000Y-88286000D01*
X166500000Y-89000000D02*
X166500000Y-91500000D01*
X146500000Y-94700000D02*
X146500000Y-85000000D01*
X158000000Y-85000000D02*
X161286000Y-88286000D01*
X143740000Y-94700000D02*
X146500000Y-94700000D01*
X143740000Y-94260000D02*
X143740000Y-94700000D01*
X146500000Y-85000000D02*
X158000000Y-85000000D01*
%TO.N,/SPI_MOSI*%
X127500000Y-101500000D02*
X126500000Y-100500000D01*
X148304000Y-95833810D02*
X142637810Y-101500000D01*
X127375000Y-90625000D02*
X142735000Y-90625000D01*
X167049000Y-101703190D02*
X165226190Y-103526000D01*
X164770000Y-95000000D02*
X167049000Y-95000000D01*
X165226190Y-103526000D02*
X164012884Y-103526000D01*
X159500000Y-89051240D02*
X157252760Y-86804000D01*
X142735000Y-90625000D02*
X143740000Y-89620000D01*
X164500000Y-94730000D02*
X164770000Y-95000000D01*
X157252760Y-86804000D02*
X148304000Y-86804000D01*
X148304000Y-86804000D02*
X148304000Y-95833810D01*
X164012884Y-103526000D02*
X159500000Y-99013116D01*
X159500000Y-99013116D02*
X159500000Y-89051240D01*
X126500000Y-100500000D02*
X126500000Y-91500000D01*
X167049000Y-95000000D02*
X167049000Y-101703190D01*
X126500000Y-91500000D02*
X127375000Y-90625000D01*
X142637810Y-101500000D02*
X127500000Y-101500000D01*
%TO.N,/DISP_CS*%
X128534715Y-98696000D02*
X144804000Y-98696000D01*
X160000000Y-97850000D02*
X164500000Y-102350000D01*
X144804000Y-98696000D02*
X147853000Y-95647000D01*
X157439570Y-86353000D02*
X160000000Y-88913430D01*
X128500000Y-94700000D02*
X127495000Y-95705000D01*
X147853000Y-86353000D02*
X157439570Y-86353000D01*
X127495000Y-97656285D02*
X128534715Y-98696000D01*
X127495000Y-95705000D02*
X127495000Y-97656285D01*
X160000000Y-88913430D02*
X160000000Y-97850000D01*
X147853000Y-95647000D02*
X147853000Y-86353000D01*
%TO.N,/DISP_DC*%
X160500000Y-88775620D02*
X160500000Y-95810000D01*
X160500000Y-95810000D02*
X164500000Y-99810000D01*
X129505000Y-98245000D02*
X144617190Y-98245000D01*
X157626380Y-85902000D02*
X160500000Y-88775620D01*
X147402000Y-95460190D02*
X147402000Y-85902000D01*
X147402000Y-85902000D02*
X157626380Y-85902000D01*
X144617190Y-98245000D02*
X147402000Y-95460190D01*
X128500000Y-97240000D02*
X129505000Y-98245000D01*
%TO.N,Net-(U2-~{CHRG})*%
X133310000Y-107690000D02*
X134000000Y-107000000D01*
X138000000Y-107000000D02*
X141146000Y-103854000D01*
X129375000Y-107690000D02*
X133310000Y-107690000D01*
X141146000Y-103854000D02*
X151854000Y-103854000D01*
X134000000Y-107000000D02*
X138000000Y-107000000D01*
X151854000Y-103854000D02*
X152500000Y-104500000D01*
%TO.N,Net-(U2-~{STDBY})*%
X129375000Y-108960000D02*
X133040000Y-108960000D01*
X134500000Y-107500000D02*
X138000000Y-107500000D01*
X133040000Y-108960000D02*
X134500000Y-107500000D01*
X141000000Y-110500000D02*
X152499998Y-110500000D01*
X156500000Y-106499998D02*
X156500000Y-104500000D01*
X138000000Y-107500000D02*
X141000000Y-110500000D01*
%TO.N,Net-(U2-PROG)*%
X123124000Y-106068678D02*
X124338678Y-104854000D01*
X135864000Y-104854000D02*
X136510000Y-105500000D01*
X123124000Y-107363999D02*
X123124000Y-106068678D01*
X124425000Y-107690000D02*
X123450001Y-107690000D01*
X124338678Y-104854000D02*
X135864000Y-104854000D01*
X123450001Y-107690000D02*
X123124000Y-107363999D01*
%TO.N,/BTN_SHUTTER*%
X128500000Y-82000000D02*
X128000000Y-82000000D01*
%TD*%
M02*
