%TF.GenerationSoftware,KiCad,Pcbnew,9.0.7*%
%TF.CreationDate,2026-04-07T21:21:47-04:00*%
%TF.ProjectId,camara-diy,63616d61-7261-42d6-9469-792e6b696361,rev?*%
%TF.SameCoordinates,Original*%
%TF.FileFunction,Legend,Top*%
%TF.FilePolarity,Positive*%
%FSLAX46Y46*%
G04 Gerber Fmt 4.6, Leading zero omitted, Abs format (unit mm)*
G04 Created by KiCad (PCBNEW 9.0.7) date 2026-04-07 21:21:47*
%MOMM*%
%LPD*%
G01*
G04 APERTURE LIST*
%ADD10C,0.150000*%
%ADD11C,0.120000*%
%ADD12C,0.100000*%
%ADD13C,0.127000*%
%ADD14C,0.200000*%
G04 APERTURE END LIST*
D10*
X160841666Y-106294819D02*
X160841666Y-107009104D01*
X160841666Y-107009104D02*
X160794047Y-107151961D01*
X160794047Y-107151961D02*
X160698809Y-107247200D01*
X160698809Y-107247200D02*
X160555952Y-107294819D01*
X160555952Y-107294819D02*
X160460714Y-107294819D01*
X161270238Y-106390057D02*
X161317857Y-106342438D01*
X161317857Y-106342438D02*
X161413095Y-106294819D01*
X161413095Y-106294819D02*
X161651190Y-106294819D01*
X161651190Y-106294819D02*
X161746428Y-106342438D01*
X161746428Y-106342438D02*
X161794047Y-106390057D01*
X161794047Y-106390057D02*
X161841666Y-106485295D01*
X161841666Y-106485295D02*
X161841666Y-106580533D01*
X161841666Y-106580533D02*
X161794047Y-106723390D01*
X161794047Y-106723390D02*
X161222619Y-107294819D01*
X161222619Y-107294819D02*
X161841666Y-107294819D01*
X144284819Y-108738094D02*
X143284819Y-108738094D01*
X143284819Y-108738094D02*
X143284819Y-108499999D01*
X143284819Y-108499999D02*
X143332438Y-108357142D01*
X143332438Y-108357142D02*
X143427676Y-108261904D01*
X143427676Y-108261904D02*
X143522914Y-108214285D01*
X143522914Y-108214285D02*
X143713390Y-108166666D01*
X143713390Y-108166666D02*
X143856247Y-108166666D01*
X143856247Y-108166666D02*
X144046723Y-108214285D01*
X144046723Y-108214285D02*
X144141961Y-108261904D01*
X144141961Y-108261904D02*
X144237200Y-108357142D01*
X144237200Y-108357142D02*
X144284819Y-108499999D01*
X144284819Y-108499999D02*
X144284819Y-108738094D01*
X143380057Y-107785713D02*
X143332438Y-107738094D01*
X143332438Y-107738094D02*
X143284819Y-107642856D01*
X143284819Y-107642856D02*
X143284819Y-107404761D01*
X143284819Y-107404761D02*
X143332438Y-107309523D01*
X143332438Y-107309523D02*
X143380057Y-107261904D01*
X143380057Y-107261904D02*
X143475295Y-107214285D01*
X143475295Y-107214285D02*
X143570533Y-107214285D01*
X143570533Y-107214285D02*
X143713390Y-107261904D01*
X143713390Y-107261904D02*
X144284819Y-107833332D01*
X144284819Y-107833332D02*
X144284819Y-107214285D01*
X123853333Y-92199580D02*
X123805714Y-92247200D01*
X123805714Y-92247200D02*
X123662857Y-92294819D01*
X123662857Y-92294819D02*
X123567619Y-92294819D01*
X123567619Y-92294819D02*
X123424762Y-92247200D01*
X123424762Y-92247200D02*
X123329524Y-92151961D01*
X123329524Y-92151961D02*
X123281905Y-92056723D01*
X123281905Y-92056723D02*
X123234286Y-91866247D01*
X123234286Y-91866247D02*
X123234286Y-91723390D01*
X123234286Y-91723390D02*
X123281905Y-91532914D01*
X123281905Y-91532914D02*
X123329524Y-91437676D01*
X123329524Y-91437676D02*
X123424762Y-91342438D01*
X123424762Y-91342438D02*
X123567619Y-91294819D01*
X123567619Y-91294819D02*
X123662857Y-91294819D01*
X123662857Y-91294819D02*
X123805714Y-91342438D01*
X123805714Y-91342438D02*
X123853333Y-91390057D01*
X124186667Y-91294819D02*
X124805714Y-91294819D01*
X124805714Y-91294819D02*
X124472381Y-91675771D01*
X124472381Y-91675771D02*
X124615238Y-91675771D01*
X124615238Y-91675771D02*
X124710476Y-91723390D01*
X124710476Y-91723390D02*
X124758095Y-91771009D01*
X124758095Y-91771009D02*
X124805714Y-91866247D01*
X124805714Y-91866247D02*
X124805714Y-92104342D01*
X124805714Y-92104342D02*
X124758095Y-92199580D01*
X124758095Y-92199580D02*
X124710476Y-92247200D01*
X124710476Y-92247200D02*
X124615238Y-92294819D01*
X124615238Y-92294819D02*
X124329524Y-92294819D01*
X124329524Y-92294819D02*
X124234286Y-92247200D01*
X124234286Y-92247200D02*
X124186667Y-92199580D01*
X153666666Y-87554819D02*
X153666666Y-88269104D01*
X153666666Y-88269104D02*
X153619047Y-88411961D01*
X153619047Y-88411961D02*
X153523809Y-88507200D01*
X153523809Y-88507200D02*
X153380952Y-88554819D01*
X153380952Y-88554819D02*
X153285714Y-88554819D01*
X154047619Y-87554819D02*
X154666666Y-87554819D01*
X154666666Y-87554819D02*
X154333333Y-87935771D01*
X154333333Y-87935771D02*
X154476190Y-87935771D01*
X154476190Y-87935771D02*
X154571428Y-87983390D01*
X154571428Y-87983390D02*
X154619047Y-88031009D01*
X154619047Y-88031009D02*
X154666666Y-88126247D01*
X154666666Y-88126247D02*
X154666666Y-88364342D01*
X154666666Y-88364342D02*
X154619047Y-88459580D01*
X154619047Y-88459580D02*
X154571428Y-88507200D01*
X154571428Y-88507200D02*
X154476190Y-88554819D01*
X154476190Y-88554819D02*
X154190476Y-88554819D01*
X154190476Y-88554819D02*
X154095238Y-88507200D01*
X154095238Y-88507200D02*
X154047619Y-88459580D01*
X167833333Y-104954819D02*
X167500000Y-104478628D01*
X167261905Y-104954819D02*
X167261905Y-103954819D01*
X167261905Y-103954819D02*
X167642857Y-103954819D01*
X167642857Y-103954819D02*
X167738095Y-104002438D01*
X167738095Y-104002438D02*
X167785714Y-104050057D01*
X167785714Y-104050057D02*
X167833333Y-104145295D01*
X167833333Y-104145295D02*
X167833333Y-104288152D01*
X167833333Y-104288152D02*
X167785714Y-104383390D01*
X167785714Y-104383390D02*
X167738095Y-104431009D01*
X167738095Y-104431009D02*
X167642857Y-104478628D01*
X167642857Y-104478628D02*
X167261905Y-104478628D01*
X168738095Y-103954819D02*
X168261905Y-103954819D01*
X168261905Y-103954819D02*
X168214286Y-104431009D01*
X168214286Y-104431009D02*
X168261905Y-104383390D01*
X168261905Y-104383390D02*
X168357143Y-104335771D01*
X168357143Y-104335771D02*
X168595238Y-104335771D01*
X168595238Y-104335771D02*
X168690476Y-104383390D01*
X168690476Y-104383390D02*
X168738095Y-104431009D01*
X168738095Y-104431009D02*
X168785714Y-104526247D01*
X168785714Y-104526247D02*
X168785714Y-104764342D01*
X168785714Y-104764342D02*
X168738095Y-104859580D01*
X168738095Y-104859580D02*
X168690476Y-104907200D01*
X168690476Y-104907200D02*
X168595238Y-104954819D01*
X168595238Y-104954819D02*
X168357143Y-104954819D01*
X168357143Y-104954819D02*
X168261905Y-104907200D01*
X168261905Y-104907200D02*
X168214286Y-104859580D01*
X123893333Y-84199580D02*
X123845714Y-84247200D01*
X123845714Y-84247200D02*
X123702857Y-84294819D01*
X123702857Y-84294819D02*
X123607619Y-84294819D01*
X123607619Y-84294819D02*
X123464762Y-84247200D01*
X123464762Y-84247200D02*
X123369524Y-84151961D01*
X123369524Y-84151961D02*
X123321905Y-84056723D01*
X123321905Y-84056723D02*
X123274286Y-83866247D01*
X123274286Y-83866247D02*
X123274286Y-83723390D01*
X123274286Y-83723390D02*
X123321905Y-83532914D01*
X123321905Y-83532914D02*
X123369524Y-83437676D01*
X123369524Y-83437676D02*
X123464762Y-83342438D01*
X123464762Y-83342438D02*
X123607619Y-83294819D01*
X123607619Y-83294819D02*
X123702857Y-83294819D01*
X123702857Y-83294819D02*
X123845714Y-83342438D01*
X123845714Y-83342438D02*
X123893333Y-83390057D01*
X124845714Y-84294819D02*
X124274286Y-84294819D01*
X124560000Y-84294819D02*
X124560000Y-83294819D01*
X124560000Y-83294819D02*
X124464762Y-83437676D01*
X124464762Y-83437676D02*
X124369524Y-83532914D01*
X124369524Y-83532914D02*
X124274286Y-83580533D01*
X123853333Y-88199580D02*
X123805714Y-88247200D01*
X123805714Y-88247200D02*
X123662857Y-88294819D01*
X123662857Y-88294819D02*
X123567619Y-88294819D01*
X123567619Y-88294819D02*
X123424762Y-88247200D01*
X123424762Y-88247200D02*
X123329524Y-88151961D01*
X123329524Y-88151961D02*
X123281905Y-88056723D01*
X123281905Y-88056723D02*
X123234286Y-87866247D01*
X123234286Y-87866247D02*
X123234286Y-87723390D01*
X123234286Y-87723390D02*
X123281905Y-87532914D01*
X123281905Y-87532914D02*
X123329524Y-87437676D01*
X123329524Y-87437676D02*
X123424762Y-87342438D01*
X123424762Y-87342438D02*
X123567619Y-87294819D01*
X123567619Y-87294819D02*
X123662857Y-87294819D01*
X123662857Y-87294819D02*
X123805714Y-87342438D01*
X123805714Y-87342438D02*
X123853333Y-87390057D01*
X124234286Y-87390057D02*
X124281905Y-87342438D01*
X124281905Y-87342438D02*
X124377143Y-87294819D01*
X124377143Y-87294819D02*
X124615238Y-87294819D01*
X124615238Y-87294819D02*
X124710476Y-87342438D01*
X124710476Y-87342438D02*
X124758095Y-87390057D01*
X124758095Y-87390057D02*
X124805714Y-87485295D01*
X124805714Y-87485295D02*
X124805714Y-87580533D01*
X124805714Y-87580533D02*
X124758095Y-87723390D01*
X124758095Y-87723390D02*
X124186667Y-88294819D01*
X124186667Y-88294819D02*
X124805714Y-88294819D01*
X161323333Y-104784819D02*
X160990000Y-104308628D01*
X160751905Y-104784819D02*
X160751905Y-103784819D01*
X160751905Y-103784819D02*
X161132857Y-103784819D01*
X161132857Y-103784819D02*
X161228095Y-103832438D01*
X161228095Y-103832438D02*
X161275714Y-103880057D01*
X161275714Y-103880057D02*
X161323333Y-103975295D01*
X161323333Y-103975295D02*
X161323333Y-104118152D01*
X161323333Y-104118152D02*
X161275714Y-104213390D01*
X161275714Y-104213390D02*
X161228095Y-104261009D01*
X161228095Y-104261009D02*
X161132857Y-104308628D01*
X161132857Y-104308628D02*
X160751905Y-104308628D01*
X162180476Y-104118152D02*
X162180476Y-104784819D01*
X161942381Y-103737200D02*
X161704286Y-104451485D01*
X161704286Y-104451485D02*
X162323333Y-104451485D01*
X118539580Y-104716666D02*
X118587200Y-104764285D01*
X118587200Y-104764285D02*
X118634819Y-104907142D01*
X118634819Y-104907142D02*
X118634819Y-105002380D01*
X118634819Y-105002380D02*
X118587200Y-105145237D01*
X118587200Y-105145237D02*
X118491961Y-105240475D01*
X118491961Y-105240475D02*
X118396723Y-105288094D01*
X118396723Y-105288094D02*
X118206247Y-105335713D01*
X118206247Y-105335713D02*
X118063390Y-105335713D01*
X118063390Y-105335713D02*
X117872914Y-105288094D01*
X117872914Y-105288094D02*
X117777676Y-105240475D01*
X117777676Y-105240475D02*
X117682438Y-105145237D01*
X117682438Y-105145237D02*
X117634819Y-105002380D01*
X117634819Y-105002380D02*
X117634819Y-104907142D01*
X117634819Y-104907142D02*
X117682438Y-104764285D01*
X117682438Y-104764285D02*
X117730057Y-104716666D01*
X117634819Y-103859523D02*
X117634819Y-104049999D01*
X117634819Y-104049999D02*
X117682438Y-104145237D01*
X117682438Y-104145237D02*
X117730057Y-104192856D01*
X117730057Y-104192856D02*
X117872914Y-104288094D01*
X117872914Y-104288094D02*
X118063390Y-104335713D01*
X118063390Y-104335713D02*
X118444342Y-104335713D01*
X118444342Y-104335713D02*
X118539580Y-104288094D01*
X118539580Y-104288094D02*
X118587200Y-104240475D01*
X118587200Y-104240475D02*
X118634819Y-104145237D01*
X118634819Y-104145237D02*
X118634819Y-103954761D01*
X118634819Y-103954761D02*
X118587200Y-103859523D01*
X118587200Y-103859523D02*
X118539580Y-103811904D01*
X118539580Y-103811904D02*
X118444342Y-103764285D01*
X118444342Y-103764285D02*
X118206247Y-103764285D01*
X118206247Y-103764285D02*
X118111009Y-103811904D01*
X118111009Y-103811904D02*
X118063390Y-103859523D01*
X118063390Y-103859523D02*
X118015771Y-103954761D01*
X118015771Y-103954761D02*
X118015771Y-104145237D01*
X118015771Y-104145237D02*
X118063390Y-104240475D01*
X118063390Y-104240475D02*
X118111009Y-104288094D01*
X118111009Y-104288094D02*
X118206247Y-104335713D01*
X140284819Y-108738094D02*
X139284819Y-108738094D01*
X139284819Y-108738094D02*
X139284819Y-108499999D01*
X139284819Y-108499999D02*
X139332438Y-108357142D01*
X139332438Y-108357142D02*
X139427676Y-108261904D01*
X139427676Y-108261904D02*
X139522914Y-108214285D01*
X139522914Y-108214285D02*
X139713390Y-108166666D01*
X139713390Y-108166666D02*
X139856247Y-108166666D01*
X139856247Y-108166666D02*
X140046723Y-108214285D01*
X140046723Y-108214285D02*
X140141961Y-108261904D01*
X140141961Y-108261904D02*
X140237200Y-108357142D01*
X140237200Y-108357142D02*
X140284819Y-108499999D01*
X140284819Y-108499999D02*
X140284819Y-108738094D01*
X140284819Y-107214285D02*
X140284819Y-107785713D01*
X140284819Y-107499999D02*
X139284819Y-107499999D01*
X139284819Y-107499999D02*
X139427676Y-107595237D01*
X139427676Y-107595237D02*
X139522914Y-107690475D01*
X139522914Y-107690475D02*
X139570533Y-107785713D01*
X123853333Y-100199580D02*
X123805714Y-100247200D01*
X123805714Y-100247200D02*
X123662857Y-100294819D01*
X123662857Y-100294819D02*
X123567619Y-100294819D01*
X123567619Y-100294819D02*
X123424762Y-100247200D01*
X123424762Y-100247200D02*
X123329524Y-100151961D01*
X123329524Y-100151961D02*
X123281905Y-100056723D01*
X123281905Y-100056723D02*
X123234286Y-99866247D01*
X123234286Y-99866247D02*
X123234286Y-99723390D01*
X123234286Y-99723390D02*
X123281905Y-99532914D01*
X123281905Y-99532914D02*
X123329524Y-99437676D01*
X123329524Y-99437676D02*
X123424762Y-99342438D01*
X123424762Y-99342438D02*
X123567619Y-99294819D01*
X123567619Y-99294819D02*
X123662857Y-99294819D01*
X123662857Y-99294819D02*
X123805714Y-99342438D01*
X123805714Y-99342438D02*
X123853333Y-99390057D01*
X124758095Y-99294819D02*
X124281905Y-99294819D01*
X124281905Y-99294819D02*
X124234286Y-99771009D01*
X124234286Y-99771009D02*
X124281905Y-99723390D01*
X124281905Y-99723390D02*
X124377143Y-99675771D01*
X124377143Y-99675771D02*
X124615238Y-99675771D01*
X124615238Y-99675771D02*
X124710476Y-99723390D01*
X124710476Y-99723390D02*
X124758095Y-99771009D01*
X124758095Y-99771009D02*
X124805714Y-99866247D01*
X124805714Y-99866247D02*
X124805714Y-100104342D01*
X124805714Y-100104342D02*
X124758095Y-100199580D01*
X124758095Y-100199580D02*
X124710476Y-100247200D01*
X124710476Y-100247200D02*
X124615238Y-100294819D01*
X124615238Y-100294819D02*
X124377143Y-100294819D01*
X124377143Y-100294819D02*
X124281905Y-100247200D01*
X124281905Y-100247200D02*
X124234286Y-100199580D01*
X153261905Y-97454819D02*
X153261905Y-96454819D01*
X153261905Y-96454819D02*
X153500000Y-96454819D01*
X153500000Y-96454819D02*
X153642857Y-96502438D01*
X153642857Y-96502438D02*
X153738095Y-96597676D01*
X153738095Y-96597676D02*
X153785714Y-96692914D01*
X153785714Y-96692914D02*
X153833333Y-96883390D01*
X153833333Y-96883390D02*
X153833333Y-97026247D01*
X153833333Y-97026247D02*
X153785714Y-97216723D01*
X153785714Y-97216723D02*
X153738095Y-97311961D01*
X153738095Y-97311961D02*
X153642857Y-97407200D01*
X153642857Y-97407200D02*
X153500000Y-97454819D01*
X153500000Y-97454819D02*
X153261905Y-97454819D01*
X154166667Y-96454819D02*
X154785714Y-96454819D01*
X154785714Y-96454819D02*
X154452381Y-96835771D01*
X154452381Y-96835771D02*
X154595238Y-96835771D01*
X154595238Y-96835771D02*
X154690476Y-96883390D01*
X154690476Y-96883390D02*
X154738095Y-96931009D01*
X154738095Y-96931009D02*
X154785714Y-97026247D01*
X154785714Y-97026247D02*
X154785714Y-97264342D01*
X154785714Y-97264342D02*
X154738095Y-97359580D01*
X154738095Y-97359580D02*
X154690476Y-97407200D01*
X154690476Y-97407200D02*
X154595238Y-97454819D01*
X154595238Y-97454819D02*
X154309524Y-97454819D01*
X154309524Y-97454819D02*
X154214286Y-97407200D01*
X154214286Y-97407200D02*
X154166667Y-97359580D01*
X135833333Y-111539580D02*
X135785714Y-111587200D01*
X135785714Y-111587200D02*
X135642857Y-111634819D01*
X135642857Y-111634819D02*
X135547619Y-111634819D01*
X135547619Y-111634819D02*
X135404762Y-111587200D01*
X135404762Y-111587200D02*
X135309524Y-111491961D01*
X135309524Y-111491961D02*
X135261905Y-111396723D01*
X135261905Y-111396723D02*
X135214286Y-111206247D01*
X135214286Y-111206247D02*
X135214286Y-111063390D01*
X135214286Y-111063390D02*
X135261905Y-110872914D01*
X135261905Y-110872914D02*
X135309524Y-110777676D01*
X135309524Y-110777676D02*
X135404762Y-110682438D01*
X135404762Y-110682438D02*
X135547619Y-110634819D01*
X135547619Y-110634819D02*
X135642857Y-110634819D01*
X135642857Y-110634819D02*
X135785714Y-110682438D01*
X135785714Y-110682438D02*
X135833333Y-110730057D01*
X136166667Y-110634819D02*
X136833333Y-110634819D01*
X136833333Y-110634819D02*
X136404762Y-111634819D01*
X155823333Y-103784819D02*
X155490000Y-103308628D01*
X155251905Y-103784819D02*
X155251905Y-102784819D01*
X155251905Y-102784819D02*
X155632857Y-102784819D01*
X155632857Y-102784819D02*
X155728095Y-102832438D01*
X155728095Y-102832438D02*
X155775714Y-102880057D01*
X155775714Y-102880057D02*
X155823333Y-102975295D01*
X155823333Y-102975295D02*
X155823333Y-103118152D01*
X155823333Y-103118152D02*
X155775714Y-103213390D01*
X155775714Y-103213390D02*
X155728095Y-103261009D01*
X155728095Y-103261009D02*
X155632857Y-103308628D01*
X155632857Y-103308628D02*
X155251905Y-103308628D01*
X156204286Y-102880057D02*
X156251905Y-102832438D01*
X156251905Y-102832438D02*
X156347143Y-102784819D01*
X156347143Y-102784819D02*
X156585238Y-102784819D01*
X156585238Y-102784819D02*
X156680476Y-102832438D01*
X156680476Y-102832438D02*
X156728095Y-102880057D01*
X156728095Y-102880057D02*
X156775714Y-102975295D01*
X156775714Y-102975295D02*
X156775714Y-103070533D01*
X156775714Y-103070533D02*
X156728095Y-103213390D01*
X156728095Y-103213390D02*
X156156667Y-103784819D01*
X156156667Y-103784819D02*
X156775714Y-103784819D01*
X135833333Y-104784819D02*
X135500000Y-104308628D01*
X135261905Y-104784819D02*
X135261905Y-103784819D01*
X135261905Y-103784819D02*
X135642857Y-103784819D01*
X135642857Y-103784819D02*
X135738095Y-103832438D01*
X135738095Y-103832438D02*
X135785714Y-103880057D01*
X135785714Y-103880057D02*
X135833333Y-103975295D01*
X135833333Y-103975295D02*
X135833333Y-104118152D01*
X135833333Y-104118152D02*
X135785714Y-104213390D01*
X135785714Y-104213390D02*
X135738095Y-104261009D01*
X135738095Y-104261009D02*
X135642857Y-104308628D01*
X135642857Y-104308628D02*
X135261905Y-104308628D01*
X136166667Y-103784819D02*
X136785714Y-103784819D01*
X136785714Y-103784819D02*
X136452381Y-104165771D01*
X136452381Y-104165771D02*
X136595238Y-104165771D01*
X136595238Y-104165771D02*
X136690476Y-104213390D01*
X136690476Y-104213390D02*
X136738095Y-104261009D01*
X136738095Y-104261009D02*
X136785714Y-104356247D01*
X136785714Y-104356247D02*
X136785714Y-104594342D01*
X136785714Y-104594342D02*
X136738095Y-104689580D01*
X136738095Y-104689580D02*
X136690476Y-104737200D01*
X136690476Y-104737200D02*
X136595238Y-104784819D01*
X136595238Y-104784819D02*
X136309524Y-104784819D01*
X136309524Y-104784819D02*
X136214286Y-104737200D01*
X136214286Y-104737200D02*
X136166667Y-104689580D01*
X126138095Y-104379819D02*
X126138095Y-105189342D01*
X126138095Y-105189342D02*
X126185714Y-105284580D01*
X126185714Y-105284580D02*
X126233333Y-105332200D01*
X126233333Y-105332200D02*
X126328571Y-105379819D01*
X126328571Y-105379819D02*
X126519047Y-105379819D01*
X126519047Y-105379819D02*
X126614285Y-105332200D01*
X126614285Y-105332200D02*
X126661904Y-105284580D01*
X126661904Y-105284580D02*
X126709523Y-105189342D01*
X126709523Y-105189342D02*
X126709523Y-104379819D01*
X127138095Y-104475057D02*
X127185714Y-104427438D01*
X127185714Y-104427438D02*
X127280952Y-104379819D01*
X127280952Y-104379819D02*
X127519047Y-104379819D01*
X127519047Y-104379819D02*
X127614285Y-104427438D01*
X127614285Y-104427438D02*
X127661904Y-104475057D01*
X127661904Y-104475057D02*
X127709523Y-104570295D01*
X127709523Y-104570295D02*
X127709523Y-104665533D01*
X127709523Y-104665533D02*
X127661904Y-104808390D01*
X127661904Y-104808390D02*
X127090476Y-105379819D01*
X127090476Y-105379819D02*
X127709523Y-105379819D01*
X151823333Y-103784819D02*
X151490000Y-103308628D01*
X151251905Y-103784819D02*
X151251905Y-102784819D01*
X151251905Y-102784819D02*
X151632857Y-102784819D01*
X151632857Y-102784819D02*
X151728095Y-102832438D01*
X151728095Y-102832438D02*
X151775714Y-102880057D01*
X151775714Y-102880057D02*
X151823333Y-102975295D01*
X151823333Y-102975295D02*
X151823333Y-103118152D01*
X151823333Y-103118152D02*
X151775714Y-103213390D01*
X151775714Y-103213390D02*
X151728095Y-103261009D01*
X151728095Y-103261009D02*
X151632857Y-103308628D01*
X151632857Y-103308628D02*
X151251905Y-103308628D01*
X152775714Y-103784819D02*
X152204286Y-103784819D01*
X152490000Y-103784819D02*
X152490000Y-102784819D01*
X152490000Y-102784819D02*
X152394762Y-102927676D01*
X152394762Y-102927676D02*
X152299524Y-103022914D01*
X152299524Y-103022914D02*
X152204286Y-103070533D01*
X123853333Y-96199580D02*
X123805714Y-96247200D01*
X123805714Y-96247200D02*
X123662857Y-96294819D01*
X123662857Y-96294819D02*
X123567619Y-96294819D01*
X123567619Y-96294819D02*
X123424762Y-96247200D01*
X123424762Y-96247200D02*
X123329524Y-96151961D01*
X123329524Y-96151961D02*
X123281905Y-96056723D01*
X123281905Y-96056723D02*
X123234286Y-95866247D01*
X123234286Y-95866247D02*
X123234286Y-95723390D01*
X123234286Y-95723390D02*
X123281905Y-95532914D01*
X123281905Y-95532914D02*
X123329524Y-95437676D01*
X123329524Y-95437676D02*
X123424762Y-95342438D01*
X123424762Y-95342438D02*
X123567619Y-95294819D01*
X123567619Y-95294819D02*
X123662857Y-95294819D01*
X123662857Y-95294819D02*
X123805714Y-95342438D01*
X123805714Y-95342438D02*
X123853333Y-95390057D01*
X124710476Y-95628152D02*
X124710476Y-96294819D01*
X124472381Y-95247200D02*
X124234286Y-95961485D01*
X124234286Y-95961485D02*
X124853333Y-95961485D01*
X135358095Y-89011319D02*
X135358095Y-89820842D01*
X135358095Y-89820842D02*
X135405714Y-89916080D01*
X135405714Y-89916080D02*
X135453333Y-89963700D01*
X135453333Y-89963700D02*
X135548571Y-90011319D01*
X135548571Y-90011319D02*
X135739047Y-90011319D01*
X135739047Y-90011319D02*
X135834285Y-89963700D01*
X135834285Y-89963700D02*
X135881904Y-89916080D01*
X135881904Y-89916080D02*
X135929523Y-89820842D01*
X135929523Y-89820842D02*
X135929523Y-89011319D01*
X136929523Y-90011319D02*
X136358095Y-90011319D01*
X136643809Y-90011319D02*
X136643809Y-89011319D01*
X136643809Y-89011319D02*
X136548571Y-89154176D01*
X136548571Y-89154176D02*
X136453333Y-89249414D01*
X136453333Y-89249414D02*
X136358095Y-89297033D01*
D11*
%TO.C,J2*%
X156580000Y-111040000D02*
X156580000Y-111940000D01*
X156580000Y-114640000D02*
X156580000Y-117370000D01*
X156580000Y-117370000D02*
X165770000Y-117370000D01*
X156700000Y-107960000D02*
X165650000Y-107960000D01*
X165770000Y-111040000D02*
X165770000Y-111940000D01*
X165770000Y-114640000D02*
X165770000Y-117370000D01*
D12*
%TO.C,D2*%
X145050000Y-109090000D02*
G75*
G02*
X144950000Y-109090000I-50000J0D01*
G01*
X144950000Y-109090000D02*
G75*
G02*
X145050000Y-109090000I50000J0D01*
G01*
D11*
%TO.C,C3*%
X123912164Y-92640000D02*
X124127836Y-92640000D01*
X123912164Y-93360000D02*
X124127836Y-93360000D01*
%TO.C,J3*%
X150640000Y-88890000D02*
X150640000Y-90140000D01*
X150940000Y-90500000D02*
X151550000Y-90500000D01*
X150940000Y-91800000D02*
X151550000Y-91800000D01*
X151550000Y-89800000D02*
X151550000Y-93300000D01*
X151550000Y-93300000D02*
X156450000Y-93300000D01*
X151890000Y-88890000D02*
X150640000Y-88890000D01*
X152400000Y-88990000D02*
X152400000Y-89190000D01*
X152700000Y-88990000D02*
X152400000Y-88990000D01*
X152700000Y-89090000D02*
X152400000Y-89090000D01*
X152700000Y-89190000D02*
X152700000Y-88990000D01*
X153500000Y-89190000D02*
X153500000Y-89800000D01*
X153500000Y-89800000D02*
X151550000Y-89800000D01*
X153900000Y-92800000D02*
X154100000Y-92800000D01*
X153900000Y-93300000D02*
X153900000Y-92800000D01*
X154000000Y-93300000D02*
X154000000Y-92800000D01*
X154100000Y-92800000D02*
X154100000Y-93300000D01*
X154500000Y-89800000D02*
X154500000Y-89190000D01*
X156450000Y-89800000D02*
X154500000Y-89800000D01*
X156450000Y-93300000D02*
X156450000Y-89800000D01*
X157060000Y-90500000D02*
X156450000Y-90500000D01*
X157060000Y-91800000D02*
X156450000Y-91800000D01*
X150940000Y-89190000D02*
X157060000Y-89190000D01*
X157060000Y-93910000D01*
X150940000Y-93910000D01*
X150940000Y-89190000D01*
%TO.C,R5*%
X167836359Y-105120000D02*
X168143641Y-105120000D01*
X167836359Y-105880000D02*
X168143641Y-105880000D01*
%TO.C,C1*%
X123952164Y-84640000D02*
X124167836Y-84640000D01*
X123952164Y-85360000D02*
X124167836Y-85360000D01*
%TO.C,C2*%
X123912164Y-88640000D02*
X124127836Y-88640000D01*
X123912164Y-89360000D02*
X124127836Y-89360000D01*
%TO.C,R4*%
X161336359Y-105120000D02*
X161643641Y-105120000D01*
X161336359Y-105880000D02*
X161643641Y-105880000D01*
%TO.C,C6*%
X117235000Y-104288748D02*
X117235000Y-104811252D01*
X115765000Y-104288748D02*
X115765000Y-104811252D01*
D12*
%TO.C,D1*%
X141050000Y-109090000D02*
G75*
G02*
X140950000Y-109090000I-50000J0D01*
G01*
X140950000Y-109090000D02*
G75*
G02*
X141050000Y-109090000I50000J0D01*
G01*
D11*
%TO.C,C5*%
X123912164Y-100640000D02*
X124127836Y-100640000D01*
X123912164Y-101360000D02*
X124127836Y-101360000D01*
%TO.C,D3*%
X150490000Y-97850000D02*
X150490000Y-101150000D01*
X150490000Y-97850000D02*
X156000000Y-97850000D01*
X150490000Y-101150000D02*
X156000000Y-101150000D01*
%TO.C,C7*%
X136261252Y-110235000D02*
X135738748Y-110235000D01*
X136261252Y-108765000D02*
X135738748Y-108765000D01*
%TO.C,R2*%
X155836359Y-104120000D02*
X156143641Y-104120000D01*
X155836359Y-104880000D02*
X156143641Y-104880000D01*
%TO.C,R3*%
X135846359Y-105120000D02*
X136153641Y-105120000D01*
X135846359Y-105880000D02*
X136153641Y-105880000D01*
%TO.C,U2*%
X124840000Y-105765000D02*
X128960000Y-105765000D01*
X124840000Y-105860000D02*
X124840000Y-105765000D01*
X124840000Y-110885000D02*
X124840000Y-110790000D01*
X128960000Y-105765000D02*
X128960000Y-105860000D01*
X128960000Y-110790000D02*
X128960000Y-110885000D01*
X128960000Y-110885000D02*
X124840000Y-110885000D01*
X124300000Y-105855000D02*
X124060000Y-105525000D01*
X124540000Y-105525000D01*
X124300000Y-105855000D01*
G36*
X124300000Y-105855000D02*
G01*
X124060000Y-105525000D01*
X124540000Y-105525000D01*
X124300000Y-105855000D01*
G37*
%TO.C,R1*%
X151836359Y-104120000D02*
X152143641Y-104120000D01*
X151836359Y-104880000D02*
X152143641Y-104880000D01*
%TO.C,C4*%
X123912164Y-96640000D02*
X124127836Y-96640000D01*
X123912164Y-97360000D02*
X124127836Y-97360000D01*
D13*
%TO.C,U1*%
X145010000Y-79079000D02*
X145010000Y-100034000D01*
X127230000Y-100034000D02*
X127230000Y-79079000D01*
X127230000Y-79079000D02*
X145010000Y-79079000D01*
X145010000Y-100034000D02*
X127230000Y-100034000D01*
D14*
X126720000Y-81873000D02*
G75*
G02*
X126520000Y-81873000I-100000J0D01*
G01*
X126520000Y-81873000D02*
G75*
G02*
X126720000Y-81873000I100000J0D01*
G01*
%TD*%
M02*
