%TF.GenerationSoftware,KiCad,Pcbnew,9.0.7*%
%TF.CreationDate,2026-04-07T21:21:47-04:00*%
%TF.ProjectId,camara-diy,63616d61-7261-42d6-9469-792e6b696361,rev?*%
%TF.SameCoordinates,Original*%
%TF.FileFunction,Legend,Bot*%
%TF.FilePolarity,Positive*%
%FSLAX46Y46*%
G04 Gerber Fmt 4.6, Leading zero omitted, Abs format (unit mm)*
G04 Created by KiCad (PCBNEW 9.0.7) date 2026-04-07 21:21:47*
%MOMM*%
%LPD*%
G01*
G04 APERTURE LIST*
%ADD10C,0.150000*%
%ADD11C,0.120000*%
G04 APERTURE END LIST*
D10*
X117083332Y-81907200D02*
X116940475Y-81954819D01*
X116940475Y-81954819D02*
X116702380Y-81954819D01*
X116702380Y-81954819D02*
X116607142Y-81907200D01*
X116607142Y-81907200D02*
X116559523Y-81859580D01*
X116559523Y-81859580D02*
X116511904Y-81764342D01*
X116511904Y-81764342D02*
X116511904Y-81669104D01*
X116511904Y-81669104D02*
X116559523Y-81573866D01*
X116559523Y-81573866D02*
X116607142Y-81526247D01*
X116607142Y-81526247D02*
X116702380Y-81478628D01*
X116702380Y-81478628D02*
X116892856Y-81431009D01*
X116892856Y-81431009D02*
X116988094Y-81383390D01*
X116988094Y-81383390D02*
X117035713Y-81335771D01*
X117035713Y-81335771D02*
X117083332Y-81240533D01*
X117083332Y-81240533D02*
X117083332Y-81145295D01*
X117083332Y-81145295D02*
X117035713Y-81050057D01*
X117035713Y-81050057D02*
X116988094Y-81002438D01*
X116988094Y-81002438D02*
X116892856Y-80954819D01*
X116892856Y-80954819D02*
X116654761Y-80954819D01*
X116654761Y-80954819D02*
X116511904Y-81002438D01*
X116178570Y-80954819D02*
X115940475Y-81954819D01*
X115940475Y-81954819D02*
X115749999Y-81240533D01*
X115749999Y-81240533D02*
X115559523Y-81954819D01*
X115559523Y-81954819D02*
X115321428Y-80954819D01*
X114416666Y-81954819D02*
X114988094Y-81954819D01*
X114702380Y-81954819D02*
X114702380Y-80954819D01*
X114702380Y-80954819D02*
X114797618Y-81097676D01*
X114797618Y-81097676D02*
X114892856Y-81192914D01*
X114892856Y-81192914D02*
X114988094Y-81240533D01*
X164833333Y-84184819D02*
X164833333Y-84899104D01*
X164833333Y-84899104D02*
X164880952Y-85041961D01*
X164880952Y-85041961D02*
X164976190Y-85137200D01*
X164976190Y-85137200D02*
X165119047Y-85184819D01*
X165119047Y-85184819D02*
X165214285Y-85184819D01*
X163833333Y-85184819D02*
X164404761Y-85184819D01*
X164119047Y-85184819D02*
X164119047Y-84184819D01*
X164119047Y-84184819D02*
X164214285Y-84327676D01*
X164214285Y-84327676D02*
X164309523Y-84422914D01*
X164309523Y-84422914D02*
X164404761Y-84470533D01*
X117083332Y-92407200D02*
X116940475Y-92454819D01*
X116940475Y-92454819D02*
X116702380Y-92454819D01*
X116702380Y-92454819D02*
X116607142Y-92407200D01*
X116607142Y-92407200D02*
X116559523Y-92359580D01*
X116559523Y-92359580D02*
X116511904Y-92264342D01*
X116511904Y-92264342D02*
X116511904Y-92169104D01*
X116511904Y-92169104D02*
X116559523Y-92073866D01*
X116559523Y-92073866D02*
X116607142Y-92026247D01*
X116607142Y-92026247D02*
X116702380Y-91978628D01*
X116702380Y-91978628D02*
X116892856Y-91931009D01*
X116892856Y-91931009D02*
X116988094Y-91883390D01*
X116988094Y-91883390D02*
X117035713Y-91835771D01*
X117035713Y-91835771D02*
X117083332Y-91740533D01*
X117083332Y-91740533D02*
X117083332Y-91645295D01*
X117083332Y-91645295D02*
X117035713Y-91550057D01*
X117035713Y-91550057D02*
X116988094Y-91502438D01*
X116988094Y-91502438D02*
X116892856Y-91454819D01*
X116892856Y-91454819D02*
X116654761Y-91454819D01*
X116654761Y-91454819D02*
X116511904Y-91502438D01*
X116178570Y-91454819D02*
X115940475Y-92454819D01*
X115940475Y-92454819D02*
X115749999Y-91740533D01*
X115749999Y-91740533D02*
X115559523Y-92454819D01*
X115559523Y-92454819D02*
X115321428Y-91454819D01*
X114988094Y-91550057D02*
X114940475Y-91502438D01*
X114940475Y-91502438D02*
X114845237Y-91454819D01*
X114845237Y-91454819D02*
X114607142Y-91454819D01*
X114607142Y-91454819D02*
X114511904Y-91502438D01*
X114511904Y-91502438D02*
X114464285Y-91550057D01*
X114464285Y-91550057D02*
X114416666Y-91645295D01*
X114416666Y-91645295D02*
X114416666Y-91740533D01*
X114416666Y-91740533D02*
X114464285Y-91883390D01*
X114464285Y-91883390D02*
X115035713Y-92454819D01*
X115035713Y-92454819D02*
X114416666Y-92454819D01*
D11*
%TO.C,SW1*%
X119250000Y-85000000D02*
X119250000Y-86500000D01*
X118000000Y-89000000D02*
X113500000Y-89000000D01*
X113500000Y-82500000D02*
X118000000Y-82500000D01*
X112250000Y-86500000D02*
X112250000Y-85000000D01*
%TO.C,J1*%
X165880000Y-85730000D02*
X164500000Y-85730000D01*
X165880000Y-87110000D02*
X165880000Y-85730000D01*
X165880000Y-88380000D02*
X165880000Y-106270000D01*
X165880000Y-88380000D02*
X163120000Y-88380000D01*
X165880000Y-106270000D02*
X163120000Y-106270000D01*
X163120000Y-88380000D02*
X163120000Y-106270000D01*
%TO.C,SW2*%
X119250000Y-95500000D02*
X119250000Y-97000000D01*
X118000000Y-99500000D02*
X113500000Y-99500000D01*
X113500000Y-93000000D02*
X118000000Y-93000000D01*
X112250000Y-97000000D02*
X112250000Y-95500000D01*
%TD*%
M02*
