%TF.GenerationSoftware,KiCad,Pcbnew,9.0.7*%
%TF.CreationDate,2026-04-07T21:21:47-04:00*%
%TF.ProjectId,camara-diy,63616d61-7261-42d6-9469-792e6b696361,rev?*%
%TF.SameCoordinates,Original*%
%TF.FileFunction,Soldermask,Top*%
%TF.FilePolarity,Negative*%
%FSLAX46Y46*%
G04 Gerber Fmt 4.6, Leading zero omitted, Abs format (unit mm)*
G04 Created by KiCad (PCBNEW 9.0.7) date 2026-04-07 21:21:47*
%MOMM*%
%LPD*%
G01*
G04 APERTURE LIST*
G04 Aperture macros list*
%AMRoundRect*
0 Rectangle with rounded corners*
0 $1 Rounding radius*
0 $2 $3 $4 $5 $6 $7 $8 $9 X,Y pos of 4 corners*
0 Add a 4 corners polygon primitive as box body*
4,1,4,$2,$3,$4,$5,$6,$7,$8,$9,$2,$3,0*
0 Add four circle primitives for the rounded corners*
1,1,$1+$1,$2,$3*
1,1,$1+$1,$4,$5*
1,1,$1+$1,$6,$7*
1,1,$1+$1,$8,$9*
0 Add four rect primitives between the rounded corners*
20,1,$1+$1,$2,$3,$4,$5,0*
20,1,$1+$1,$4,$5,$6,$7,0*
20,1,$1+$1,$6,$7,$8,$9,0*
20,1,$1+$1,$8,$9,$2,$3,0*%
G04 Aperture macros list end*
%ADD10C,3.200000*%
%ADD11C,0.700000*%
%ADD12O,0.900000X2.400000*%
%ADD13O,0.900000X1.700000*%
%ADD14RoundRect,0.147500X0.172500X-0.147500X0.172500X0.147500X-0.172500X0.147500X-0.172500X-0.147500X0*%
%ADD15RoundRect,0.140000X-0.140000X-0.170000X0.140000X-0.170000X0.140000X0.170000X-0.140000X0.170000X0*%
%ADD16RoundRect,0.250000X-0.350000X-0.625000X0.350000X-0.625000X0.350000X0.625000X-0.350000X0.625000X0*%
%ADD17O,1.200000X1.750000*%
%ADD18RoundRect,0.135000X-0.135000X-0.185000X0.135000X-0.185000X0.135000X0.185000X-0.135000X0.185000X0*%
%ADD19RoundRect,0.250000X-0.475000X0.250000X-0.475000X-0.250000X0.475000X-0.250000X0.475000X0.250000X0*%
%ADD20RoundRect,0.250000X-1.000000X-0.650000X1.000000X-0.650000X1.000000X0.650000X-1.000000X0.650000X0*%
%ADD21RoundRect,0.250000X0.250000X0.475000X-0.250000X0.475000X-0.250000X-0.475000X0.250000X-0.475000X0*%
%ADD22RoundRect,0.150000X-0.825000X-0.150000X0.825000X-0.150000X0.825000X0.150000X-0.825000X0.150000X0*%
%ADD23R,2.410000X3.300000*%
%ADD24C,1.562000*%
%ADD25RoundRect,0.102000X-0.679000X-0.679000X0.679000X-0.679000X0.679000X0.679000X-0.679000X0.679000X0*%
%ADD26C,2.000000*%
%ADD27R,1.700000X1.700000*%
%ADD28C,1.700000*%
G04 APERTURE END LIST*
D10*
%TO.C,REF\u002A\u002A*%
X113000000Y-113000000D03*
%TD*%
%TO.C,REF\u002A\u002A*%
X166000000Y-81000000D03*
%TD*%
D11*
%TO.C,J2*%
X158200000Y-108640000D03*
X159050000Y-108640000D03*
X159900000Y-108640000D03*
X160750000Y-108640000D03*
X161600000Y-108640000D03*
X162450000Y-108640000D03*
X163300000Y-108640000D03*
X164150000Y-108640000D03*
X164150000Y-109990000D03*
X163300000Y-109990000D03*
X162450000Y-109990000D03*
X161600000Y-109990000D03*
X160750000Y-109990000D03*
X159900000Y-109990000D03*
X159050000Y-109990000D03*
X158200000Y-109990000D03*
D12*
X156850000Y-109620000D03*
D13*
X156850000Y-113000000D03*
D12*
X165500000Y-109620000D03*
D13*
X165500000Y-113000000D03*
%TD*%
D14*
%TO.C,D2*%
X145000000Y-108485000D03*
X145000000Y-107515000D03*
%TD*%
D15*
%TO.C,C3*%
X123540000Y-93000000D03*
X124500000Y-93000000D03*
%TD*%
D16*
%TO.C,J3*%
X153000000Y-91000000D03*
D17*
X155000000Y-91000000D03*
%TD*%
D18*
%TO.C,R5*%
X167480000Y-105500000D03*
X168500000Y-105500000D03*
%TD*%
D15*
%TO.C,C1*%
X123580000Y-85000000D03*
X124540000Y-85000000D03*
%TD*%
%TO.C,C2*%
X123540000Y-89000000D03*
X124500000Y-89000000D03*
%TD*%
D18*
%TO.C,R4*%
X160980000Y-105500000D03*
X162000000Y-105500000D03*
%TD*%
D19*
%TO.C,C6*%
X116500000Y-103600000D03*
X116500000Y-105500000D03*
%TD*%
D14*
%TO.C,D1*%
X141000000Y-108485000D03*
X141000000Y-107515000D03*
%TD*%
D15*
%TO.C,C5*%
X123540000Y-101000000D03*
X124500000Y-101000000D03*
%TD*%
D20*
%TO.C,D3*%
X152000000Y-99500000D03*
X156000000Y-99500000D03*
%TD*%
D21*
%TO.C,C7*%
X136950000Y-109500000D03*
X135050000Y-109500000D03*
%TD*%
D18*
%TO.C,R2*%
X155480000Y-104500000D03*
X156500000Y-104500000D03*
%TD*%
%TO.C,R3*%
X135490000Y-105500000D03*
X136510000Y-105500000D03*
%TD*%
D22*
%TO.C,U2*%
X124425000Y-106420000D03*
X124425000Y-107690000D03*
X124425000Y-108960000D03*
X124425000Y-110230000D03*
X129375000Y-110230000D03*
X129375000Y-108960000D03*
X129375000Y-107690000D03*
X129375000Y-106420000D03*
D23*
X126900000Y-108325000D03*
%TD*%
D18*
%TO.C,R1*%
X151480000Y-104500000D03*
X152500000Y-104500000D03*
%TD*%
D15*
%TO.C,C4*%
X123540000Y-97000000D03*
X124500000Y-97000000D03*
%TD*%
D24*
%TO.C,U1*%
X143740000Y-89620000D03*
X143740000Y-92160000D03*
X143740000Y-94700000D03*
X143740000Y-97240000D03*
X143740000Y-87080000D03*
X143740000Y-84540000D03*
X143740000Y-82000000D03*
X128500000Y-89620000D03*
X128500000Y-92160000D03*
X128500000Y-94700000D03*
X128500000Y-97240000D03*
X128500000Y-87080000D03*
X128500000Y-84540000D03*
D25*
X128500000Y-82000000D03*
%TD*%
D26*
%TO.C,SW1*%
X119000000Y-83500000D03*
X112500000Y-83500000D03*
X119000000Y-88000000D03*
X112500000Y-88000000D03*
%TD*%
D27*
%TO.C,J1*%
X164500000Y-87110000D03*
D28*
X164500000Y-89650000D03*
X164500000Y-92190000D03*
X164500000Y-94730000D03*
X164500000Y-97270000D03*
X164500000Y-99810000D03*
X164500000Y-102350000D03*
X164500000Y-104890000D03*
%TD*%
D26*
%TO.C,SW2*%
X119000000Y-94000000D03*
X112500000Y-94000000D03*
X119000000Y-98500000D03*
X112500000Y-98500000D03*
%TD*%
M02*
