M48
; DRILL file {KiCad 9.0.7} date 2026-04-07T21:21:57-0400
; FORMAT={-:-/ absolute / metric / decimal}
; #@! TF.CreationDate,2026-04-07T21:21:57-04:00
; #@! TF.GenerationSoftware,Kicad,Pcbnew,9.0.7
; #@! TF.FileFunction,Plated,1,2,PTH
FMAT,2
METRIC
; #@! TA.AperFunction,Plated,PTH,ComponentDrill
T1C0.200
; #@! TA.AperFunction,Plated,PTH,ViaDrill
T2C0.300
; #@! TA.AperFunction,Plated,PTH,ComponentDrill
T3C0.400
; #@! TA.AperFunction,Plated,PTH,ComponentDrill
T4C0.600
; #@! TA.AperFunction,Plated,PTH,ComponentDrill
T5C0.750
; #@! TA.AperFunction,Plated,PTH,ComponentDrill
T6C0.850
; #@! TA.AperFunction,Plated,PTH,ComponentDrill
T7C1.000
; #@! TA.AperFunction,Plated,PTH,ComponentDrill
T8C1.100
%
G90
G05
T1
X126.2Y-107.125
X126.2Y-108.325
X126.2Y-109.525
X127.6Y-107.125
X127.6Y-108.325
X127.6Y-109.525
T2
X116.5Y-105.5
X124.5Y-85.0
X124.5Y-89.0
X124.5Y-93.0
X124.5Y-97.0
X124.5Y-101.0
X124.5Y-106.5
X124.5Y-109.0
X135.0Y-109.5
X135.5Y-105.5
X141.0Y-108.5
X145.0Y-108.5
X162.0Y-105.5
X168.471Y-105.5
T3
X158.2Y-108.64
X158.2Y-109.99
X159.05Y-108.64
X159.05Y-109.99
X159.9Y-108.64
X159.9Y-109.99
X160.75Y-108.64
X160.75Y-109.99
X161.6Y-108.64
X161.6Y-109.99
X162.45Y-108.64
X162.45Y-109.99
X163.3Y-108.64
X163.3Y-109.99
X164.15Y-108.64
X164.15Y-109.99
T5
X153.0Y-91.0
X155.0Y-91.0
T6
X128.5Y-82.0
X128.5Y-84.54
X128.5Y-87.08
X128.5Y-89.62
X128.5Y-92.16
X128.5Y-94.7
X128.5Y-97.24
X143.74Y-82.0
X143.74Y-84.54
X143.74Y-87.08
X143.74Y-89.62
X143.74Y-92.16
X143.74Y-94.7
X143.74Y-97.24
T7
X164.5Y-87.11
X164.5Y-89.65
X164.5Y-92.19
X164.5Y-94.73
X164.5Y-97.27
X164.5Y-99.81
X164.5Y-102.35
X164.5Y-104.89
T8
X112.5Y-83.5
X112.5Y-88.0
X112.5Y-94.0
X112.5Y-98.5
X119.0Y-83.5
X119.0Y-88.0
X119.0Y-94.0
X119.0Y-98.5
T4
G00X156.85Y-108.87
M15
G01X156.85Y-110.37
M16
G05
G00X156.85Y-112.6
M15
G01X156.85Y-113.4
M16
G05
G00X165.5Y-108.87
M15
G01X165.5Y-110.37
M16
G05
G00X165.5Y-112.6
M15
G01X165.5Y-113.4
M16
G05
M30
