%TF.GenerationSoftware,KiCad,Pcbnew,9.0.7*%
%TF.CreationDate,2026-04-07T21:21:47-04:00*%
%TF.ProjectId,camara-diy,63616d61-7261-42d6-9469-792e6b696361,rev?*%
%TF.SameCoordinates,Original*%
%TF.FileFunction,Copper,L2,Bot*%
%TF.FilePolarity,Positive*%
%FSLAX46Y46*%
G04 Gerber Fmt 4.6, Leading zero omitted, Abs format (unit mm)*
G04 Created by KiCad (PCBNEW 9.0.7) date 2026-04-07 21:21:47*
%MOMM*%
%LPD*%
G01*
G04 APERTURE LIST*
G04 Aperture macros list*
%AMRoundRect*
0 Rectangle with rounded corners*
0 $1 Rounding radius*
0 $2 $3 $4 $5 $6 $7 $8 $9 X,Y pos of 4 corners*
0 Add a 4 corners polygon primitive as box body*
4,1,4,$2,$3,$4,$5,$6,$7,$8,$9,$2,$3,0*
0 Add four circle primitives for the rounded corners*
1,1,$1+$1,$2,$3*
1,1,$1+$1,$4,$5*
1,1,$1+$1,$6,$7*
1,1,$1+$1,$8,$9*
0 Add four rect primitives between the rounded corners*
20,1,$1+$1,$2,$3,$4,$5,0*
20,1,$1+$1,$4,$5,$6,$7,0*
20,1,$1+$1,$6,$7,$8,$9,0*
20,1,$1+$1,$8,$9,$2,$3,0*%
G04 Aperture macros list end*
%TA.AperFunction,ComponentPad*%
%ADD10C,0.700000*%
%TD*%
%TA.AperFunction,ComponentPad*%
%ADD11O,0.900000X2.400000*%
%TD*%
%TA.AperFunction,ComponentPad*%
%ADD12O,0.900000X1.700000*%
%TD*%
%TA.AperFunction,ComponentPad*%
%ADD13RoundRect,0.250000X-0.350000X-0.625000X0.350000X-0.625000X0.350000X0.625000X-0.350000X0.625000X0*%
%TD*%
%TA.AperFunction,ComponentPad*%
%ADD14O,1.200000X1.750000*%
%TD*%
%TA.AperFunction,HeatsinkPad*%
%ADD15C,0.500000*%
%TD*%
%TA.AperFunction,HeatsinkPad*%
%ADD16R,1.900000X2.900000*%
%TD*%
%TA.AperFunction,ComponentPad*%
%ADD17C,1.358000*%
%TD*%
%TA.AperFunction,ComponentPad*%
%ADD18R,1.358000X1.358000*%
%TD*%
%TA.AperFunction,ComponentPad*%
%ADD19C,2.000000*%
%TD*%
%TA.AperFunction,ComponentPad*%
%ADD20R,1.700000X1.700000*%
%TD*%
%TA.AperFunction,ComponentPad*%
%ADD21C,1.700000*%
%TD*%
%TA.AperFunction,ViaPad*%
%ADD22C,0.600000*%
%TD*%
%TA.AperFunction,Conductor*%
%ADD23C,0.250000*%
%TD*%
%TA.AperFunction,Conductor*%
%ADD24C,0.200000*%
%TD*%
G04 APERTURE END LIST*
D10*
%TO.P,J2,A1,GND*%
%TO.N,GND*%
X158200000Y-108640000D03*
%TO.P,J2,A4,VBUS*%
%TO.N,/VBUS_CHG*%
X159050000Y-108640000D03*
%TO.P,J2,A5,CC1*%
%TO.N,Net-(J2-CC1)*%
X159900000Y-108640000D03*
%TO.P,J2,A6,D+*%
%TO.N,unconnected-(J2-D+-PadA6)*%
X160750000Y-108640000D03*
%TO.P,J2,A7,D-*%
%TO.N,unconnected-(J2-D--PadA7)*%
X161600000Y-108640000D03*
%TO.P,J2,A8*%
%TO.N,N/C*%
X162450000Y-108640000D03*
%TO.P,J2,A9,VBUS*%
%TO.N,/VBUS_CHG*%
X163300000Y-108640000D03*
%TO.P,J2,A12,GND*%
%TO.N,GND*%
X164150000Y-108640000D03*
%TO.P,J2,B1,GND*%
X164150000Y-109990000D03*
%TO.P,J2,B4,VBUS*%
%TO.N,/VBUS_CHG*%
X163300000Y-109990000D03*
%TO.P,J2,B5,CC2*%
%TO.N,Net-(J2-CC2)*%
X162450000Y-109990000D03*
%TO.P,J2,B6,D+*%
%TO.N,unconnected-(J2-D+-PadB6)*%
X161600000Y-109990000D03*
%TO.P,J2,B7,D-*%
%TO.N,unconnected-(J2-D--PadB7)*%
X160750000Y-109990000D03*
%TO.P,J2,B8*%
%TO.N,N/C*%
X159900000Y-109990000D03*
%TO.P,J2,B9,VBUS*%
%TO.N,/VBUS_CHG*%
X159050000Y-109990000D03*
%TO.P,J2,B12,GND*%
%TO.N,GND*%
X158200000Y-109990000D03*
D11*
%TO.P,J2,S1,SHIELD*%
X156850000Y-109620000D03*
D12*
X156850000Y-113000000D03*
D11*
X165500000Y-109620000D03*
D12*
X165500000Y-113000000D03*
%TD*%
D13*
%TO.P,J3,1,Pin_1*%
%TO.N,/BAT_18650*%
X153000000Y-91000000D03*
D14*
%TO.P,J3,2,Pin_2*%
%TO.N,GND*%
X155000000Y-91000000D03*
%TD*%
D15*
%TO.P,U2,9,EPAD*%
%TO.N,GND*%
X126200000Y-107125000D03*
X126200000Y-108325000D03*
X126200000Y-109525000D03*
D16*
X126900000Y-108325000D03*
D15*
X127600000Y-107125000D03*
X127600000Y-108325000D03*
X127600000Y-109525000D03*
%TD*%
D17*
%TO.P,U1,11,GPIO9_A10_D10_MOSI*%
%TO.N,/SPI_MOSI*%
X143740000Y-89620000D03*
%TO.P,U1,10,GPIO8_A9_D9_MISO*%
%TO.N,unconnected-(U1-GPIO8_A9_D9_MISO-Pad10)*%
X143740000Y-92160000D03*
%TO.P,U1,9,GPIO7_A8_D8_SCK*%
%TO.N,/SPI_CLK*%
X143740000Y-94700000D03*
%TO.P,U1,8,GPIO44_D7_RX*%
%TO.N,/DISP_RES*%
X143740000Y-97240000D03*
%TO.P,U1,12,3V3*%
%TO.N,+3V3*%
X143740000Y-87080000D03*
%TO.P,U1,13,GND*%
%TO.N,GND*%
X143740000Y-84540000D03*
%TO.P,U1,14,5V*%
%TO.N,+5V*%
X143740000Y-82000000D03*
%TO.P,U1,4,GPIO4_A3_D3*%
%TO.N,unconnected-(U1-GPIO4_A3_D3-Pad4)*%
X128500000Y-89620000D03*
%TO.P,U1,5,GPIO5_A4_D4_SDA*%
%TO.N,unconnected-(U1-GPIO5_A4_D4_SDA-Pad5)*%
X128500000Y-92160000D03*
%TO.P,U1,6,GPIO6_A5_D5_SCL*%
%TO.N,/DISP_CS*%
X128500000Y-94700000D03*
%TO.P,U1,7,GPIO43_A6_D6_TX*%
%TO.N,/DISP_DC*%
X128500000Y-97240000D03*
%TO.P,U1,3,GPIO3_A2_D2*%
%TO.N,unconnected-(U1-GPIO3_A2_D2-Pad3)*%
X128500000Y-87080000D03*
%TO.P,U1,2,GPIO2_A1_D1*%
%TO.N,/BTN_MODO*%
X128500000Y-84540000D03*
D18*
%TO.P,U1,1,GPIO1_A0_D0*%
%TO.N,/BTN_SHUTTER*%
X128500000Y-82000000D03*
%TD*%
D19*
%TO.P,SW1,1,1*%
%TO.N,/BTN_SHUTTER*%
X119000000Y-83500000D03*
X112500000Y-83500000D03*
%TO.P,SW1,2,2*%
%TO.N,GND*%
X119000000Y-88000000D03*
X112500000Y-88000000D03*
%TD*%
D20*
%TO.P,J1,1,VCC*%
%TO.N,+3V3*%
X164500000Y-87110000D03*
D21*
%TO.P,J1,2,GND*%
%TO.N,GND*%
X164500000Y-89650000D03*
%TO.P,J1,3,SCL*%
%TO.N,/SPI_CLK*%
X164500000Y-92190000D03*
%TO.P,J1,4,SDA*%
%TO.N,/SPI_MOSI*%
X164500000Y-94730000D03*
%TO.P,J1,5,RES*%
%TO.N,/DISP_RES*%
X164500000Y-97270000D03*
%TO.P,J1,6,DC*%
%TO.N,/DISP_DC*%
X164500000Y-99810000D03*
%TO.P,J1,7,CS*%
%TO.N,/DISP_CS*%
X164500000Y-102350000D03*
%TO.P,J1,8,BLK*%
%TO.N,+3V3*%
X164500000Y-104890000D03*
%TD*%
D19*
%TO.P,SW2,1,1*%
%TO.N,/BTN_MODO*%
X119000000Y-94000000D03*
X112500000Y-94000000D03*
%TO.P,SW2,2,2*%
%TO.N,GND*%
X119000000Y-98500000D03*
X112500000Y-98500000D03*
%TD*%
D22*
%TO.N,GND*%
X124500000Y-85000000D03*
X162000000Y-105500000D03*
X124500000Y-106500000D03*
X135000000Y-109500000D03*
X116500000Y-105500000D03*
X168471000Y-105500000D03*
X124500000Y-93000000D03*
X124500000Y-101000000D03*
X124500000Y-109000000D03*
X124500000Y-97000000D03*
X145000000Y-108500000D03*
X141000000Y-108500000D03*
X135500000Y-105500000D03*
X124500000Y-89000000D03*
%TD*%
D23*
%TO.N,/BTN_MODO*%
X128500000Y-84540000D02*
X126040000Y-84540000D01*
X125500000Y-84000000D02*
X123000000Y-84000000D01*
X126040000Y-84540000D02*
X125500000Y-84000000D01*
X122500000Y-84500000D02*
X122500000Y-90500000D01*
X123000000Y-84000000D02*
X122500000Y-84500000D01*
X122500000Y-90500000D02*
X119000000Y-94000000D01*
D24*
X119000000Y-94000000D02*
X112500000Y-94000000D01*
D23*
%TO.N,/BTN_SHUTTER*%
X119000000Y-83500000D02*
X112500000Y-83500000D01*
X127500000Y-82500000D02*
X120000000Y-82500000D01*
X120000000Y-82500000D02*
X119000000Y-83500000D01*
X128500000Y-82000000D02*
X128000000Y-82000000D01*
X128000000Y-82000000D02*
X127500000Y-82500000D01*
%TD*%
%TA.AperFunction,Conductor*%
%TO.N,GND*%
G36*
X166003032Y-77500648D02*
G01*
X166336929Y-77517052D01*
X166349037Y-77518245D01*
X166452146Y-77533539D01*
X166676699Y-77566849D01*
X166688617Y-77569219D01*
X167009951Y-77649709D01*
X167021588Y-77653240D01*
X167092806Y-77678722D01*
X167333467Y-77764832D01*
X167344688Y-77769479D01*
X167644163Y-77911120D01*
X167654871Y-77916844D01*
X167938988Y-78087137D01*
X167949106Y-78093897D01*
X168215170Y-78291224D01*
X168224576Y-78298944D01*
X168470013Y-78521395D01*
X168478604Y-78529986D01*
X168665755Y-78736475D01*
X168701055Y-78775423D01*
X168708775Y-78784829D01*
X168906102Y-79050893D01*
X168912862Y-79061011D01*
X169041776Y-79276092D01*
X169083148Y-79345116D01*
X169088883Y-79355844D01*
X169196344Y-79583052D01*
X169230514Y-79655297D01*
X169235170Y-79666540D01*
X169346759Y-79978411D01*
X169350292Y-79990055D01*
X169430777Y-80311369D01*
X169433151Y-80323305D01*
X169481754Y-80650962D01*
X169482947Y-80663071D01*
X169499351Y-80996966D01*
X169499500Y-81003051D01*
X169499500Y-113496948D01*
X169499351Y-113503033D01*
X169482947Y-113836928D01*
X169481754Y-113849037D01*
X169433151Y-114176694D01*
X169430777Y-114188630D01*
X169350292Y-114509944D01*
X169346759Y-114521588D01*
X169235170Y-114833459D01*
X169230514Y-114844702D01*
X169088885Y-115144151D01*
X169083148Y-115154883D01*
X168912862Y-115438988D01*
X168906102Y-115449106D01*
X168708775Y-115715170D01*
X168701055Y-115724576D01*
X168478611Y-115970006D01*
X168470006Y-115978611D01*
X168224576Y-116201055D01*
X168215170Y-116208775D01*
X167949106Y-116406102D01*
X167938988Y-116412862D01*
X167654883Y-116583148D01*
X167644151Y-116588885D01*
X167344702Y-116730514D01*
X167333459Y-116735170D01*
X167021588Y-116846759D01*
X167009944Y-116850292D01*
X166688630Y-116930777D01*
X166676694Y-116933151D01*
X166349037Y-116981754D01*
X166336928Y-116982947D01*
X166021989Y-116998419D01*
X166003031Y-116999351D01*
X165996949Y-116999500D01*
X113003051Y-116999500D01*
X112996968Y-116999351D01*
X112976900Y-116998365D01*
X112663071Y-116982947D01*
X112650962Y-116981754D01*
X112323305Y-116933151D01*
X112311369Y-116930777D01*
X111990055Y-116850292D01*
X111978411Y-116846759D01*
X111666540Y-116735170D01*
X111655301Y-116730515D01*
X111355844Y-116588883D01*
X111345121Y-116583150D01*
X111061011Y-116412862D01*
X111050893Y-116406102D01*
X110784829Y-116208775D01*
X110775423Y-116201055D01*
X110736475Y-116165755D01*
X110529986Y-115978604D01*
X110521395Y-115970013D01*
X110298944Y-115724576D01*
X110291224Y-115715170D01*
X110093897Y-115449106D01*
X110087137Y-115438988D01*
X109916844Y-115154871D01*
X109911120Y-115144163D01*
X109769479Y-114844688D01*
X109764829Y-114833459D01*
X109653240Y-114521588D01*
X109649707Y-114509944D01*
X109626413Y-114416948D01*
X109569219Y-114188617D01*
X109566848Y-114176694D01*
X109518245Y-113849037D01*
X109517052Y-113836927D01*
X109512964Y-113753722D01*
X109500649Y-113503032D01*
X109500500Y-113496948D01*
X109500500Y-112888549D01*
X111299500Y-112888549D01*
X111299500Y-113111450D01*
X111299501Y-113111466D01*
X111328594Y-113332452D01*
X111328595Y-113332457D01*
X111328596Y-113332463D01*
X111373487Y-113500000D01*
X111386290Y-113547780D01*
X111386293Y-113547790D01*
X111471593Y-113753722D01*
X111471595Y-113753726D01*
X111583052Y-113946774D01*
X111583057Y-113946780D01*
X111583058Y-113946782D01*
X111718751Y-114123622D01*
X111718757Y-114123629D01*
X111876370Y-114281242D01*
X111876376Y-114281247D01*
X112053226Y-114416948D01*
X112246274Y-114528405D01*
X112452219Y-114613710D01*
X112667537Y-114671404D01*
X112888543Y-114700500D01*
X112888550Y-114700500D01*
X113111450Y-114700500D01*
X113111457Y-114700500D01*
X113332463Y-114671404D01*
X113547781Y-114613710D01*
X113753726Y-114528405D01*
X113946774Y-114416948D01*
X114123624Y-114281247D01*
X114281247Y-114123624D01*
X114416948Y-113946774D01*
X114528405Y-113753726D01*
X114613710Y-113547781D01*
X114671404Y-113332463D01*
X114700500Y-113111457D01*
X114700500Y-112888543D01*
X114671404Y-112667537D01*
X114613710Y-112452219D01*
X114528405Y-112246274D01*
X114416948Y-112053226D01*
X114281247Y-111876376D01*
X114281242Y-111876370D01*
X114123629Y-111718757D01*
X114123622Y-111718751D01*
X113946782Y-111583058D01*
X113946780Y-111583057D01*
X113946774Y-111583052D01*
X113753726Y-111471595D01*
X113753722Y-111471593D01*
X113547790Y-111386293D01*
X113547783Y-111386291D01*
X113547781Y-111386290D01*
X113332463Y-111328596D01*
X113332457Y-111328595D01*
X113332452Y-111328594D01*
X113111466Y-111299501D01*
X113111463Y-111299500D01*
X113111457Y-111299500D01*
X112888543Y-111299500D01*
X112888537Y-111299500D01*
X112888533Y-111299501D01*
X112667547Y-111328594D01*
X112667540Y-111328595D01*
X112667537Y-111328596D01*
X112452219Y-111386290D01*
X112452209Y-111386293D01*
X112246277Y-111471593D01*
X112246273Y-111471595D01*
X112053226Y-111583052D01*
X112053217Y-111583058D01*
X111876377Y-111718751D01*
X111876370Y-111718757D01*
X111718757Y-111876370D01*
X111718751Y-111876377D01*
X111583058Y-112053217D01*
X111583052Y-112053226D01*
X111471595Y-112246273D01*
X111471593Y-112246277D01*
X111386293Y-112452209D01*
X111386290Y-112452219D01*
X111328597Y-112667534D01*
X111328594Y-112667547D01*
X111299501Y-112888533D01*
X111299500Y-112888549D01*
X109500500Y-112888549D01*
X109500500Y-108556228D01*
X158199500Y-108556228D01*
X158199500Y-108723771D01*
X158232182Y-108888074D01*
X158232184Y-108888082D01*
X158296295Y-109042860D01*
X158389373Y-109182162D01*
X158434530Y-109227319D01*
X158468015Y-109288642D01*
X158463031Y-109358334D01*
X158434530Y-109402681D01*
X158389376Y-109447834D01*
X158389373Y-109447837D01*
X158296295Y-109587139D01*
X158232184Y-109741917D01*
X158232182Y-109741925D01*
X158199500Y-109906228D01*
X158199500Y-110073771D01*
X158232182Y-110238074D01*
X158232184Y-110238082D01*
X158296295Y-110392860D01*
X158389373Y-110532162D01*
X158507837Y-110650626D01*
X158600494Y-110712537D01*
X158647137Y-110743703D01*
X158647138Y-110743703D01*
X158647139Y-110743704D01*
X158672452Y-110754189D01*
X158801918Y-110807816D01*
X158966228Y-110840499D01*
X158966232Y-110840500D01*
X158966233Y-110840500D01*
X159133768Y-110840500D01*
X159133769Y-110840499D01*
X159298082Y-110807816D01*
X159427548Y-110754188D01*
X159497016Y-110746720D01*
X159522450Y-110754188D01*
X159651918Y-110807816D01*
X159816228Y-110840499D01*
X159816232Y-110840500D01*
X159816233Y-110840500D01*
X159983768Y-110840500D01*
X159983769Y-110840499D01*
X160148082Y-110807816D01*
X160277548Y-110754188D01*
X160347016Y-110746720D01*
X160372450Y-110754188D01*
X160501918Y-110807816D01*
X160666228Y-110840499D01*
X160666232Y-110840500D01*
X160666233Y-110840500D01*
X160833768Y-110840500D01*
X160833769Y-110840499D01*
X160998082Y-110807816D01*
X161127548Y-110754188D01*
X161197016Y-110746720D01*
X161222450Y-110754188D01*
X161351918Y-110807816D01*
X161516228Y-110840499D01*
X161516232Y-110840500D01*
X161516233Y-110840500D01*
X161683768Y-110840500D01*
X161683769Y-110840499D01*
X161848082Y-110807816D01*
X161977548Y-110754188D01*
X162047016Y-110746720D01*
X162072450Y-110754188D01*
X162201918Y-110807816D01*
X162366228Y-110840499D01*
X162366232Y-110840500D01*
X162366233Y-110840500D01*
X162533768Y-110840500D01*
X162533769Y-110840499D01*
X162698082Y-110807816D01*
X162827548Y-110754188D01*
X162897016Y-110746720D01*
X162922450Y-110754188D01*
X163051918Y-110807816D01*
X163216228Y-110840499D01*
X163216232Y-110840500D01*
X163216233Y-110840500D01*
X163383768Y-110840500D01*
X163383769Y-110840499D01*
X163548082Y-110807816D01*
X163702863Y-110743703D01*
X163842162Y-110650626D01*
X163960626Y-110532162D01*
X164053703Y-110392863D01*
X164117816Y-110238082D01*
X164150500Y-110073767D01*
X164150500Y-109906233D01*
X164117816Y-109741918D01*
X164053703Y-109587137D01*
X164022537Y-109540494D01*
X163960626Y-109447837D01*
X163960623Y-109447834D01*
X163915470Y-109402682D01*
X163881984Y-109341359D01*
X163886968Y-109271668D01*
X163915470Y-109227318D01*
X163960626Y-109182162D01*
X164053703Y-109042863D01*
X164117816Y-108888082D01*
X164150500Y-108723767D01*
X164150500Y-108556233D01*
X164117816Y-108391918D01*
X164053703Y-108237137D01*
X164022537Y-108190494D01*
X163960626Y-108097837D01*
X163842162Y-107979373D01*
X163702860Y-107886295D01*
X163548082Y-107822184D01*
X163548074Y-107822182D01*
X163383771Y-107789500D01*
X163383767Y-107789500D01*
X163216233Y-107789500D01*
X163216228Y-107789500D01*
X163051925Y-107822182D01*
X163051913Y-107822185D01*
X162922452Y-107875810D01*
X162852983Y-107883279D01*
X162827548Y-107875810D01*
X162698086Y-107822185D01*
X162698074Y-107822182D01*
X162533771Y-107789500D01*
X162533767Y-107789500D01*
X162366233Y-107789500D01*
X162366228Y-107789500D01*
X162201925Y-107822182D01*
X162201913Y-107822185D01*
X162072452Y-107875810D01*
X162002983Y-107883279D01*
X161977548Y-107875810D01*
X161848086Y-107822185D01*
X161848074Y-107822182D01*
X161683771Y-107789500D01*
X161683767Y-107789500D01*
X161516233Y-107789500D01*
X161516228Y-107789500D01*
X161351925Y-107822182D01*
X161351913Y-107822185D01*
X161222452Y-107875810D01*
X161152983Y-107883279D01*
X161127548Y-107875810D01*
X160998086Y-107822185D01*
X160998074Y-107822182D01*
X160833771Y-107789500D01*
X160833767Y-107789500D01*
X160666233Y-107789500D01*
X160666228Y-107789500D01*
X160501925Y-107822182D01*
X160501913Y-107822185D01*
X160372452Y-107875810D01*
X160302983Y-107883279D01*
X160277548Y-107875810D01*
X160148086Y-107822185D01*
X160148074Y-107822182D01*
X159983771Y-107789500D01*
X159983767Y-107789500D01*
X159816233Y-107789500D01*
X159816228Y-107789500D01*
X159651925Y-107822182D01*
X159651913Y-107822185D01*
X159522452Y-107875810D01*
X159452983Y-107883279D01*
X159427548Y-107875810D01*
X159298086Y-107822185D01*
X159298074Y-107822182D01*
X159133771Y-107789500D01*
X159133767Y-107789500D01*
X158966233Y-107789500D01*
X158966228Y-107789500D01*
X158801925Y-107822182D01*
X158801917Y-107822184D01*
X158647139Y-107886295D01*
X158507837Y-107979373D01*
X158389373Y-108097837D01*
X158296295Y-108237139D01*
X158232184Y-108391917D01*
X158232182Y-108391925D01*
X158199500Y-108556228D01*
X109500500Y-108556228D01*
X109500500Y-83381902D01*
X110999500Y-83381902D01*
X110999500Y-83618097D01*
X111036446Y-83851368D01*
X111109433Y-84075996D01*
X111205125Y-84263800D01*
X111216657Y-84286433D01*
X111355483Y-84477510D01*
X111522490Y-84644517D01*
X111713567Y-84783343D01*
X111778045Y-84816196D01*
X111924003Y-84890566D01*
X111924005Y-84890566D01*
X111924008Y-84890568D01*
X112044412Y-84929689D01*
X112148631Y-84963553D01*
X112381903Y-85000500D01*
X112381908Y-85000500D01*
X112618097Y-85000500D01*
X112851368Y-84963553D01*
X113075992Y-84890568D01*
X113286433Y-84783343D01*
X113477510Y-84644517D01*
X113644517Y-84477510D01*
X113783343Y-84286433D01*
X113830845Y-84193205D01*
X113878820Y-84142409D01*
X113941330Y-84125500D01*
X117558670Y-84125500D01*
X117625709Y-84145185D01*
X117669155Y-84193205D01*
X117716657Y-84286433D01*
X117855483Y-84477510D01*
X118022490Y-84644517D01*
X118213567Y-84783343D01*
X118278045Y-84816196D01*
X118424003Y-84890566D01*
X118424005Y-84890566D01*
X118424008Y-84890568D01*
X118544412Y-84929689D01*
X118648631Y-84963553D01*
X118881903Y-85000500D01*
X118881908Y-85000500D01*
X119118097Y-85000500D01*
X119351368Y-84963553D01*
X119575992Y-84890568D01*
X119786433Y-84783343D01*
X119977510Y-84644517D01*
X120144517Y-84477510D01*
X120283343Y-84286433D01*
X120390568Y-84075992D01*
X120463553Y-83851368D01*
X120476186Y-83771605D01*
X120500500Y-83618097D01*
X120500500Y-83381902D01*
X120482602Y-83268898D01*
X120491557Y-83199604D01*
X120536553Y-83146152D01*
X120603305Y-83125513D01*
X120605075Y-83125500D01*
X127563546Y-83125500D01*
X127606879Y-83133318D01*
X127713517Y-83173091D01*
X127713516Y-83173091D01*
X127720444Y-83173835D01*
X127773127Y-83179500D01*
X128087345Y-83179499D01*
X128154382Y-83199183D01*
X128200137Y-83251987D01*
X128210081Y-83321146D01*
X128181056Y-83384701D01*
X128125663Y-83421429D01*
X128047228Y-83446915D01*
X127881806Y-83531201D01*
X127796111Y-83593462D01*
X127731607Y-83640328D01*
X127731605Y-83640330D01*
X127731604Y-83640330D01*
X127600330Y-83771604D01*
X127600330Y-83771605D01*
X127600328Y-83771607D01*
X127533647Y-83863386D01*
X127478317Y-83906051D01*
X127433329Y-83914500D01*
X126350453Y-83914500D01*
X126283414Y-83894815D01*
X126262772Y-83878181D01*
X125995822Y-83611232D01*
X125985859Y-83601269D01*
X125985858Y-83601267D01*
X125898733Y-83514142D01*
X125847509Y-83479915D01*
X125796286Y-83445688D01*
X125796283Y-83445686D01*
X125796280Y-83445685D01*
X125723330Y-83415469D01*
X125723328Y-83415468D01*
X125715792Y-83412347D01*
X125682452Y-83398537D01*
X125598850Y-83381908D01*
X125594908Y-83381123D01*
X125594901Y-83381122D01*
X125571015Y-83376371D01*
X125561607Y-83374500D01*
X125561606Y-83374500D01*
X123061607Y-83374500D01*
X122938393Y-83374500D01*
X122919771Y-83378204D01*
X122901149Y-83381908D01*
X122901148Y-83381907D01*
X122817554Y-83398535D01*
X122817541Y-83398539D01*
X122785262Y-83411909D01*
X122770397Y-83418067D01*
X122748169Y-83427274D01*
X122703713Y-83445688D01*
X122693557Y-83452475D01*
X122693449Y-83452547D01*
X122601268Y-83514140D01*
X122557705Y-83557703D01*
X122514142Y-83601267D01*
X122103914Y-84011494D01*
X122103906Y-84011502D01*
X122101270Y-84014139D01*
X122101267Y-84014142D01*
X122014142Y-84101267D01*
X121987415Y-84141267D01*
X121982727Y-84148282D01*
X121982726Y-84148284D01*
X121945690Y-84203710D01*
X121945685Y-84203719D01*
X121929120Y-84243713D01*
X121898539Y-84317541D01*
X121898535Y-84317555D01*
X121874500Y-84438389D01*
X121874500Y-90189546D01*
X121854815Y-90256585D01*
X121838181Y-90277227D01*
X119576878Y-92538529D01*
X119515555Y-92572014D01*
X119450880Y-92568779D01*
X119351370Y-92536447D01*
X119351371Y-92536447D01*
X119118097Y-92499500D01*
X119118092Y-92499500D01*
X118881908Y-92499500D01*
X118881903Y-92499500D01*
X118648631Y-92536446D01*
X118424003Y-92609433D01*
X118213566Y-92716657D01*
X118128870Y-92778193D01*
X118022490Y-92855483D01*
X118022488Y-92855485D01*
X118022487Y-92855485D01*
X117855485Y-93022487D01*
X117855485Y-93022488D01*
X117855483Y-93022490D01*
X117821116Y-93069792D01*
X117716657Y-93213566D01*
X117656417Y-93331795D01*
X117608442Y-93382591D01*
X117545932Y-93399500D01*
X113954068Y-93399500D01*
X113887029Y-93379815D01*
X113843583Y-93331795D01*
X113832711Y-93310457D01*
X113783343Y-93213567D01*
X113644517Y-93022490D01*
X113477510Y-92855483D01*
X113286433Y-92716657D01*
X113270251Y-92708412D01*
X113075996Y-92609433D01*
X112851368Y-92536446D01*
X112618097Y-92499500D01*
X112618092Y-92499500D01*
X112381908Y-92499500D01*
X112381903Y-92499500D01*
X112148631Y-92536446D01*
X111924003Y-92609433D01*
X111713566Y-92716657D01*
X111628870Y-92778193D01*
X111522490Y-92855483D01*
X111522488Y-92855485D01*
X111522487Y-92855485D01*
X111355485Y-93022487D01*
X111355485Y-93022488D01*
X111355483Y-93022490D01*
X111321116Y-93069792D01*
X111216657Y-93213566D01*
X111109433Y-93424003D01*
X111036446Y-93648631D01*
X110999500Y-93881902D01*
X110999500Y-94118097D01*
X111036446Y-94351368D01*
X111109433Y-94575996D01*
X111216657Y-94786433D01*
X111355483Y-94977510D01*
X111522490Y-95144517D01*
X111713567Y-95283343D01*
X111781964Y-95318193D01*
X111924003Y-95390566D01*
X111924005Y-95390566D01*
X111924008Y-95390568D01*
X112044412Y-95429689D01*
X112148631Y-95463553D01*
X112381903Y-95500500D01*
X112381908Y-95500500D01*
X112618097Y-95500500D01*
X112851368Y-95463553D01*
X113075992Y-95390568D01*
X113286433Y-95283343D01*
X113477510Y-95144517D01*
X113644517Y-94977510D01*
X113783343Y-94786433D01*
X113843583Y-94668204D01*
X113891558Y-94617409D01*
X113954068Y-94600500D01*
X117545932Y-94600500D01*
X117612971Y-94620185D01*
X117656416Y-94668203D01*
X117716657Y-94786433D01*
X117855483Y-94977510D01*
X118022490Y-95144517D01*
X118213567Y-95283343D01*
X118281964Y-95318193D01*
X118424003Y-95390566D01*
X118424005Y-95390566D01*
X118424008Y-95390568D01*
X118544412Y-95429689D01*
X118648631Y-95463553D01*
X118881903Y-95500500D01*
X118881908Y-95500500D01*
X119118097Y-95500500D01*
X119351368Y-95463553D01*
X119575992Y-95390568D01*
X119786433Y-95283343D01*
X119977510Y-95144517D01*
X120144517Y-94977510D01*
X120283343Y-94786433D01*
X120390568Y-94575992D01*
X120463553Y-94351368D01*
X120480047Y-94247229D01*
X120500500Y-94118097D01*
X120500500Y-93881902D01*
X120463553Y-93648631D01*
X120439612Y-93574949D01*
X120431218Y-93549118D01*
X120429224Y-93479279D01*
X120461467Y-93423122D01*
X122985857Y-90898734D01*
X122994599Y-90885651D01*
X123003219Y-90872752D01*
X123025436Y-90839500D01*
X123054311Y-90796286D01*
X123101463Y-90682452D01*
X123125500Y-90561606D01*
X123125500Y-84810452D01*
X123134144Y-84781011D01*
X123140668Y-84751025D01*
X123144422Y-84746009D01*
X123145185Y-84743413D01*
X123161819Y-84722771D01*
X123222771Y-84661819D01*
X123284094Y-84628334D01*
X123310452Y-84625500D01*
X125189548Y-84625500D01*
X125256587Y-84645185D01*
X125277228Y-84661818D01*
X125554141Y-84938732D01*
X125554142Y-84938733D01*
X125608180Y-84992771D01*
X125641268Y-85025859D01*
X125743707Y-85094307D01*
X125743713Y-85094310D01*
X125743714Y-85094311D01*
X125857548Y-85141463D01*
X125917971Y-85153481D01*
X125978393Y-85165500D01*
X125978394Y-85165500D01*
X127433329Y-85165500D01*
X127500368Y-85185185D01*
X127533645Y-85216612D01*
X127600328Y-85308393D01*
X127731607Y-85439672D01*
X127881807Y-85548799D01*
X128047229Y-85633085D01*
X128223800Y-85690457D01*
X128223802Y-85690457D01*
X128228433Y-85691962D01*
X128227726Y-85694135D01*
X128280129Y-85724248D01*
X128312271Y-85786286D01*
X128305771Y-85855852D01*
X128262692Y-85910861D01*
X128227999Y-85926704D01*
X128228433Y-85928038D01*
X128223802Y-85929542D01*
X128223800Y-85929543D01*
X128047229Y-85986915D01*
X128047226Y-85986916D01*
X127881806Y-86071201D01*
X127796111Y-86133462D01*
X127731607Y-86180328D01*
X127731605Y-86180330D01*
X127731604Y-86180330D01*
X127600330Y-86311604D01*
X127600330Y-86311605D01*
X127600328Y-86311607D01*
X127553462Y-86376111D01*
X127491201Y-86461806D01*
X127406916Y-86627226D01*
X127349542Y-86803803D01*
X127320500Y-86987165D01*
X127320500Y-87172834D01*
X127349542Y-87356196D01*
X127349543Y-87356200D01*
X127406915Y-87532771D01*
X127491201Y-87698193D01*
X127600328Y-87848393D01*
X127731607Y-87979672D01*
X127881807Y-88088799D01*
X128047229Y-88173085D01*
X128223800Y-88230457D01*
X128223802Y-88230457D01*
X128228433Y-88231962D01*
X128227726Y-88234135D01*
X128280129Y-88264248D01*
X128312271Y-88326286D01*
X128305771Y-88395852D01*
X128262692Y-88450861D01*
X128227999Y-88466704D01*
X128228433Y-88468038D01*
X128223802Y-88469542D01*
X128223800Y-88469543D01*
X128047229Y-88526915D01*
X128047226Y-88526916D01*
X127881806Y-88611201D01*
X127796111Y-88673462D01*
X127731607Y-88720328D01*
X127731605Y-88720330D01*
X127731604Y-88720330D01*
X127600330Y-88851604D01*
X127600330Y-88851605D01*
X127600328Y-88851607D01*
X127553462Y-88916111D01*
X127491201Y-89001806D01*
X127406916Y-89167226D01*
X127349542Y-89343803D01*
X127320500Y-89527165D01*
X127320500Y-89712834D01*
X127331501Y-89782288D01*
X127349543Y-89896200D01*
X127406915Y-90072771D01*
X127491201Y-90238193D01*
X127600328Y-90388393D01*
X127731607Y-90519672D01*
X127881807Y-90628799D01*
X128047229Y-90713085D01*
X128223800Y-90770457D01*
X128223802Y-90770457D01*
X128228433Y-90771962D01*
X128227726Y-90774135D01*
X128280129Y-90804248D01*
X128312271Y-90866286D01*
X128305771Y-90935852D01*
X128262692Y-90990861D01*
X128227999Y-91006704D01*
X128228433Y-91008038D01*
X128223802Y-91009542D01*
X128223800Y-91009543D01*
X128047229Y-91066915D01*
X128047226Y-91066916D01*
X127881806Y-91151201D01*
X127869839Y-91159896D01*
X127731607Y-91260328D01*
X127731605Y-91260330D01*
X127731604Y-91260330D01*
X127600330Y-91391604D01*
X127600330Y-91391605D01*
X127600328Y-91391607D01*
X127553462Y-91456111D01*
X127491201Y-91541806D01*
X127406916Y-91707226D01*
X127349542Y-91883803D01*
X127320500Y-92067165D01*
X127320500Y-92252834D01*
X127339929Y-92375500D01*
X127349543Y-92436200D01*
X127406915Y-92612771D01*
X127491201Y-92778193D01*
X127600328Y-92928393D01*
X127731607Y-93059672D01*
X127881807Y-93168799D01*
X128047229Y-93253085D01*
X128223800Y-93310457D01*
X128223802Y-93310457D01*
X128228433Y-93311962D01*
X128227726Y-93314135D01*
X128280129Y-93344248D01*
X128312271Y-93406286D01*
X128305771Y-93475852D01*
X128262692Y-93530861D01*
X128227999Y-93546704D01*
X128228433Y-93548038D01*
X128223802Y-93549542D01*
X128223800Y-93549543D01*
X128047229Y-93606915D01*
X128047226Y-93606916D01*
X127881806Y-93691201D01*
X127869839Y-93699896D01*
X127731607Y-93800328D01*
X127731605Y-93800330D01*
X127731604Y-93800330D01*
X127600330Y-93931604D01*
X127600330Y-93931605D01*
X127600328Y-93931607D01*
X127553462Y-93996111D01*
X127491201Y-94081806D01*
X127406916Y-94247226D01*
X127349542Y-94423803D01*
X127320500Y-94607165D01*
X127320500Y-94792834D01*
X127349542Y-94976196D01*
X127349543Y-94976200D01*
X127406915Y-95152771D01*
X127491201Y-95318193D01*
X127600328Y-95468393D01*
X127731607Y-95599672D01*
X127881807Y-95708799D01*
X128047229Y-95793085D01*
X128223800Y-95850457D01*
X128223802Y-95850457D01*
X128228433Y-95851962D01*
X128227726Y-95854135D01*
X128280129Y-95884248D01*
X128312271Y-95946286D01*
X128305771Y-96015852D01*
X128262692Y-96070861D01*
X128227999Y-96086704D01*
X128228433Y-96088038D01*
X128223802Y-96089542D01*
X128223800Y-96089543D01*
X128047229Y-96146915D01*
X128047226Y-96146916D01*
X127881806Y-96231201D01*
X127869839Y-96239896D01*
X127731607Y-96340328D01*
X127731605Y-96340330D01*
X127731604Y-96340330D01*
X127600330Y-96471604D01*
X127600330Y-96471605D01*
X127600328Y-96471607D01*
X127553462Y-96536111D01*
X127491201Y-96621806D01*
X127406916Y-96787226D01*
X127349542Y-96963803D01*
X127320500Y-97147165D01*
X127320500Y-97332834D01*
X127349542Y-97516196D01*
X127349543Y-97516200D01*
X127406915Y-97692771D01*
X127491201Y-97858193D01*
X127600328Y-98008393D01*
X127731607Y-98139672D01*
X127881807Y-98248799D01*
X128047229Y-98333085D01*
X128223800Y-98390457D01*
X128292564Y-98401348D01*
X128407166Y-98419500D01*
X128407171Y-98419500D01*
X128592834Y-98419500D01*
X128694701Y-98403365D01*
X128776200Y-98390457D01*
X128952771Y-98333085D01*
X129118193Y-98248799D01*
X129268393Y-98139672D01*
X129399672Y-98008393D01*
X129508799Y-97858193D01*
X129593085Y-97692771D01*
X129650457Y-97516200D01*
X129672617Y-97376287D01*
X129679500Y-97332834D01*
X129679500Y-97147165D01*
X129650457Y-96963803D01*
X129650457Y-96963800D01*
X129593085Y-96787229D01*
X129508799Y-96621807D01*
X129399672Y-96471607D01*
X129268393Y-96340328D01*
X129118193Y-96231201D01*
X128952771Y-96146915D01*
X128776200Y-96089543D01*
X128776197Y-96089542D01*
X128771567Y-96088038D01*
X128772277Y-96085852D01*
X128719914Y-96055797D01*
X128687740Y-95993776D01*
X128694205Y-95924206D01*
X128737256Y-95869176D01*
X128772004Y-95853307D01*
X128771567Y-95851962D01*
X128776197Y-95850457D01*
X128776200Y-95850457D01*
X128952771Y-95793085D01*
X129118193Y-95708799D01*
X129268393Y-95599672D01*
X129399672Y-95468393D01*
X129508799Y-95318193D01*
X129593085Y-95152771D01*
X129650457Y-94976200D01*
X129672617Y-94836287D01*
X129679500Y-94792834D01*
X129679500Y-94607165D01*
X129650457Y-94423803D01*
X129650457Y-94423800D01*
X129593085Y-94247229D01*
X129508799Y-94081807D01*
X129399672Y-93931607D01*
X129268393Y-93800328D01*
X129118193Y-93691201D01*
X128952771Y-93606915D01*
X128776200Y-93549543D01*
X128776197Y-93549542D01*
X128771567Y-93548038D01*
X128772277Y-93545852D01*
X128719914Y-93515797D01*
X128687740Y-93453776D01*
X128694205Y-93384206D01*
X128737256Y-93329176D01*
X128772004Y-93313307D01*
X128771567Y-93311962D01*
X128776197Y-93310457D01*
X128776200Y-93310457D01*
X128952771Y-93253085D01*
X129118193Y-93168799D01*
X129268393Y-93059672D01*
X129399672Y-92928393D01*
X129508799Y-92778193D01*
X129593085Y-92612771D01*
X129650457Y-92436200D01*
X129663365Y-92354701D01*
X129679500Y-92252834D01*
X129679500Y-92067165D01*
X129650457Y-91883803D01*
X129650457Y-91883800D01*
X129593085Y-91707229D01*
X129508799Y-91541807D01*
X129399672Y-91391607D01*
X129268393Y-91260328D01*
X129118193Y-91151201D01*
X128952771Y-91066915D01*
X128776200Y-91009543D01*
X128776197Y-91009542D01*
X128771567Y-91008038D01*
X128772277Y-91005852D01*
X128719914Y-90975797D01*
X128687740Y-90913776D01*
X128694205Y-90844206D01*
X128737256Y-90789176D01*
X128772004Y-90773307D01*
X128771567Y-90771962D01*
X128776197Y-90770457D01*
X128776200Y-90770457D01*
X128952771Y-90713085D01*
X129118193Y-90628799D01*
X129268393Y-90519672D01*
X129399672Y-90388393D01*
X129508799Y-90238193D01*
X129593085Y-90072771D01*
X129650457Y-89896200D01*
X129668499Y-89782288D01*
X129679500Y-89712834D01*
X129679500Y-89527165D01*
X129650457Y-89343803D01*
X129650457Y-89343800D01*
X129593085Y-89167229D01*
X129508799Y-89001807D01*
X129399672Y-88851607D01*
X129268393Y-88720328D01*
X129118193Y-88611201D01*
X128952771Y-88526915D01*
X128776200Y-88469543D01*
X128776197Y-88469542D01*
X128771567Y-88468038D01*
X128772277Y-88465852D01*
X128719914Y-88435797D01*
X128687740Y-88373776D01*
X128694205Y-88304206D01*
X128737256Y-88249176D01*
X128772004Y-88233307D01*
X128771567Y-88231962D01*
X128776197Y-88230457D01*
X128776200Y-88230457D01*
X128952771Y-88173085D01*
X129118193Y-88088799D01*
X129268393Y-87979672D01*
X129399672Y-87848393D01*
X129508799Y-87698193D01*
X129593085Y-87532771D01*
X129650457Y-87356200D01*
X129663365Y-87274701D01*
X129679500Y-87172834D01*
X129679500Y-86987165D01*
X142560500Y-86987165D01*
X142560500Y-87172834D01*
X142589542Y-87356196D01*
X142589543Y-87356200D01*
X142646915Y-87532771D01*
X142731201Y-87698193D01*
X142840328Y-87848393D01*
X142971607Y-87979672D01*
X143121807Y-88088799D01*
X143287229Y-88173085D01*
X143463800Y-88230457D01*
X143463802Y-88230457D01*
X143468433Y-88231962D01*
X143467726Y-88234135D01*
X143520129Y-88264248D01*
X143552271Y-88326286D01*
X143545771Y-88395852D01*
X143502692Y-88450861D01*
X143467999Y-88466704D01*
X143468433Y-88468038D01*
X143463802Y-88469542D01*
X143463800Y-88469543D01*
X143287229Y-88526915D01*
X143287226Y-88526916D01*
X143121806Y-88611201D01*
X143036111Y-88673462D01*
X142971607Y-88720328D01*
X142971605Y-88720330D01*
X142971604Y-88720330D01*
X142840330Y-88851604D01*
X142840330Y-88851605D01*
X142840328Y-88851607D01*
X142793462Y-88916111D01*
X142731201Y-89001806D01*
X142646916Y-89167226D01*
X142589542Y-89343803D01*
X142560500Y-89527165D01*
X142560500Y-89712834D01*
X142571501Y-89782288D01*
X142589543Y-89896200D01*
X142646915Y-90072771D01*
X142731201Y-90238193D01*
X142840328Y-90388393D01*
X142971607Y-90519672D01*
X143121807Y-90628799D01*
X143287229Y-90713085D01*
X143463800Y-90770457D01*
X143463802Y-90770457D01*
X143468433Y-90771962D01*
X143467726Y-90774135D01*
X143520129Y-90804248D01*
X143552271Y-90866286D01*
X143545771Y-90935852D01*
X143502692Y-90990861D01*
X143467999Y-91006704D01*
X143468433Y-91008038D01*
X143463802Y-91009542D01*
X143463800Y-91009543D01*
X143287229Y-91066915D01*
X143287226Y-91066916D01*
X143121806Y-91151201D01*
X143109839Y-91159896D01*
X142971607Y-91260328D01*
X142971605Y-91260330D01*
X142971604Y-91260330D01*
X142840330Y-91391604D01*
X142840330Y-91391605D01*
X142840328Y-91391607D01*
X142793462Y-91456111D01*
X142731201Y-91541806D01*
X142646916Y-91707226D01*
X142589542Y-91883803D01*
X142560500Y-92067165D01*
X142560500Y-92252834D01*
X142579929Y-92375500D01*
X142589543Y-92436200D01*
X142646915Y-92612771D01*
X142731201Y-92778193D01*
X142840328Y-92928393D01*
X142971607Y-93059672D01*
X143121807Y-93168799D01*
X143287229Y-93253085D01*
X143463800Y-93310457D01*
X143463802Y-93310457D01*
X143468433Y-93311962D01*
X143467726Y-93314135D01*
X143520129Y-93344248D01*
X143552271Y-93406286D01*
X143545771Y-93475852D01*
X143502692Y-93530861D01*
X143467999Y-93546704D01*
X143468433Y-93548038D01*
X143463802Y-93549542D01*
X143463800Y-93549543D01*
X143287229Y-93606915D01*
X143287226Y-93606916D01*
X143121806Y-93691201D01*
X143109839Y-93699896D01*
X142971607Y-93800328D01*
X142971605Y-93800330D01*
X142971604Y-93800330D01*
X142840330Y-93931604D01*
X142840330Y-93931605D01*
X142840328Y-93931607D01*
X142793462Y-93996111D01*
X142731201Y-94081806D01*
X142646916Y-94247226D01*
X142589542Y-94423803D01*
X142560500Y-94607165D01*
X142560500Y-94792834D01*
X142589542Y-94976196D01*
X142589543Y-94976200D01*
X142646915Y-95152771D01*
X142731201Y-95318193D01*
X142840328Y-95468393D01*
X142971607Y-95599672D01*
X143121807Y-95708799D01*
X143287229Y-95793085D01*
X143463800Y-95850457D01*
X143463802Y-95850457D01*
X143468433Y-95851962D01*
X143467726Y-95854135D01*
X143520129Y-95884248D01*
X143552271Y-95946286D01*
X143545771Y-96015852D01*
X143502692Y-96070861D01*
X143467999Y-96086704D01*
X143468433Y-96088038D01*
X143463802Y-96089542D01*
X143463800Y-96089543D01*
X143287229Y-96146915D01*
X143287226Y-96146916D01*
X143121806Y-96231201D01*
X143109839Y-96239896D01*
X142971607Y-96340328D01*
X142971605Y-96340330D01*
X142971604Y-96340330D01*
X142840330Y-96471604D01*
X142840330Y-96471605D01*
X142840328Y-96471607D01*
X142793462Y-96536111D01*
X142731201Y-96621806D01*
X142646916Y-96787226D01*
X142589542Y-96963803D01*
X142560500Y-97147165D01*
X142560500Y-97332834D01*
X142589542Y-97516196D01*
X142589543Y-97516200D01*
X142646915Y-97692771D01*
X142731201Y-97858193D01*
X142840328Y-98008393D01*
X142971607Y-98139672D01*
X143121807Y-98248799D01*
X143287229Y-98333085D01*
X143463800Y-98390457D01*
X143532564Y-98401348D01*
X143647166Y-98419500D01*
X143647171Y-98419500D01*
X143832834Y-98419500D01*
X143934701Y-98403365D01*
X144016200Y-98390457D01*
X144192771Y-98333085D01*
X144358193Y-98248799D01*
X144508393Y-98139672D01*
X144639672Y-98008393D01*
X144748799Y-97858193D01*
X144833085Y-97692771D01*
X144890457Y-97516200D01*
X144912617Y-97376287D01*
X144919500Y-97332834D01*
X144919500Y-97147165D01*
X144890457Y-96963803D01*
X144890457Y-96963800D01*
X144833085Y-96787229D01*
X144748799Y-96621807D01*
X144639672Y-96471607D01*
X144508393Y-96340328D01*
X144358193Y-96231201D01*
X144192771Y-96146915D01*
X144016200Y-96089543D01*
X144016197Y-96089542D01*
X144011567Y-96088038D01*
X144012277Y-96085852D01*
X143959914Y-96055797D01*
X143927740Y-95993776D01*
X143934205Y-95924206D01*
X143977256Y-95869176D01*
X144012004Y-95853307D01*
X144011567Y-95851962D01*
X144016197Y-95850457D01*
X144016200Y-95850457D01*
X144192771Y-95793085D01*
X144358193Y-95708799D01*
X144508393Y-95599672D01*
X144639672Y-95468393D01*
X144748799Y-95318193D01*
X144833085Y-95152771D01*
X144890457Y-94976200D01*
X144912617Y-94836287D01*
X144919500Y-94792834D01*
X144919500Y-94607165D01*
X144890457Y-94423803D01*
X144890457Y-94423800D01*
X144833085Y-94247229D01*
X144748799Y-94081807D01*
X144639672Y-93931607D01*
X144508393Y-93800328D01*
X144358193Y-93691201D01*
X144192771Y-93606915D01*
X144016200Y-93549543D01*
X144016197Y-93549542D01*
X144011567Y-93548038D01*
X144012277Y-93545852D01*
X143959914Y-93515797D01*
X143927740Y-93453776D01*
X143934205Y-93384206D01*
X143977256Y-93329176D01*
X144012004Y-93313307D01*
X144011567Y-93311962D01*
X144016197Y-93310457D01*
X144016200Y-93310457D01*
X144192771Y-93253085D01*
X144358193Y-93168799D01*
X144508393Y-93059672D01*
X144639672Y-92928393D01*
X144748799Y-92778193D01*
X144833085Y-92612771D01*
X144890457Y-92436200D01*
X144903365Y-92354701D01*
X144919500Y-92252834D01*
X144919500Y-92067165D01*
X144890457Y-91883803D01*
X144890457Y-91883800D01*
X144833085Y-91707229D01*
X144748799Y-91541807D01*
X144639672Y-91391607D01*
X144508393Y-91260328D01*
X144358193Y-91151201D01*
X144192771Y-91066915D01*
X144016200Y-91009543D01*
X144016197Y-91009542D01*
X144011567Y-91008038D01*
X144012277Y-91005852D01*
X143959914Y-90975797D01*
X143927740Y-90913776D01*
X143934205Y-90844206D01*
X143977256Y-90789176D01*
X144012004Y-90773307D01*
X144011567Y-90771962D01*
X144016197Y-90770457D01*
X144016200Y-90770457D01*
X144192771Y-90713085D01*
X144358193Y-90628799D01*
X144508393Y-90519672D01*
X144639672Y-90388393D01*
X144685742Y-90324983D01*
X151899500Y-90324983D01*
X151899500Y-91675001D01*
X151899501Y-91675018D01*
X151910000Y-91777796D01*
X151910001Y-91777799D01*
X151941799Y-91873757D01*
X151965186Y-91944334D01*
X152057288Y-92093656D01*
X152181344Y-92217712D01*
X152330666Y-92309814D01*
X152497203Y-92364999D01*
X152599991Y-92375500D01*
X153400008Y-92375499D01*
X153400016Y-92375498D01*
X153400019Y-92375498D01*
X153456302Y-92369748D01*
X153502797Y-92364999D01*
X153669334Y-92309814D01*
X153818656Y-92217712D01*
X153942712Y-92093656D01*
X153948845Y-92083713D01*
X163149500Y-92083713D01*
X163149500Y-92296287D01*
X163159534Y-92359644D01*
X163171659Y-92436196D01*
X163182754Y-92506243D01*
X163217367Y-92612771D01*
X163248444Y-92708414D01*
X163344951Y-92897820D01*
X163469890Y-93069786D01*
X163620213Y-93220109D01*
X163792182Y-93345050D01*
X163800946Y-93349516D01*
X163851742Y-93397491D01*
X163868536Y-93465312D01*
X163845998Y-93531447D01*
X163800946Y-93570484D01*
X163792182Y-93574949D01*
X163620213Y-93699890D01*
X163469890Y-93850213D01*
X163344951Y-94022179D01*
X163248444Y-94211585D01*
X163182753Y-94413760D01*
X163149500Y-94623713D01*
X163149500Y-94836286D01*
X163171867Y-94977510D01*
X163182754Y-95046243D01*
X163217367Y-95152771D01*
X163248444Y-95248414D01*
X163344951Y-95437820D01*
X163469890Y-95609786D01*
X163620213Y-95760109D01*
X163792182Y-95885050D01*
X163800946Y-95889516D01*
X163851742Y-95937491D01*
X163868536Y-96005312D01*
X163845998Y-96071447D01*
X163800946Y-96110484D01*
X163792182Y-96114949D01*
X163620213Y-96239890D01*
X163469890Y-96390213D01*
X163344951Y-96562179D01*
X163248444Y-96751585D01*
X163182753Y-96953760D01*
X163149500Y-97163713D01*
X163149500Y-97376286D01*
X163171659Y-97516196D01*
X163182754Y-97586243D01*
X163217367Y-97692771D01*
X163248444Y-97788414D01*
X163344951Y-97977820D01*
X163469890Y-98149786D01*
X163620213Y-98300109D01*
X163792182Y-98425050D01*
X163800946Y-98429516D01*
X163851742Y-98477491D01*
X163868536Y-98545312D01*
X163845998Y-98611447D01*
X163800946Y-98650484D01*
X163792182Y-98654949D01*
X163620213Y-98779890D01*
X163469890Y-98930213D01*
X163344951Y-99102179D01*
X163248444Y-99291585D01*
X163182753Y-99493760D01*
X163149500Y-99703713D01*
X163149500Y-99916286D01*
X163182753Y-100126239D01*
X163248444Y-100328414D01*
X163344951Y-100517820D01*
X163469890Y-100689786D01*
X163620213Y-100840109D01*
X163792182Y-100965050D01*
X163800946Y-100969516D01*
X163851742Y-101017491D01*
X163868536Y-101085312D01*
X163845998Y-101151447D01*
X163800946Y-101190484D01*
X163792182Y-101194949D01*
X163620213Y-101319890D01*
X163469890Y-101470213D01*
X163344951Y-101642179D01*
X163248444Y-101831585D01*
X163182753Y-102033760D01*
X163149500Y-102243713D01*
X163149500Y-102456286D01*
X163182753Y-102666239D01*
X163248444Y-102868414D01*
X163344951Y-103057820D01*
X163469890Y-103229786D01*
X163620213Y-103380109D01*
X163792182Y-103505050D01*
X163800946Y-103509516D01*
X163851742Y-103557491D01*
X163868536Y-103625312D01*
X163845998Y-103691447D01*
X163800946Y-103730484D01*
X163792182Y-103734949D01*
X163620213Y-103859890D01*
X163469890Y-104010213D01*
X163344951Y-104182179D01*
X163248444Y-104371585D01*
X163182753Y-104573760D01*
X163149500Y-104783713D01*
X163149500Y-104996286D01*
X163182753Y-105206239D01*
X163248444Y-105408414D01*
X163344951Y-105597820D01*
X163469890Y-105769786D01*
X163620213Y-105920109D01*
X163792179Y-106045048D01*
X163792181Y-106045049D01*
X163792184Y-106045051D01*
X163981588Y-106141557D01*
X164183757Y-106207246D01*
X164393713Y-106240500D01*
X164393714Y-106240500D01*
X164606286Y-106240500D01*
X164606287Y-106240500D01*
X164816243Y-106207246D01*
X165018412Y-106141557D01*
X165207816Y-106045051D01*
X165229789Y-106029086D01*
X165379786Y-105920109D01*
X165379788Y-105920106D01*
X165379792Y-105920104D01*
X165530104Y-105769792D01*
X165530106Y-105769788D01*
X165530109Y-105769786D01*
X165655048Y-105597820D01*
X165655047Y-105597820D01*
X165655051Y-105597816D01*
X165751557Y-105408412D01*
X165817246Y-105206243D01*
X165850500Y-104996287D01*
X165850500Y-104783713D01*
X165817246Y-104573757D01*
X165751557Y-104371588D01*
X165655051Y-104182184D01*
X165655049Y-104182181D01*
X165655048Y-104182179D01*
X165530109Y-104010213D01*
X165379786Y-103859890D01*
X165207820Y-103734951D01*
X165207115Y-103734591D01*
X165199054Y-103730485D01*
X165148259Y-103682512D01*
X165131463Y-103614692D01*
X165153999Y-103548556D01*
X165199054Y-103509515D01*
X165207816Y-103505051D01*
X165229789Y-103489086D01*
X165379786Y-103380109D01*
X165379788Y-103380106D01*
X165379792Y-103380104D01*
X165530104Y-103229792D01*
X165530106Y-103229788D01*
X165530109Y-103229786D01*
X165655048Y-103057820D01*
X165655047Y-103057820D01*
X165655051Y-103057816D01*
X165751557Y-102868412D01*
X165817246Y-102666243D01*
X165850500Y-102456287D01*
X165850500Y-102243713D01*
X165817246Y-102033757D01*
X165751557Y-101831588D01*
X165655051Y-101642184D01*
X165655049Y-101642181D01*
X165655048Y-101642179D01*
X165530109Y-101470213D01*
X165379786Y-101319890D01*
X165207820Y-101194951D01*
X165207115Y-101194591D01*
X165199054Y-101190485D01*
X165148259Y-101142512D01*
X165131463Y-101074692D01*
X165153999Y-101008556D01*
X165199054Y-100969515D01*
X165207816Y-100965051D01*
X165229789Y-100949086D01*
X165379786Y-100840109D01*
X165379788Y-100840106D01*
X165379792Y-100840104D01*
X165530104Y-100689792D01*
X165530106Y-100689788D01*
X165530109Y-100689786D01*
X165655048Y-100517820D01*
X165655047Y-100517820D01*
X165655051Y-100517816D01*
X165751557Y-100328412D01*
X165817246Y-100126243D01*
X165850500Y-99916287D01*
X165850500Y-99703713D01*
X165817246Y-99493757D01*
X165751557Y-99291588D01*
X165655051Y-99102184D01*
X165655049Y-99102181D01*
X165655048Y-99102179D01*
X165530109Y-98930213D01*
X165379786Y-98779890D01*
X165207820Y-98654951D01*
X165207115Y-98654591D01*
X165199054Y-98650485D01*
X165148259Y-98602512D01*
X165131463Y-98534692D01*
X165153999Y-98468556D01*
X165199054Y-98429515D01*
X165207816Y-98425051D01*
X165255431Y-98390457D01*
X165379786Y-98300109D01*
X165379788Y-98300106D01*
X165379792Y-98300104D01*
X165530104Y-98149792D01*
X165530106Y-98149788D01*
X165530109Y-98149786D01*
X165655048Y-97977820D01*
X165655047Y-97977820D01*
X165655051Y-97977816D01*
X165751557Y-97788412D01*
X165817246Y-97586243D01*
X165850500Y-97376287D01*
X165850500Y-97163713D01*
X165817246Y-96953757D01*
X165751557Y-96751588D01*
X165655051Y-96562184D01*
X165655049Y-96562181D01*
X165655048Y-96562179D01*
X165530109Y-96390213D01*
X165379786Y-96239890D01*
X165207820Y-96114951D01*
X165207115Y-96114591D01*
X165199054Y-96110485D01*
X165148259Y-96062512D01*
X165131463Y-95994692D01*
X165153999Y-95928556D01*
X165199054Y-95889515D01*
X165207816Y-95885051D01*
X165251508Y-95853307D01*
X165379786Y-95760109D01*
X165379788Y-95760106D01*
X165379792Y-95760104D01*
X165530104Y-95609792D01*
X165530106Y-95609788D01*
X165530109Y-95609786D01*
X165655048Y-95437820D01*
X165655047Y-95437820D01*
X165655051Y-95437816D01*
X165751557Y-95248412D01*
X165817246Y-95046243D01*
X165850500Y-94836287D01*
X165850500Y-94623713D01*
X165817246Y-94413757D01*
X165751557Y-94211588D01*
X165655051Y-94022184D01*
X165655049Y-94022181D01*
X165655048Y-94022179D01*
X165530109Y-93850213D01*
X165379786Y-93699890D01*
X165207820Y-93574951D01*
X165207115Y-93574591D01*
X165199054Y-93570485D01*
X165148259Y-93522512D01*
X165131463Y-93454692D01*
X165153999Y-93388556D01*
X165199054Y-93349515D01*
X165207816Y-93345051D01*
X165251508Y-93313307D01*
X165379786Y-93220109D01*
X165379788Y-93220106D01*
X165379792Y-93220104D01*
X165530104Y-93069792D01*
X165530106Y-93069788D01*
X165530109Y-93069786D01*
X165655048Y-92897820D01*
X165655047Y-92897820D01*
X165655051Y-92897816D01*
X165751557Y-92708412D01*
X165817246Y-92506243D01*
X165850500Y-92296287D01*
X165850500Y-92083713D01*
X165817246Y-91873757D01*
X165751557Y-91671588D01*
X165655051Y-91482184D01*
X165655049Y-91482181D01*
X165655048Y-91482179D01*
X165530109Y-91310213D01*
X165379786Y-91159890D01*
X165207820Y-91034951D01*
X165018414Y-90938444D01*
X165018413Y-90938443D01*
X165018412Y-90938443D01*
X164816243Y-90872754D01*
X164816241Y-90872753D01*
X164816240Y-90872753D01*
X164635999Y-90844206D01*
X164606287Y-90839500D01*
X164393713Y-90839500D01*
X164364001Y-90844206D01*
X164183760Y-90872753D01*
X163981585Y-90938444D01*
X163792179Y-91034951D01*
X163620213Y-91159890D01*
X163469890Y-91310213D01*
X163344951Y-91482179D01*
X163248444Y-91671585D01*
X163182753Y-91873760D01*
X163171575Y-91944336D01*
X163149500Y-92083713D01*
X153948845Y-92083713D01*
X154034814Y-91944334D01*
X154089999Y-91777797D01*
X154100500Y-91675009D01*
X154100499Y-90324992D01*
X154089999Y-90222203D01*
X154034814Y-90055666D01*
X153942712Y-89906344D01*
X153818656Y-89782288D01*
X153725888Y-89725069D01*
X153669336Y-89690187D01*
X153669331Y-89690185D01*
X153667862Y-89689698D01*
X153502797Y-89635001D01*
X153502795Y-89635000D01*
X153400010Y-89624500D01*
X152599998Y-89624500D01*
X152599980Y-89624501D01*
X152497203Y-89635000D01*
X152497200Y-89635001D01*
X152330668Y-89690185D01*
X152330663Y-89690187D01*
X152181342Y-89782289D01*
X152057289Y-89906342D01*
X151965187Y-90055663D01*
X151965186Y-90055666D01*
X151910001Y-90222203D01*
X151910001Y-90222204D01*
X151910000Y-90222204D01*
X151899500Y-90324983D01*
X144685742Y-90324983D01*
X144748799Y-90238193D01*
X144833085Y-90072771D01*
X144890457Y-89896200D01*
X144908499Y-89782288D01*
X144919500Y-89712834D01*
X144919500Y-89527165D01*
X144890457Y-89343803D01*
X144890457Y-89343800D01*
X144833085Y-89167229D01*
X144748799Y-89001807D01*
X144639672Y-88851607D01*
X144508393Y-88720328D01*
X144358193Y-88611201D01*
X144192771Y-88526915D01*
X144016200Y-88469543D01*
X144016197Y-88469542D01*
X144011567Y-88468038D01*
X144012277Y-88465852D01*
X143959914Y-88435797D01*
X143927740Y-88373776D01*
X143934205Y-88304206D01*
X143977256Y-88249176D01*
X144012004Y-88233307D01*
X144011567Y-88231962D01*
X144016197Y-88230457D01*
X144016200Y-88230457D01*
X144192771Y-88173085D01*
X144358193Y-88088799D01*
X144508393Y-87979672D01*
X144639672Y-87848393D01*
X144748799Y-87698193D01*
X144833085Y-87532771D01*
X144890457Y-87356200D01*
X144903365Y-87274701D01*
X144919500Y-87172834D01*
X144919500Y-86987165D01*
X144890457Y-86803803D01*
X144890457Y-86803800D01*
X144833085Y-86627229D01*
X144748799Y-86461807D01*
X144639672Y-86311607D01*
X144540200Y-86212135D01*
X163149500Y-86212135D01*
X163149500Y-88007870D01*
X163149501Y-88007876D01*
X163155908Y-88067483D01*
X163206202Y-88202328D01*
X163206206Y-88202335D01*
X163292452Y-88317544D01*
X163292455Y-88317547D01*
X163407664Y-88403793D01*
X163407671Y-88403797D01*
X163542517Y-88454091D01*
X163542516Y-88454091D01*
X163549444Y-88454835D01*
X163602127Y-88460500D01*
X165397872Y-88460499D01*
X165457483Y-88454091D01*
X165592331Y-88403796D01*
X165707546Y-88317546D01*
X165793796Y-88202331D01*
X165844091Y-88067483D01*
X165850500Y-88007873D01*
X165850499Y-86212128D01*
X165844091Y-86152517D01*
X165793796Y-86017669D01*
X165793795Y-86017668D01*
X165793793Y-86017664D01*
X165707547Y-85902455D01*
X165707544Y-85902452D01*
X165592335Y-85816206D01*
X165592328Y-85816202D01*
X165457482Y-85765908D01*
X165457483Y-85765908D01*
X165397883Y-85759501D01*
X165397881Y-85759500D01*
X165397873Y-85759500D01*
X165397864Y-85759500D01*
X163602129Y-85759500D01*
X163602123Y-85759501D01*
X163542516Y-85765908D01*
X163407671Y-85816202D01*
X163407664Y-85816206D01*
X163292455Y-85902452D01*
X163292452Y-85902455D01*
X163206206Y-86017664D01*
X163206202Y-86017671D01*
X163155908Y-86152517D01*
X163149501Y-86212116D01*
X163149501Y-86212123D01*
X163149500Y-86212135D01*
X144540200Y-86212135D01*
X144508393Y-86180328D01*
X144358193Y-86071201D01*
X144192771Y-85986915D01*
X144016200Y-85929543D01*
X144016198Y-85929542D01*
X144016196Y-85929542D01*
X143832834Y-85900500D01*
X143832829Y-85900500D01*
X143647171Y-85900500D01*
X143647166Y-85900500D01*
X143463803Y-85929542D01*
X143287226Y-85986916D01*
X143121806Y-86071201D01*
X143036111Y-86133462D01*
X142971607Y-86180328D01*
X142971605Y-86180330D01*
X142971604Y-86180330D01*
X142840330Y-86311604D01*
X142840330Y-86311605D01*
X142840328Y-86311607D01*
X142793462Y-86376111D01*
X142731201Y-86461806D01*
X142646916Y-86627226D01*
X142589542Y-86803803D01*
X142560500Y-86987165D01*
X129679500Y-86987165D01*
X129650457Y-86803803D01*
X129650457Y-86803800D01*
X129593085Y-86627229D01*
X129508799Y-86461807D01*
X129399672Y-86311607D01*
X129268393Y-86180328D01*
X129118193Y-86071201D01*
X128952771Y-85986915D01*
X128776200Y-85929543D01*
X128776197Y-85929542D01*
X128771567Y-85928038D01*
X128772277Y-85925852D01*
X128719914Y-85895797D01*
X128687740Y-85833776D01*
X128694205Y-85764206D01*
X128737256Y-85709176D01*
X128772004Y-85693307D01*
X128771567Y-85691962D01*
X128776197Y-85690457D01*
X128776200Y-85690457D01*
X128952771Y-85633085D01*
X129118193Y-85548799D01*
X129268393Y-85439672D01*
X129399672Y-85308393D01*
X129508799Y-85158193D01*
X129593085Y-84992771D01*
X129650457Y-84816200D01*
X129665255Y-84722771D01*
X129679500Y-84632834D01*
X129679500Y-84447165D01*
X129658969Y-84317541D01*
X129650457Y-84263800D01*
X129593085Y-84087229D01*
X129508799Y-83921807D01*
X129399672Y-83771607D01*
X129268393Y-83640328D01*
X129118193Y-83531201D01*
X128952771Y-83446915D01*
X128874335Y-83421429D01*
X128816660Y-83381992D01*
X128789462Y-83317634D01*
X128801377Y-83248787D01*
X128848621Y-83197312D01*
X128912653Y-83179499D01*
X129226872Y-83179499D01*
X129286483Y-83173091D01*
X129421331Y-83122796D01*
X129536546Y-83036546D01*
X129622796Y-82921331D01*
X129673091Y-82786483D01*
X129679500Y-82726873D01*
X129679499Y-81907165D01*
X142560500Y-81907165D01*
X142560500Y-82092834D01*
X142565377Y-82123624D01*
X142589543Y-82276200D01*
X142646915Y-82452771D01*
X142731201Y-82618193D01*
X142840328Y-82768393D01*
X142971607Y-82899672D01*
X143121807Y-83008799D01*
X143287229Y-83093085D01*
X143463800Y-83150457D01*
X143532564Y-83161348D01*
X143647166Y-83179500D01*
X143647171Y-83179500D01*
X143832834Y-83179500D01*
X143934701Y-83163365D01*
X144016200Y-83150457D01*
X144192771Y-83093085D01*
X144358193Y-83008799D01*
X144508393Y-82899672D01*
X144639672Y-82768393D01*
X144748799Y-82618193D01*
X144833085Y-82452771D01*
X144890457Y-82276200D01*
X144914623Y-82123622D01*
X144919500Y-82092834D01*
X144919500Y-81907165D01*
X144890457Y-81723803D01*
X144890457Y-81723800D01*
X144833085Y-81547229D01*
X144748799Y-81381807D01*
X144639672Y-81231607D01*
X144508393Y-81100328D01*
X144358193Y-80991201D01*
X144192771Y-80906915D01*
X144136247Y-80888549D01*
X164299500Y-80888549D01*
X164299500Y-81111450D01*
X164299501Y-81111466D01*
X164328594Y-81332452D01*
X164328595Y-81332457D01*
X164328596Y-81332463D01*
X164386142Y-81547229D01*
X164386290Y-81547780D01*
X164386293Y-81547790D01*
X164467378Y-81743546D01*
X164471595Y-81753726D01*
X164583052Y-81946774D01*
X164583057Y-81946780D01*
X164583058Y-81946782D01*
X164718751Y-82123622D01*
X164718757Y-82123629D01*
X164876370Y-82281242D01*
X164876376Y-82281247D01*
X165053226Y-82416948D01*
X165246274Y-82528405D01*
X165452219Y-82613710D01*
X165667537Y-82671404D01*
X165888543Y-82700500D01*
X165888550Y-82700500D01*
X166111450Y-82700500D01*
X166111457Y-82700500D01*
X166332463Y-82671404D01*
X166547781Y-82613710D01*
X166753726Y-82528405D01*
X166946774Y-82416948D01*
X167123624Y-82281247D01*
X167281247Y-82123624D01*
X167416948Y-81946774D01*
X167528405Y-81753726D01*
X167613710Y-81547781D01*
X167671404Y-81332463D01*
X167700500Y-81111457D01*
X167700500Y-80888543D01*
X167671404Y-80667537D01*
X167613710Y-80452219D01*
X167528405Y-80246274D01*
X167416948Y-80053226D01*
X167281247Y-79876376D01*
X167281242Y-79876370D01*
X167123629Y-79718757D01*
X167123622Y-79718751D01*
X166946782Y-79583058D01*
X166946780Y-79583057D01*
X166946774Y-79583052D01*
X166753726Y-79471595D01*
X166753722Y-79471593D01*
X166547790Y-79386293D01*
X166547783Y-79386291D01*
X166547781Y-79386290D01*
X166332463Y-79328596D01*
X166332457Y-79328595D01*
X166332452Y-79328594D01*
X166111466Y-79299501D01*
X166111463Y-79299500D01*
X166111457Y-79299500D01*
X165888543Y-79299500D01*
X165888537Y-79299500D01*
X165888533Y-79299501D01*
X165667547Y-79328594D01*
X165667540Y-79328595D01*
X165667537Y-79328596D01*
X165586361Y-79350347D01*
X165452219Y-79386290D01*
X165452209Y-79386293D01*
X165246277Y-79471593D01*
X165246273Y-79471595D01*
X165053226Y-79583052D01*
X165053217Y-79583058D01*
X164876377Y-79718751D01*
X164876370Y-79718757D01*
X164718757Y-79876370D01*
X164718751Y-79876377D01*
X164583058Y-80053217D01*
X164583052Y-80053226D01*
X164471595Y-80246273D01*
X164471593Y-80246277D01*
X164386293Y-80452209D01*
X164386290Y-80452219D01*
X164329793Y-80663072D01*
X164328597Y-80667534D01*
X164328594Y-80667547D01*
X164299501Y-80888533D01*
X164299500Y-80888549D01*
X144136247Y-80888549D01*
X144016200Y-80849543D01*
X144016198Y-80849542D01*
X144016196Y-80849542D01*
X143832834Y-80820500D01*
X143832829Y-80820500D01*
X143647171Y-80820500D01*
X143647166Y-80820500D01*
X143463803Y-80849542D01*
X143287226Y-80906916D01*
X143121806Y-80991201D01*
X143036111Y-81053462D01*
X142971607Y-81100328D01*
X142971605Y-81100330D01*
X142971604Y-81100330D01*
X142840330Y-81231604D01*
X142840330Y-81231605D01*
X142840328Y-81231607D01*
X142810156Y-81273135D01*
X142731201Y-81381806D01*
X142646916Y-81547226D01*
X142589542Y-81723803D01*
X142560500Y-81907165D01*
X129679499Y-81907165D01*
X129679499Y-81273128D01*
X129673091Y-81213517D01*
X129635028Y-81111466D01*
X129622797Y-81078671D01*
X129622793Y-81078664D01*
X129536547Y-80963455D01*
X129536544Y-80963452D01*
X129421335Y-80877206D01*
X129421328Y-80877202D01*
X129286482Y-80826908D01*
X129286483Y-80826908D01*
X129226883Y-80820501D01*
X129226881Y-80820500D01*
X129226873Y-80820500D01*
X129226864Y-80820500D01*
X127773129Y-80820500D01*
X127773123Y-80820501D01*
X127713516Y-80826908D01*
X127578671Y-80877202D01*
X127578664Y-80877206D01*
X127463455Y-80963452D01*
X127463452Y-80963455D01*
X127377206Y-81078664D01*
X127377202Y-81078671D01*
X127326908Y-81213517D01*
X127320501Y-81273116D01*
X127320501Y-81273123D01*
X127320500Y-81273135D01*
X127320500Y-81743546D01*
X127311855Y-81772987D01*
X127305336Y-81802965D01*
X127301578Y-81807985D01*
X127300815Y-81810585D01*
X127284188Y-81831221D01*
X127277235Y-81838175D01*
X127215914Y-81871664D01*
X127189547Y-81874500D01*
X120067741Y-81874500D01*
X120067721Y-81874499D01*
X120061607Y-81874499D01*
X119938394Y-81874499D01*
X119837597Y-81894548D01*
X119837592Y-81894548D01*
X119817549Y-81898536D01*
X119817547Y-81898536D01*
X119770397Y-81918067D01*
X119703719Y-81945685D01*
X119703717Y-81945686D01*
X119601270Y-82014139D01*
X119601264Y-82014144D01*
X119576875Y-82038532D01*
X119515551Y-82072015D01*
X119450880Y-82068779D01*
X119351370Y-82036447D01*
X119351371Y-82036447D01*
X119118097Y-81999500D01*
X119118092Y-81999500D01*
X118881908Y-81999500D01*
X118881903Y-81999500D01*
X118648631Y-82036446D01*
X118424003Y-82109433D01*
X118213566Y-82216657D01*
X118124667Y-82281247D01*
X118022490Y-82355483D01*
X118022488Y-82355485D01*
X118022487Y-82355485D01*
X117855485Y-82522487D01*
X117855485Y-82522488D01*
X117855483Y-82522490D01*
X117851185Y-82528406D01*
X117716657Y-82713566D01*
X117669155Y-82806795D01*
X117621180Y-82857591D01*
X117558670Y-82874500D01*
X113941330Y-82874500D01*
X113874291Y-82854815D01*
X113830845Y-82806795D01*
X113811278Y-82768393D01*
X113783343Y-82713567D01*
X113644517Y-82522490D01*
X113477510Y-82355483D01*
X113286433Y-82216657D01*
X113075996Y-82109433D01*
X112851368Y-82036446D01*
X112618097Y-81999500D01*
X112618092Y-81999500D01*
X112381908Y-81999500D01*
X112381903Y-81999500D01*
X112148631Y-82036446D01*
X111924003Y-82109433D01*
X111713566Y-82216657D01*
X111624667Y-82281247D01*
X111522490Y-82355483D01*
X111522488Y-82355485D01*
X111522487Y-82355485D01*
X111355485Y-82522487D01*
X111355485Y-82522488D01*
X111355483Y-82522490D01*
X111351185Y-82528406D01*
X111216657Y-82713566D01*
X111109433Y-82924003D01*
X111036446Y-83148631D01*
X110999500Y-83381902D01*
X109500500Y-83381902D01*
X109500500Y-81003051D01*
X109500649Y-80996967D01*
X109505975Y-80888549D01*
X109517052Y-80663068D01*
X109518245Y-80650962D01*
X109547727Y-80452209D01*
X109566849Y-80323296D01*
X109569218Y-80311385D01*
X109649710Y-79990043D01*
X109653240Y-79978411D01*
X109764835Y-79666525D01*
X109769476Y-79655318D01*
X109911124Y-79355828D01*
X109916840Y-79345136D01*
X110087145Y-79060998D01*
X110093888Y-79050905D01*
X110291232Y-78784818D01*
X110298935Y-78775433D01*
X110521405Y-78529975D01*
X110529975Y-78521405D01*
X110775433Y-78298935D01*
X110784818Y-78291232D01*
X111050905Y-78093888D01*
X111060998Y-78087145D01*
X111345136Y-77916840D01*
X111355828Y-77911124D01*
X111655318Y-77769476D01*
X111666525Y-77764835D01*
X111978412Y-77653239D01*
X111990043Y-77649710D01*
X112311385Y-77569218D01*
X112323296Y-77566849D01*
X112650962Y-77518244D01*
X112663068Y-77517052D01*
X112996967Y-77500648D01*
X113003051Y-77500500D01*
X113065892Y-77500500D01*
X165934108Y-77500500D01*
X165996949Y-77500500D01*
X166003032Y-77500648D01*
G37*
%TD.AperFunction*%
%TD*%
M02*
