%TF.GenerationSoftware,KiCad,Pcbnew,9.0.7*%
%TF.CreationDate,2026-04-07T21:21:47-04:00*%
%TF.ProjectId,camara-diy,63616d61-7261-42d6-9469-792e6b696361,rev?*%
%TF.SameCoordinates,Original*%
%TF.FileFunction,OtherDrawing,Comment*%
%FSLAX46Y46*%
G04 Gerber Fmt 4.6, Leading zero omitted, Abs format (unit mm)*
G04 Created by KiCad (PCBNEW 9.0.7) date 2026-04-07 21:21:47*
%MOMM*%
%LPD*%
G01*
G04 APERTURE LIST*
%ADD10C,0.100000*%
G04 APERTURE END LIST*
D10*
X159460714Y-113726109D02*
X159460714Y-113226109D01*
X159460714Y-113226109D02*
X159651190Y-113226109D01*
X159651190Y-113226109D02*
X159698809Y-113249919D01*
X159698809Y-113249919D02*
X159722619Y-113273728D01*
X159722619Y-113273728D02*
X159746428Y-113321347D01*
X159746428Y-113321347D02*
X159746428Y-113392776D01*
X159746428Y-113392776D02*
X159722619Y-113440395D01*
X159722619Y-113440395D02*
X159698809Y-113464204D01*
X159698809Y-113464204D02*
X159651190Y-113488014D01*
X159651190Y-113488014D02*
X159460714Y-113488014D01*
X160246428Y-113678490D02*
X160222619Y-113702300D01*
X160222619Y-113702300D02*
X160151190Y-113726109D01*
X160151190Y-113726109D02*
X160103571Y-113726109D01*
X160103571Y-113726109D02*
X160032143Y-113702300D01*
X160032143Y-113702300D02*
X159984524Y-113654680D01*
X159984524Y-113654680D02*
X159960714Y-113607061D01*
X159960714Y-113607061D02*
X159936905Y-113511823D01*
X159936905Y-113511823D02*
X159936905Y-113440395D01*
X159936905Y-113440395D02*
X159960714Y-113345157D01*
X159960714Y-113345157D02*
X159984524Y-113297538D01*
X159984524Y-113297538D02*
X160032143Y-113249919D01*
X160032143Y-113249919D02*
X160103571Y-113226109D01*
X160103571Y-113226109D02*
X160151190Y-113226109D01*
X160151190Y-113226109D02*
X160222619Y-113249919D01*
X160222619Y-113249919D02*
X160246428Y-113273728D01*
X160627381Y-113464204D02*
X160698809Y-113488014D01*
X160698809Y-113488014D02*
X160722619Y-113511823D01*
X160722619Y-113511823D02*
X160746428Y-113559442D01*
X160746428Y-113559442D02*
X160746428Y-113630871D01*
X160746428Y-113630871D02*
X160722619Y-113678490D01*
X160722619Y-113678490D02*
X160698809Y-113702300D01*
X160698809Y-113702300D02*
X160651190Y-113726109D01*
X160651190Y-113726109D02*
X160460714Y-113726109D01*
X160460714Y-113726109D02*
X160460714Y-113226109D01*
X160460714Y-113226109D02*
X160627381Y-113226109D01*
X160627381Y-113226109D02*
X160675000Y-113249919D01*
X160675000Y-113249919D02*
X160698809Y-113273728D01*
X160698809Y-113273728D02*
X160722619Y-113321347D01*
X160722619Y-113321347D02*
X160722619Y-113368966D01*
X160722619Y-113368966D02*
X160698809Y-113416585D01*
X160698809Y-113416585D02*
X160675000Y-113440395D01*
X160675000Y-113440395D02*
X160627381Y-113464204D01*
X160627381Y-113464204D02*
X160460714Y-113464204D01*
X161341666Y-113464204D02*
X161508333Y-113464204D01*
X161579761Y-113726109D02*
X161341666Y-113726109D01*
X161341666Y-113726109D02*
X161341666Y-113226109D01*
X161341666Y-113226109D02*
X161579761Y-113226109D01*
X162008333Y-113726109D02*
X162008333Y-113226109D01*
X162008333Y-113702300D02*
X161960714Y-113726109D01*
X161960714Y-113726109D02*
X161865476Y-113726109D01*
X161865476Y-113726109D02*
X161817857Y-113702300D01*
X161817857Y-113702300D02*
X161794047Y-113678490D01*
X161794047Y-113678490D02*
X161770238Y-113630871D01*
X161770238Y-113630871D02*
X161770238Y-113488014D01*
X161770238Y-113488014D02*
X161794047Y-113440395D01*
X161794047Y-113440395D02*
X161817857Y-113416585D01*
X161817857Y-113416585D02*
X161865476Y-113392776D01*
X161865476Y-113392776D02*
X161960714Y-113392776D01*
X161960714Y-113392776D02*
X162008333Y-113416585D01*
X162460714Y-113392776D02*
X162460714Y-113797538D01*
X162460714Y-113797538D02*
X162436904Y-113845157D01*
X162436904Y-113845157D02*
X162413095Y-113868966D01*
X162413095Y-113868966D02*
X162365476Y-113892776D01*
X162365476Y-113892776D02*
X162294047Y-113892776D01*
X162294047Y-113892776D02*
X162246428Y-113868966D01*
X162460714Y-113702300D02*
X162413095Y-113726109D01*
X162413095Y-113726109D02*
X162317857Y-113726109D01*
X162317857Y-113726109D02*
X162270238Y-113702300D01*
X162270238Y-113702300D02*
X162246428Y-113678490D01*
X162246428Y-113678490D02*
X162222619Y-113630871D01*
X162222619Y-113630871D02*
X162222619Y-113488014D01*
X162222619Y-113488014D02*
X162246428Y-113440395D01*
X162246428Y-113440395D02*
X162270238Y-113416585D01*
X162270238Y-113416585D02*
X162317857Y-113392776D01*
X162317857Y-113392776D02*
X162413095Y-113392776D01*
X162413095Y-113392776D02*
X162460714Y-113416585D01*
X162889285Y-113702300D02*
X162841666Y-113726109D01*
X162841666Y-113726109D02*
X162746428Y-113726109D01*
X162746428Y-113726109D02*
X162698809Y-113702300D01*
X162698809Y-113702300D02*
X162675000Y-113654680D01*
X162675000Y-113654680D02*
X162675000Y-113464204D01*
X162675000Y-113464204D02*
X162698809Y-113416585D01*
X162698809Y-113416585D02*
X162746428Y-113392776D01*
X162746428Y-113392776D02*
X162841666Y-113392776D01*
X162841666Y-113392776D02*
X162889285Y-113416585D01*
X162889285Y-113416585D02*
X162913095Y-113464204D01*
X162913095Y-113464204D02*
X162913095Y-113511823D01*
X162913095Y-113511823D02*
X162675000Y-113559442D01*
M02*
